M48
; DRILL file {KiCad 6.0.5-a6ca702e91~116~ubuntu20.04.1} date dim. 31 juil. 2022 14:48:18
; FORMAT={-:-/ absolute / metric / decimal}
; #@! TF.CreationDate,2022-07-31T14:48:18+02:00
; #@! TF.GenerationSoftware,Kicad,Pcbnew,6.0.5-a6ca702e91~116~ubuntu20.04.1
; #@! TF.FileFunction,Plated,1,2,PTH
FMAT,2
METRIC
; #@! TA.AperFunction,Plated,PTH,ViaDrill
T1C0.400
; #@! TA.AperFunction,Plated,PTH,ComponentDrill
T2C0.800
; #@! TA.AperFunction,Plated,PTH,ComponentDrill
T3C0.900
; #@! TA.AperFunction,Plated,PTH,ComponentDrill
T4C1.000
; #@! TA.AperFunction,Plated,PTH,ComponentDrill
T5C1.100
; #@! TA.AperFunction,Plated,PTH,ComponentDrill
T6C1.190
; #@! TA.AperFunction,Plated,PTH,ComponentDrill
T7C1.295
%
G90
G05
T1
X131.572Y-21.717
X131.572Y-25.4
X133.223Y-25.273
X133.35Y-21.717
X134.112Y-59.69
X135.001Y-25.4
X135.255Y-21.717
X135.636Y-59.69
X136.906Y-22.098
X136.906Y-25.4
X137.033Y-23.876
X138.938Y-80.264
X140.208Y-55.372
X140.208Y-56.896
X140.97Y-80.264
X142.494Y-72.898
X142.494Y-74.168
X142.494Y-77.47
X142.494Y-78.74
X142.748Y-43.815
X142.748Y-55.372
X142.748Y-80.264
X144.399Y-80.264
X148.59Y-83.566
X148.59Y-88.9
X148.59Y-93.98
X148.59Y-99.06
X148.844Y-104.14
X151.13Y-86.36
X151.13Y-91.44
X151.13Y-96.52
X151.13Y-101.6
X153.67Y-88.9
X153.67Y-93.98
X153.67Y-99.06
X156.21Y-96.52
X156.21Y-101.6
X156.21Y-105.41
X157.988Y-26.924
X157.988Y-34.036
X158.75Y-99.06
X159.258Y-105.41
X160.02Y-54.61
X160.02Y-58.42
X160.528Y-50.8
X161.29Y-101.6
X162.103Y-104.14
X166.37Y-101.6
X166.624Y-48.26
X167.005Y-61.214
X167.132Y-104.14
X167.64Y-26.416
X167.894Y-46.482
X168.656Y-24.892
X169.672Y-26.416
X169.672Y-44.704
X170.18Y-101.6
X170.18Y-104.902
X171.45Y-103.378
X172.212Y-101.854
X173.228Y-103.378
X175.006Y-103.378
X176.276Y-84.582
X176.53Y-80.01
X177.155Y-109.474
X178.562Y-82.042
X179.07Y-77.47
X179.07Y-88.646
X180.555Y-109.474
X184.404Y-85.344
X184.785Y-54.61
X184.785Y-57.658
X185.166Y-50.8
X186.436Y-85.344
X187.198Y-103.124
X187.198Y-113.03
X188.722Y-113.03
X198.628Y-24.384
X198.628Y-29.083
X198.628Y-37.211
X198.628Y-42.291
X198.628Y-45.085
X198.882Y-86.208
X198.882Y-90.17
X198.882Y-93.091
X198.882Y-99.568
X198.882Y-106.045
T2
X151.59Y-24.123
X151.59Y-26.663
X151.59Y-29.203
X151.59Y-31.743
X151.59Y-34.283
X151.59Y-36.823
X151.59Y-39.363
X151.59Y-41.903
X151.671Y-45.72
X151.671Y-48.26
X151.671Y-50.8
X151.671Y-53.34
X151.671Y-55.88
X151.671Y-58.42
X151.671Y-60.96
X151.671Y-63.5
X159.036Y-24.087
X159.036Y-45.72
X161.036Y-24.087
X161.036Y-45.72
X164.29Y-24.123
X164.29Y-26.663
X164.29Y-29.203
X164.29Y-31.743
X164.29Y-34.283
X164.29Y-36.823
X164.29Y-39.363
X164.29Y-41.903
X164.371Y-45.72
X164.371Y-48.26
X164.371Y-50.8
X164.371Y-53.34
X164.371Y-55.88
X164.371Y-58.42
X164.371Y-60.96
X164.371Y-63.5
X175.961Y-24.087
X175.961Y-26.627
X175.961Y-29.167
X175.961Y-31.707
X175.961Y-34.247
X175.961Y-36.787
X175.961Y-39.327
X175.961Y-41.867
X175.971Y-45.713
X175.971Y-48.253
X175.971Y-50.793
X175.971Y-53.333
X175.971Y-55.873
X175.971Y-58.413
X175.971Y-60.953
X175.971Y-63.493
X183.311Y-24.087
X183.311Y-45.713
X185.311Y-24.087
X185.311Y-45.713
X188.661Y-24.087
X188.661Y-26.627
X188.661Y-29.167
X188.661Y-31.707
X188.661Y-34.247
X188.661Y-36.787
X188.661Y-39.327
X188.661Y-41.867
X188.671Y-45.713
X188.671Y-48.253
X188.671Y-50.793
X188.671Y-53.333
X188.671Y-55.873
X188.671Y-58.413
X188.671Y-60.953
X188.671Y-63.493
T3
X141.356Y-111.506
X143.896Y-111.506
T4
X133.25Y-71.24
X133.25Y-73.78
X133.25Y-76.32
X133.25Y-78.86
X133.25Y-81.4
X133.25Y-83.94
X133.25Y-86.48
X133.25Y-89.02
X133.25Y-91.56
X133.25Y-94.1
X133.25Y-96.64
X133.25Y-99.18
X133.25Y-101.72
X133.25Y-104.26
X133.25Y-106.8
X133.25Y-109.34
X133.25Y-111.88
X133.25Y-114.42
X133.25Y-116.96
X133.3Y-67.31
X135.79Y-71.24
X135.79Y-73.78
X135.79Y-76.32
X135.79Y-78.86
X135.79Y-81.4
X135.79Y-83.94
X135.79Y-86.48
X135.79Y-89.02
X135.79Y-91.56
X135.79Y-94.1
X135.79Y-96.64
X135.79Y-99.18
X135.79Y-101.72
X135.79Y-104.26
X135.79Y-106.8
X135.79Y-109.34
X135.79Y-111.88
X135.79Y-114.42
X135.79Y-116.96
X135.84Y-67.31
X140.975Y-117.099
X140.975Y-119.639
X141.894Y-26.154
X143.515Y-117.099
X143.515Y-119.639
X146.055Y-117.099
X146.055Y-119.639
X146.894Y-26.154
X148.595Y-117.099
X148.595Y-119.639
X151.135Y-117.099
X151.135Y-119.639
X154.973Y-24.763
X154.973Y-27.303
X154.973Y-31.748
X154.973Y-34.288
X154.973Y-38.606
X154.973Y-41.146
X154.973Y-46.355
X154.973Y-48.895
X154.973Y-52.959
X154.973Y-55.499
X154.973Y-59.695
X154.973Y-62.235
X159.131Y-117.094
X159.131Y-119.634
X161.671Y-117.094
X161.671Y-119.634
X164.211Y-117.094
X164.211Y-119.634
X166.751Y-117.094
X166.751Y-119.634
X169.291Y-117.094
X169.291Y-119.634
X179.37Y-24.856
X179.37Y-27.396
X179.37Y-31.592
X179.37Y-34.132
X179.37Y-38.577
X179.37Y-41.117
X179.39Y-46.353
X179.39Y-48.893
X179.39Y-52.83
X179.39Y-55.37
X179.39Y-59.307
X179.39Y-61.847
X187.833Y-80.269
X187.833Y-82.809
X187.833Y-87.736
X187.833Y-90.276
X192.532Y-62.859
X194.21Y-71.24
X194.21Y-73.78
X194.21Y-76.32
X194.21Y-78.86
X194.21Y-81.4
X194.21Y-83.94
X194.21Y-86.48
X194.21Y-89.02
X194.21Y-91.56
X194.21Y-94.1
X194.21Y-96.64
X194.21Y-99.18
X194.21Y-101.72
X194.21Y-104.26
X194.21Y-106.8
X194.21Y-109.34
X194.21Y-111.88
X194.21Y-114.42
X194.21Y-116.96
X195.072Y-62.859
X196.75Y-71.24
X196.75Y-73.78
X196.75Y-76.32
X196.75Y-78.86
X196.75Y-81.4
X196.75Y-83.94
X196.75Y-86.48
X196.75Y-89.02
X196.75Y-91.56
X196.75Y-94.1
X196.75Y-96.64
X196.75Y-99.18
X196.75Y-101.72
X196.75Y-104.26
X196.75Y-106.8
X196.75Y-109.34
X196.75Y-111.88
X196.75Y-114.42
X196.75Y-116.96
X197.612Y-62.859
T5
X142.748Y-45.72
X142.748Y-48.26
X142.748Y-50.8
X142.748Y-57.15
X142.748Y-59.69
X142.748Y-62.23
T6
X141.605Y-82.924
X141.605Y-85.464
X141.605Y-88.004
X141.605Y-92.516
X141.605Y-95.056
X141.605Y-97.596
X141.605Y-102.108
X141.605Y-104.648
X141.605Y-107.188
X169.926Y-29.203
X169.926Y-31.743
X169.926Y-34.283
X169.926Y-36.823
X169.926Y-50.8
X169.926Y-53.34
X169.926Y-55.88
X169.926Y-58.42
X194.201Y-29.203
X194.201Y-31.743
X194.201Y-34.283
X194.201Y-36.823
X194.201Y-44.196
X194.201Y-46.736
X194.201Y-50.8
X194.201Y-53.34
X194.201Y-55.88
X194.201Y-58.42
X194.221Y-22.503
X194.221Y-25.043
T7
X134.917Y-23.662
X134.917Y-28.662
X134.917Y-45.76
X134.917Y-50.76
X134.917Y-57.19
X134.917Y-62.19
T0
M30
