%FSLAX45Y45*%
G04 Gerber Fmt 4.5, Leading zero omitted, Abs format (unit mm)*
G04 Created by KiCad (PCBNEW 6.0.5-a6ca702e91~116~ubuntu20.04.1) date 2022-07-31 14:48:19*
%MOMM*%
%LPD*%
G01*
G04 APERTURE LIST*
%TA.AperFunction,Profile*%
%ADD10C,0.150000*%
%TD*%
%ADD11C,0.200000*%
%ADD12C,0.040000*%
%ADD13C,0.080000*%
%ADD14C,0.090000*%
%ADD15C,0.100000*%
%ADD16C,0.110000*%
%ADD17C,0.119000*%
%ADD18C,0.129540*%
G04 APERTURE END LIST*
D10*
X19800000Y-2031841D02*
X13200000Y-2032000D01*
X15972000Y-6869000D02*
G75*
G03*
X15972000Y-6869000I-300000J0D01*
G01*
X13200000Y-12199779D02*
X17600000Y-12200000D01*
X19800000Y-12000000D02*
G75*
G03*
X20000000Y-11800000I0J200000D01*
G01*
X17600000Y-12200000D02*
X17800000Y-12000000D01*
X20000000Y-11800000D02*
X20000000Y-2231841D01*
X19075000Y-6870000D02*
G75*
G03*
X19075000Y-6870000I-162000J0D01*
G01*
X13000000Y-11999779D02*
X13000000Y-2232000D01*
X14249000Y-6742000D02*
G75*
G03*
X14249000Y-6742000I-162000J0D01*
G01*
X13000001Y-11999779D02*
G75*
G03*
X13200000Y-12199779I199999J-1D01*
G01*
X17800000Y-12000000D02*
X19800000Y-12000000D01*
X17630000Y-6868000D02*
G75*
G03*
X17630000Y-6868000I-300000J0D01*
G01*
X17550000Y-11950000D02*
G75*
G03*
X17550000Y-11950000I-163000J0D01*
G01*
X13200000Y-2032000D02*
G75*
G03*
X13000000Y-2232000I0J-200000D01*
G01*
X19999999Y-2231841D02*
G75*
G03*
X19800000Y-2031841I-199999J1D01*
G01*
D11*
D12*
X13137200Y-2151700D02*
X13177200Y-2191700D01*
X13177200Y-2151700D02*
X13137200Y-2191700D01*
X13137200Y-2520000D02*
X13177200Y-2560000D01*
X13177200Y-2520000D02*
X13137200Y-2560000D01*
X13302300Y-2507300D02*
X13342300Y-2547300D01*
X13342300Y-2507300D02*
X13302300Y-2547300D01*
X13315000Y-2151700D02*
X13355000Y-2191700D01*
X13355000Y-2151700D02*
X13315000Y-2191700D01*
X13391200Y-5949000D02*
X13431200Y-5989000D01*
X13431200Y-5949000D02*
X13391200Y-5989000D01*
X13480100Y-2520000D02*
X13520100Y-2560000D01*
X13520100Y-2520000D02*
X13480100Y-2560000D01*
X13505500Y-2151700D02*
X13545500Y-2191700D01*
X13545500Y-2151700D02*
X13505500Y-2191700D01*
X13543600Y-5949000D02*
X13583600Y-5989000D01*
X13583600Y-5949000D02*
X13543600Y-5989000D01*
X13670600Y-2189800D02*
X13710600Y-2229800D01*
X13710600Y-2189800D02*
X13670600Y-2229800D01*
X13670600Y-2520000D02*
X13710600Y-2560000D01*
X13710600Y-2520000D02*
X13670600Y-2560000D01*
X13683300Y-2367600D02*
X13723300Y-2407600D01*
X13723300Y-2367600D02*
X13683300Y-2407600D01*
X13873800Y-8006400D02*
X13913800Y-8046400D01*
X13913800Y-8006400D02*
X13873800Y-8046400D01*
X14000800Y-5517200D02*
X14040800Y-5557200D01*
X14040800Y-5517200D02*
X14000800Y-5557200D01*
X14000800Y-5669600D02*
X14040800Y-5709600D01*
X14040800Y-5669600D02*
X14000800Y-5709600D01*
X14077000Y-8006400D02*
X14117000Y-8046400D01*
X14117000Y-8006400D02*
X14077000Y-8046400D01*
X14229400Y-7269800D02*
X14269400Y-7309800D01*
X14269400Y-7269800D02*
X14229400Y-7309800D01*
X14229400Y-7396800D02*
X14269400Y-7436800D01*
X14269400Y-7396800D02*
X14229400Y-7436800D01*
X14229400Y-7727000D02*
X14269400Y-7767000D01*
X14269400Y-7727000D02*
X14229400Y-7767000D01*
X14229400Y-7854000D02*
X14269400Y-7894000D01*
X14269400Y-7854000D02*
X14229400Y-7894000D01*
X14254800Y-4361500D02*
X14294800Y-4401500D01*
X14294800Y-4361500D02*
X14254800Y-4401500D01*
X14254800Y-5517200D02*
X14294800Y-5557200D01*
X14294800Y-5517200D02*
X14254800Y-5557200D01*
X14254800Y-8006400D02*
X14294800Y-8046400D01*
X14294800Y-8006400D02*
X14254800Y-8046400D01*
X14419900Y-8006400D02*
X14459900Y-8046400D01*
X14459900Y-8006400D02*
X14419900Y-8046400D01*
X14839000Y-8336600D02*
X14879000Y-8376600D01*
X14879000Y-8336600D02*
X14839000Y-8376600D01*
X14839000Y-8870000D02*
X14879000Y-8910000D01*
X14879000Y-8870000D02*
X14839000Y-8910000D01*
X14839000Y-9378000D02*
X14879000Y-9418000D01*
X14879000Y-9378000D02*
X14839000Y-9418000D01*
X14839000Y-9886000D02*
X14879000Y-9926000D01*
X14879000Y-9886000D02*
X14839000Y-9926000D01*
X14864400Y-10394000D02*
X14904400Y-10434000D01*
X14904400Y-10394000D02*
X14864400Y-10434000D01*
X15093000Y-8616000D02*
X15133000Y-8656000D01*
X15133000Y-8616000D02*
X15093000Y-8656000D01*
X15093000Y-9124000D02*
X15133000Y-9164000D01*
X15133000Y-9124000D02*
X15093000Y-9164000D01*
X15093000Y-9632000D02*
X15133000Y-9672000D01*
X15133000Y-9632000D02*
X15093000Y-9672000D01*
X15093000Y-10140000D02*
X15133000Y-10180000D01*
X15133000Y-10140000D02*
X15093000Y-10180000D01*
X15347000Y-8870000D02*
X15387000Y-8910000D01*
X15387000Y-8870000D02*
X15347000Y-8910000D01*
X15347000Y-9378000D02*
X15387000Y-9418000D01*
X15387000Y-9378000D02*
X15347000Y-9418000D01*
X15347000Y-9886000D02*
X15387000Y-9926000D01*
X15387000Y-9886000D02*
X15347000Y-9926000D01*
X15601000Y-9632000D02*
X15641000Y-9672000D01*
X15641000Y-9632000D02*
X15601000Y-9672000D01*
X15601000Y-10140000D02*
X15641000Y-10180000D01*
X15641000Y-10140000D02*
X15601000Y-10180000D01*
X15601000Y-10521000D02*
X15641000Y-10561000D01*
X15641000Y-10521000D02*
X15601000Y-10561000D01*
X15778800Y-2672400D02*
X15818800Y-2712400D01*
X15818800Y-2672400D02*
X15778800Y-2712400D01*
X15778800Y-3383600D02*
X15818800Y-3423600D01*
X15818800Y-3383600D02*
X15778800Y-3423600D01*
X15855000Y-9886000D02*
X15895000Y-9926000D01*
X15895000Y-9886000D02*
X15855000Y-9926000D01*
X15905800Y-10521000D02*
X15945800Y-10561000D01*
X15945800Y-10521000D02*
X15905800Y-10561000D01*
X15982000Y-5441000D02*
X16022000Y-5481000D01*
X16022000Y-5441000D02*
X15982000Y-5481000D01*
X15982000Y-5822000D02*
X16022000Y-5862000D01*
X16022000Y-5822000D02*
X15982000Y-5862000D01*
X16032800Y-5060000D02*
X16072800Y-5100000D01*
X16072800Y-5060000D02*
X16032800Y-5100000D01*
X16109000Y-10140000D02*
X16149000Y-10180000D01*
X16149000Y-10140000D02*
X16109000Y-10180000D01*
X16190280Y-10394000D02*
X16230280Y-10434000D01*
X16230280Y-10394000D02*
X16190280Y-10434000D01*
X16617000Y-10140000D02*
X16657000Y-10180000D01*
X16657000Y-10140000D02*
X16617000Y-10180000D01*
X16642400Y-4806000D02*
X16682400Y-4846000D01*
X16682400Y-4806000D02*
X16642400Y-4846000D01*
X16680500Y-6101400D02*
X16720500Y-6141400D01*
X16720500Y-6101400D02*
X16680500Y-6141400D01*
X16693200Y-10394000D02*
X16733200Y-10434000D01*
X16733200Y-10394000D02*
X16693200Y-10434000D01*
X16744000Y-2621600D02*
X16784000Y-2661600D01*
X16784000Y-2621600D02*
X16744000Y-2661600D01*
X16769400Y-4628200D02*
X16809400Y-4668200D01*
X16809400Y-4628200D02*
X16769400Y-4668200D01*
X16845600Y-2469200D02*
X16885600Y-2509200D01*
X16885600Y-2469200D02*
X16845600Y-2509200D01*
X16947200Y-2621600D02*
X16987200Y-2661600D01*
X16987200Y-2621600D02*
X16947200Y-2661600D01*
X16947200Y-4450400D02*
X16987200Y-4490400D01*
X16987200Y-4450400D02*
X16947200Y-4490400D01*
X16998000Y-10140000D02*
X17038000Y-10180000D01*
X17038000Y-10140000D02*
X16998000Y-10180000D01*
X16998000Y-10470200D02*
X17038000Y-10510200D01*
X17038000Y-10470200D02*
X16998000Y-10510200D01*
X17125000Y-10317800D02*
X17165000Y-10357800D01*
X17165000Y-10317800D02*
X17125000Y-10357800D01*
X17201200Y-10165400D02*
X17241200Y-10205400D01*
X17241200Y-10165400D02*
X17201200Y-10205400D01*
X17302800Y-10317800D02*
X17342800Y-10357800D01*
X17342800Y-10317800D02*
X17302800Y-10357800D01*
X17480600Y-10317800D02*
X17520600Y-10357800D01*
X17520600Y-10317800D02*
X17480600Y-10357800D01*
X17607600Y-8438200D02*
X17647600Y-8478200D01*
X17647600Y-8438200D02*
X17607600Y-8478200D01*
X17633000Y-7981000D02*
X17673000Y-8021000D01*
X17673000Y-7981000D02*
X17633000Y-8021000D01*
X17695500Y-10927400D02*
X17735500Y-10967400D01*
X17735500Y-10927400D02*
X17695500Y-10967400D01*
X17836200Y-8184200D02*
X17876200Y-8224200D01*
X17876200Y-8184200D02*
X17836200Y-8224200D01*
X17887000Y-7727000D02*
X17927000Y-7767000D01*
X17927000Y-7727000D02*
X17887000Y-7767000D01*
X17887000Y-8844600D02*
X17927000Y-8884600D01*
X17927000Y-8844600D02*
X17887000Y-8884600D01*
X18035500Y-10927400D02*
X18075500Y-10967400D01*
X18075500Y-10927400D02*
X18035500Y-10967400D01*
X18420400Y-8514400D02*
X18460400Y-8554400D01*
X18460400Y-8514400D02*
X18420400Y-8554400D01*
X18458500Y-5441000D02*
X18498500Y-5481000D01*
X18498500Y-5441000D02*
X18458500Y-5481000D01*
X18458500Y-5745800D02*
X18498500Y-5785800D01*
X18498500Y-5745800D02*
X18458500Y-5785800D01*
X18496600Y-5060000D02*
X18536600Y-5100000D01*
X18536600Y-5060000D02*
X18496600Y-5100000D01*
X18623600Y-8514400D02*
X18663600Y-8554400D01*
X18663600Y-8514400D02*
X18623600Y-8554400D01*
X18699800Y-10292400D02*
X18739800Y-10332400D01*
X18739800Y-10292400D02*
X18699800Y-10332400D01*
X18699800Y-11283000D02*
X18739800Y-11323000D01*
X18739800Y-11283000D02*
X18699800Y-11323000D01*
X18852200Y-11283000D02*
X18892200Y-11323000D01*
X18892200Y-11283000D02*
X18852200Y-11323000D01*
X19842800Y-2418400D02*
X19882800Y-2458400D01*
X19882800Y-2418400D02*
X19842800Y-2458400D01*
X19842800Y-2888300D02*
X19882800Y-2928300D01*
X19882800Y-2888300D02*
X19842800Y-2928300D01*
X19842800Y-3701100D02*
X19882800Y-3741100D01*
X19882800Y-3701100D02*
X19842800Y-3741100D01*
X19842800Y-4209100D02*
X19882800Y-4249100D01*
X19882800Y-4209100D02*
X19842800Y-4249100D01*
X19842800Y-4488500D02*
X19882800Y-4528500D01*
X19882800Y-4488500D02*
X19842800Y-4528500D01*
X19868200Y-8600760D02*
X19908200Y-8640760D01*
X19908200Y-8600760D02*
X19868200Y-8640760D01*
X19868200Y-8997000D02*
X19908200Y-9037000D01*
X19908200Y-8997000D02*
X19868200Y-9037000D01*
X19868200Y-9289100D02*
X19908200Y-9329100D01*
X19908200Y-9289100D02*
X19868200Y-9329100D01*
X19868200Y-9936800D02*
X19908200Y-9976800D01*
X19908200Y-9936800D02*
X19868200Y-9976800D01*
X19868200Y-10584500D02*
X19908200Y-10624500D01*
X19908200Y-10584500D02*
X19868200Y-10624500D01*
D13*
X15199000Y-2412300D02*
G75*
G03*
X15199000Y-2412300I-40000J0D01*
G01*
X15199000Y-2666300D02*
G75*
G03*
X15199000Y-2666300I-40000J0D01*
G01*
X15199000Y-2920300D02*
G75*
G03*
X15199000Y-2920300I-40000J0D01*
G01*
X15199000Y-3174300D02*
G75*
G03*
X15199000Y-3174300I-40000J0D01*
G01*
X15199000Y-3428300D02*
G75*
G03*
X15199000Y-3428300I-40000J0D01*
G01*
X15199000Y-3682300D02*
G75*
G03*
X15199000Y-3682300I-40000J0D01*
G01*
X15199000Y-3936300D02*
G75*
G03*
X15199000Y-3936300I-40000J0D01*
G01*
X15199000Y-4190300D02*
G75*
G03*
X15199000Y-4190300I-40000J0D01*
G01*
X15207100Y-4572000D02*
G75*
G03*
X15207100Y-4572000I-40000J0D01*
G01*
X15207100Y-4826000D02*
G75*
G03*
X15207100Y-4826000I-40000J0D01*
G01*
X15207100Y-5080000D02*
G75*
G03*
X15207100Y-5080000I-40000J0D01*
G01*
X15207100Y-5334000D02*
G75*
G03*
X15207100Y-5334000I-40000J0D01*
G01*
X15207100Y-5588000D02*
G75*
G03*
X15207100Y-5588000I-40000J0D01*
G01*
X15207100Y-5842000D02*
G75*
G03*
X15207100Y-5842000I-40000J0D01*
G01*
X15207100Y-6096000D02*
G75*
G03*
X15207100Y-6096000I-40000J0D01*
G01*
X15207100Y-6350000D02*
G75*
G03*
X15207100Y-6350000I-40000J0D01*
G01*
X15943600Y-2408720D02*
G75*
G03*
X15943600Y-2408720I-40000J0D01*
G01*
X15943600Y-4572000D02*
G75*
G03*
X15943600Y-4572000I-40000J0D01*
G01*
X16143600Y-2408720D02*
G75*
G03*
X16143600Y-2408720I-40000J0D01*
G01*
X16143600Y-4572000D02*
G75*
G03*
X16143600Y-4572000I-40000J0D01*
G01*
X16469000Y-2412300D02*
G75*
G03*
X16469000Y-2412300I-40000J0D01*
G01*
X16469000Y-2666300D02*
G75*
G03*
X16469000Y-2666300I-40000J0D01*
G01*
X16469000Y-2920300D02*
G75*
G03*
X16469000Y-2920300I-40000J0D01*
G01*
X16469000Y-3174300D02*
G75*
G03*
X16469000Y-3174300I-40000J0D01*
G01*
X16469000Y-3428300D02*
G75*
G03*
X16469000Y-3428300I-40000J0D01*
G01*
X16469000Y-3682300D02*
G75*
G03*
X16469000Y-3682300I-40000J0D01*
G01*
X16469000Y-3936300D02*
G75*
G03*
X16469000Y-3936300I-40000J0D01*
G01*
X16469000Y-4190300D02*
G75*
G03*
X16469000Y-4190300I-40000J0D01*
G01*
X16477100Y-4572000D02*
G75*
G03*
X16477100Y-4572000I-40000J0D01*
G01*
X16477100Y-4826000D02*
G75*
G03*
X16477100Y-4826000I-40000J0D01*
G01*
X16477100Y-5080000D02*
G75*
G03*
X16477100Y-5080000I-40000J0D01*
G01*
X16477100Y-5334000D02*
G75*
G03*
X16477100Y-5334000I-40000J0D01*
G01*
X16477100Y-5588000D02*
G75*
G03*
X16477100Y-5588000I-40000J0D01*
G01*
X16477100Y-5842000D02*
G75*
G03*
X16477100Y-5842000I-40000J0D01*
G01*
X16477100Y-6096000D02*
G75*
G03*
X16477100Y-6096000I-40000J0D01*
G01*
X16477100Y-6350000D02*
G75*
G03*
X16477100Y-6350000I-40000J0D01*
G01*
X17636120Y-2408720D02*
G75*
G03*
X17636120Y-2408720I-40000J0D01*
G01*
X17636120Y-2662720D02*
G75*
G03*
X17636120Y-2662720I-40000J0D01*
G01*
X17636120Y-2916720D02*
G75*
G03*
X17636120Y-2916720I-40000J0D01*
G01*
X17636120Y-3170720D02*
G75*
G03*
X17636120Y-3170720I-40000J0D01*
G01*
X17636120Y-3424720D02*
G75*
G03*
X17636120Y-3424720I-40000J0D01*
G01*
X17636120Y-3678720D02*
G75*
G03*
X17636120Y-3678720I-40000J0D01*
G01*
X17636120Y-3932720D02*
G75*
G03*
X17636120Y-3932720I-40000J0D01*
G01*
X17636120Y-4186720D02*
G75*
G03*
X17636120Y-4186720I-40000J0D01*
G01*
X17637120Y-4571300D02*
G75*
G03*
X17637120Y-4571300I-40000J0D01*
G01*
X17637120Y-4825300D02*
G75*
G03*
X17637120Y-4825300I-40000J0D01*
G01*
X17637120Y-5079300D02*
G75*
G03*
X17637120Y-5079300I-40000J0D01*
G01*
X17637120Y-5333300D02*
G75*
G03*
X17637120Y-5333300I-40000J0D01*
G01*
X17637120Y-5587300D02*
G75*
G03*
X17637120Y-5587300I-40000J0D01*
G01*
X17637120Y-5841300D02*
G75*
G03*
X17637120Y-5841300I-40000J0D01*
G01*
X17637120Y-6095300D02*
G75*
G03*
X17637120Y-6095300I-40000J0D01*
G01*
X17637120Y-6349300D02*
G75*
G03*
X17637120Y-6349300I-40000J0D01*
G01*
X18371100Y-2408720D02*
G75*
G03*
X18371100Y-2408720I-40000J0D01*
G01*
X18371100Y-4571300D02*
G75*
G03*
X18371100Y-4571300I-40000J0D01*
G01*
X18571100Y-2408720D02*
G75*
G03*
X18571100Y-2408720I-40000J0D01*
G01*
X18571100Y-4571300D02*
G75*
G03*
X18571100Y-4571300I-40000J0D01*
G01*
X18906120Y-2408720D02*
G75*
G03*
X18906120Y-2408720I-40000J0D01*
G01*
X18906120Y-2662720D02*
G75*
G03*
X18906120Y-2662720I-40000J0D01*
G01*
X18906120Y-2916720D02*
G75*
G03*
X18906120Y-2916720I-40000J0D01*
G01*
X18906120Y-3170720D02*
G75*
G03*
X18906120Y-3170720I-40000J0D01*
G01*
X18906120Y-3424720D02*
G75*
G03*
X18906120Y-3424720I-40000J0D01*
G01*
X18906120Y-3678720D02*
G75*
G03*
X18906120Y-3678720I-40000J0D01*
G01*
X18906120Y-3932720D02*
G75*
G03*
X18906120Y-3932720I-40000J0D01*
G01*
X18906120Y-4186720D02*
G75*
G03*
X18906120Y-4186720I-40000J0D01*
G01*
X18907120Y-4571300D02*
G75*
G03*
X18907120Y-4571300I-40000J0D01*
G01*
X18907120Y-4825300D02*
G75*
G03*
X18907120Y-4825300I-40000J0D01*
G01*
X18907120Y-5079300D02*
G75*
G03*
X18907120Y-5079300I-40000J0D01*
G01*
X18907120Y-5333300D02*
G75*
G03*
X18907120Y-5333300I-40000J0D01*
G01*
X18907120Y-5587300D02*
G75*
G03*
X18907120Y-5587300I-40000J0D01*
G01*
X18907120Y-5841300D02*
G75*
G03*
X18907120Y-5841300I-40000J0D01*
G01*
X18907120Y-6095300D02*
G75*
G03*
X18907120Y-6095300I-40000J0D01*
G01*
X18907120Y-6349300D02*
G75*
G03*
X18907120Y-6349300I-40000J0D01*
G01*
D14*
X14135600Y-11105600D02*
X14135600Y-11195600D01*
X14090600Y-11150600D02*
X14180600Y-11150600D01*
X14389600Y-11105600D02*
X14389600Y-11195600D01*
X14344600Y-11150600D02*
X14434600Y-11150600D01*
D15*
X13360356Y-7159356D02*
X13360356Y-7088644D01*
X13289644Y-7088644D01*
X13289644Y-7159356D01*
X13360356Y-7159356D01*
X13360356Y-7413356D02*
X13360356Y-7342644D01*
X13289644Y-7342644D01*
X13289644Y-7413356D01*
X13360356Y-7413356D01*
X13360356Y-7667356D02*
X13360356Y-7596644D01*
X13289644Y-7596644D01*
X13289644Y-7667356D01*
X13360356Y-7667356D01*
X13360356Y-7921356D02*
X13360356Y-7850644D01*
X13289644Y-7850644D01*
X13289644Y-7921356D01*
X13360356Y-7921356D01*
X13360356Y-8175356D02*
X13360356Y-8104644D01*
X13289644Y-8104644D01*
X13289644Y-8175356D01*
X13360356Y-8175356D01*
X13360356Y-8429356D02*
X13360356Y-8358644D01*
X13289644Y-8358644D01*
X13289644Y-8429356D01*
X13360356Y-8429356D01*
X13360356Y-8683356D02*
X13360356Y-8612644D01*
X13289644Y-8612644D01*
X13289644Y-8683356D01*
X13360356Y-8683356D01*
X13360356Y-8937356D02*
X13360356Y-8866644D01*
X13289644Y-8866644D01*
X13289644Y-8937356D01*
X13360356Y-8937356D01*
X13360356Y-9191356D02*
X13360356Y-9120644D01*
X13289644Y-9120644D01*
X13289644Y-9191356D01*
X13360356Y-9191356D01*
X13360356Y-9445356D02*
X13360356Y-9374644D01*
X13289644Y-9374644D01*
X13289644Y-9445356D01*
X13360356Y-9445356D01*
X13360356Y-9699356D02*
X13360356Y-9628644D01*
X13289644Y-9628644D01*
X13289644Y-9699356D01*
X13360356Y-9699356D01*
X13360356Y-9953356D02*
X13360356Y-9882644D01*
X13289644Y-9882644D01*
X13289644Y-9953356D01*
X13360356Y-9953356D01*
X13360356Y-10207356D02*
X13360356Y-10136644D01*
X13289644Y-10136644D01*
X13289644Y-10207356D01*
X13360356Y-10207356D01*
X13360356Y-10461356D02*
X13360356Y-10390644D01*
X13289644Y-10390644D01*
X13289644Y-10461356D01*
X13360356Y-10461356D01*
X13360356Y-10715356D02*
X13360356Y-10644644D01*
X13289644Y-10644644D01*
X13289644Y-10715356D01*
X13360356Y-10715356D01*
X13360356Y-10969356D02*
X13360356Y-10898644D01*
X13289644Y-10898644D01*
X13289644Y-10969356D01*
X13360356Y-10969356D01*
X13360356Y-11223356D02*
X13360356Y-11152644D01*
X13289644Y-11152644D01*
X13289644Y-11223356D01*
X13360356Y-11223356D01*
X13360356Y-11477356D02*
X13360356Y-11406644D01*
X13289644Y-11406644D01*
X13289644Y-11477356D01*
X13360356Y-11477356D01*
X13360356Y-11731356D02*
X13360356Y-11660644D01*
X13289644Y-11660644D01*
X13289644Y-11731356D01*
X13360356Y-11731356D01*
X13365356Y-6766356D02*
X13365356Y-6695644D01*
X13294644Y-6695644D01*
X13294644Y-6766356D01*
X13365356Y-6766356D01*
X13614356Y-7159356D02*
X13614356Y-7088644D01*
X13543644Y-7088644D01*
X13543644Y-7159356D01*
X13614356Y-7159356D01*
X13614356Y-7413356D02*
X13614356Y-7342644D01*
X13543644Y-7342644D01*
X13543644Y-7413356D01*
X13614356Y-7413356D01*
X13614356Y-7667356D02*
X13614356Y-7596644D01*
X13543644Y-7596644D01*
X13543644Y-7667356D01*
X13614356Y-7667356D01*
X13614356Y-7921356D02*
X13614356Y-7850644D01*
X13543644Y-7850644D01*
X13543644Y-7921356D01*
X13614356Y-7921356D01*
X13614356Y-8175356D02*
X13614356Y-8104644D01*
X13543644Y-8104644D01*
X13543644Y-8175356D01*
X13614356Y-8175356D01*
X13614356Y-8429356D02*
X13614356Y-8358644D01*
X13543644Y-8358644D01*
X13543644Y-8429356D01*
X13614356Y-8429356D01*
X13614356Y-8683356D02*
X13614356Y-8612644D01*
X13543644Y-8612644D01*
X13543644Y-8683356D01*
X13614356Y-8683356D01*
X13614356Y-8937356D02*
X13614356Y-8866644D01*
X13543644Y-8866644D01*
X13543644Y-8937356D01*
X13614356Y-8937356D01*
X13614356Y-9191356D02*
X13614356Y-9120644D01*
X13543644Y-9120644D01*
X13543644Y-9191356D01*
X13614356Y-9191356D01*
X13614356Y-9445356D02*
X13614356Y-9374644D01*
X13543644Y-9374644D01*
X13543644Y-9445356D01*
X13614356Y-9445356D01*
X13614356Y-9699356D02*
X13614356Y-9628644D01*
X13543644Y-9628644D01*
X13543644Y-9699356D01*
X13614356Y-9699356D01*
X13614356Y-9953356D02*
X13614356Y-9882644D01*
X13543644Y-9882644D01*
X13543644Y-9953356D01*
X13614356Y-9953356D01*
X13614356Y-10207356D02*
X13614356Y-10136644D01*
X13543644Y-10136644D01*
X13543644Y-10207356D01*
X13614356Y-10207356D01*
X13614356Y-10461356D02*
X13614356Y-10390644D01*
X13543644Y-10390644D01*
X13543644Y-10461356D01*
X13614356Y-10461356D01*
X13614356Y-10715356D02*
X13614356Y-10644644D01*
X13543644Y-10644644D01*
X13543644Y-10715356D01*
X13614356Y-10715356D01*
X13614356Y-10969356D02*
X13614356Y-10898644D01*
X13543644Y-10898644D01*
X13543644Y-10969356D01*
X13614356Y-10969356D01*
X13614356Y-11223356D02*
X13614356Y-11152644D01*
X13543644Y-11152644D01*
X13543644Y-11223356D01*
X13614356Y-11223356D01*
X13614356Y-11477356D02*
X13614356Y-11406644D01*
X13543644Y-11406644D01*
X13543644Y-11477356D01*
X13614356Y-11477356D01*
X13614356Y-11731356D02*
X13614356Y-11660644D01*
X13543644Y-11660644D01*
X13543644Y-11731356D01*
X13614356Y-11731356D01*
X13619356Y-6766356D02*
X13619356Y-6695644D01*
X13548644Y-6695644D01*
X13548644Y-6766356D01*
X13619356Y-6766356D01*
X14132856Y-11745256D02*
X14132856Y-11674544D01*
X14062144Y-11674544D01*
X14062144Y-11745256D01*
X14132856Y-11745256D01*
X14132856Y-11999256D02*
X14132856Y-11928544D01*
X14062144Y-11928544D01*
X14062144Y-11999256D01*
X14132856Y-11999256D01*
X14224723Y-2650776D02*
X14224723Y-2580064D01*
X14154012Y-2580064D01*
X14154012Y-2650776D01*
X14224723Y-2650776D01*
X14386856Y-11745256D02*
X14386856Y-11674544D01*
X14316144Y-11674544D01*
X14316144Y-11745256D01*
X14386856Y-11745256D01*
X14386856Y-11999256D02*
X14386856Y-11928544D01*
X14316144Y-11928544D01*
X14316144Y-11999256D01*
X14386856Y-11999256D01*
X14640856Y-11745256D02*
X14640856Y-11674544D01*
X14570144Y-11674544D01*
X14570144Y-11745256D01*
X14640856Y-11745256D01*
X14640856Y-11999256D02*
X14640856Y-11928544D01*
X14570144Y-11928544D01*
X14570144Y-11999256D01*
X14640856Y-11999256D01*
X14724723Y-2650776D02*
X14724723Y-2580064D01*
X14654012Y-2580064D01*
X14654012Y-2650776D01*
X14724723Y-2650776D01*
X14894856Y-11745256D02*
X14894856Y-11674544D01*
X14824144Y-11674544D01*
X14824144Y-11745256D01*
X14894856Y-11745256D01*
X14894856Y-11999256D02*
X14894856Y-11928544D01*
X14824144Y-11928544D01*
X14824144Y-11999256D01*
X14894856Y-11999256D01*
X15148856Y-11745256D02*
X15148856Y-11674544D01*
X15078144Y-11674544D01*
X15078144Y-11745256D01*
X15148856Y-11745256D01*
X15148856Y-11999256D02*
X15148856Y-11928544D01*
X15078144Y-11928544D01*
X15078144Y-11999256D01*
X15148856Y-11999256D01*
X15532656Y-2511656D02*
X15532656Y-2440944D01*
X15461944Y-2440944D01*
X15461944Y-2511656D01*
X15532656Y-2511656D01*
X15532656Y-2765656D02*
X15532656Y-2694944D01*
X15461944Y-2694944D01*
X15461944Y-2765656D01*
X15532656Y-2765656D01*
X15532656Y-3210156D02*
X15532656Y-3139444D01*
X15461944Y-3139444D01*
X15461944Y-3210156D01*
X15532656Y-3210156D01*
X15532656Y-3464156D02*
X15532656Y-3393444D01*
X15461944Y-3393444D01*
X15461944Y-3464156D01*
X15532656Y-3464156D01*
X15532656Y-3895956D02*
X15532656Y-3825244D01*
X15461944Y-3825244D01*
X15461944Y-3895956D01*
X15532656Y-3895956D01*
X15532656Y-4149956D02*
X15532656Y-4079244D01*
X15461944Y-4079244D01*
X15461944Y-4149956D01*
X15532656Y-4149956D01*
X15532656Y-4670856D02*
X15532656Y-4600144D01*
X15461944Y-4600144D01*
X15461944Y-4670856D01*
X15532656Y-4670856D01*
X15532656Y-4924856D02*
X15532656Y-4854144D01*
X15461944Y-4854144D01*
X15461944Y-4924856D01*
X15532656Y-4924856D01*
X15532656Y-5331256D02*
X15532656Y-5260544D01*
X15461944Y-5260544D01*
X15461944Y-5331256D01*
X15532656Y-5331256D01*
X15532656Y-5585256D02*
X15532656Y-5514544D01*
X15461944Y-5514544D01*
X15461944Y-5585256D01*
X15532656Y-5585256D01*
X15532656Y-6004856D02*
X15532656Y-5934144D01*
X15461944Y-5934144D01*
X15461944Y-6004856D01*
X15532656Y-6004856D01*
X15532656Y-6258856D02*
X15532656Y-6188144D01*
X15461944Y-6188144D01*
X15461944Y-6258856D01*
X15532656Y-6258856D01*
X15948456Y-11744756D02*
X15948456Y-11674044D01*
X15877744Y-11674044D01*
X15877744Y-11744756D01*
X15948456Y-11744756D01*
X15948456Y-11998756D02*
X15948456Y-11928044D01*
X15877744Y-11928044D01*
X15877744Y-11998756D01*
X15948456Y-11998756D01*
X16202456Y-11744756D02*
X16202456Y-11674044D01*
X16131744Y-11674044D01*
X16131744Y-11744756D01*
X16202456Y-11744756D01*
X16202456Y-11998756D02*
X16202456Y-11928044D01*
X16131744Y-11928044D01*
X16131744Y-11998756D01*
X16202456Y-11998756D01*
X16456456Y-11744756D02*
X16456456Y-11674044D01*
X16385744Y-11674044D01*
X16385744Y-11744756D01*
X16456456Y-11744756D01*
X16456456Y-11998756D02*
X16456456Y-11928044D01*
X16385744Y-11928044D01*
X16385744Y-11998756D01*
X16456456Y-11998756D01*
X16710456Y-11744756D02*
X16710456Y-11674044D01*
X16639744Y-11674044D01*
X16639744Y-11744756D01*
X16710456Y-11744756D01*
X16710456Y-11998756D02*
X16710456Y-11928044D01*
X16639744Y-11928044D01*
X16639744Y-11998756D01*
X16710456Y-11998756D01*
X16964456Y-11744756D02*
X16964456Y-11674044D01*
X16893744Y-11674044D01*
X16893744Y-11744756D01*
X16964456Y-11744756D01*
X16964456Y-11998756D02*
X16964456Y-11928044D01*
X16893744Y-11928044D01*
X16893744Y-11998756D01*
X16964456Y-11998756D01*
X17972376Y-2520976D02*
X17972376Y-2450264D01*
X17901664Y-2450264D01*
X17901664Y-2520976D01*
X17972376Y-2520976D01*
X17972376Y-2774976D02*
X17972376Y-2704264D01*
X17901664Y-2704264D01*
X17901664Y-2774976D01*
X17972376Y-2774976D01*
X17972376Y-3194576D02*
X17972376Y-3123864D01*
X17901664Y-3123864D01*
X17901664Y-3194576D01*
X17972376Y-3194576D01*
X17972376Y-3448576D02*
X17972376Y-3377864D01*
X17901664Y-3377864D01*
X17901664Y-3448576D01*
X17972376Y-3448576D01*
X17972376Y-3893076D02*
X17972376Y-3822364D01*
X17901664Y-3822364D01*
X17901664Y-3893076D01*
X17972376Y-3893076D01*
X17972376Y-4147076D02*
X17972376Y-4076364D01*
X17901664Y-4076364D01*
X17901664Y-4147076D01*
X17972376Y-4147076D01*
X17974376Y-4670656D02*
X17974376Y-4599944D01*
X17903664Y-4599944D01*
X17903664Y-4670656D01*
X17974376Y-4670656D01*
X17974376Y-4924656D02*
X17974376Y-4853944D01*
X17903664Y-4853944D01*
X17903664Y-4924656D01*
X17974376Y-4924656D01*
X17974376Y-5318356D02*
X17974376Y-5247644D01*
X17903664Y-5247644D01*
X17903664Y-5318356D01*
X17974376Y-5318356D01*
X17974376Y-5572356D02*
X17974376Y-5501644D01*
X17903664Y-5501644D01*
X17903664Y-5572356D01*
X17974376Y-5572356D01*
X17974376Y-5966056D02*
X17974376Y-5895344D01*
X17903664Y-5895344D01*
X17903664Y-5966056D01*
X17974376Y-5966056D01*
X17974376Y-6220056D02*
X17974376Y-6149344D01*
X17903664Y-6149344D01*
X17903664Y-6220056D01*
X17974376Y-6220056D01*
X18818656Y-8062256D02*
X18818656Y-7991544D01*
X18747944Y-7991544D01*
X18747944Y-8062256D01*
X18818656Y-8062256D01*
X18818656Y-8316256D02*
X18818656Y-8245544D01*
X18747944Y-8245544D01*
X18747944Y-8316256D01*
X18818656Y-8316256D01*
X18818656Y-8808956D02*
X18818656Y-8738244D01*
X18747944Y-8738244D01*
X18747944Y-8808956D01*
X18818656Y-8808956D01*
X18818656Y-9062956D02*
X18818656Y-8992244D01*
X18747944Y-8992244D01*
X18747944Y-9062956D01*
X18818656Y-9062956D01*
X19288556Y-6321256D02*
X19288556Y-6250544D01*
X19217844Y-6250544D01*
X19217844Y-6321256D01*
X19288556Y-6321256D01*
X19456356Y-7159356D02*
X19456356Y-7088644D01*
X19385644Y-7088644D01*
X19385644Y-7159356D01*
X19456356Y-7159356D01*
X19456356Y-7413356D02*
X19456356Y-7342644D01*
X19385644Y-7342644D01*
X19385644Y-7413356D01*
X19456356Y-7413356D01*
X19456356Y-7667356D02*
X19456356Y-7596644D01*
X19385644Y-7596644D01*
X19385644Y-7667356D01*
X19456356Y-7667356D01*
X19456356Y-7921356D02*
X19456356Y-7850644D01*
X19385644Y-7850644D01*
X19385644Y-7921356D01*
X19456356Y-7921356D01*
X19456356Y-8175356D02*
X19456356Y-8104644D01*
X19385644Y-8104644D01*
X19385644Y-8175356D01*
X19456356Y-8175356D01*
X19456356Y-8429356D02*
X19456356Y-8358644D01*
X19385644Y-8358644D01*
X19385644Y-8429356D01*
X19456356Y-8429356D01*
X19456356Y-8683356D02*
X19456356Y-8612644D01*
X19385644Y-8612644D01*
X19385644Y-8683356D01*
X19456356Y-8683356D01*
X19456356Y-8937356D02*
X19456356Y-8866644D01*
X19385644Y-8866644D01*
X19385644Y-8937356D01*
X19456356Y-8937356D01*
X19456356Y-9191356D02*
X19456356Y-9120644D01*
X19385644Y-9120644D01*
X19385644Y-9191356D01*
X19456356Y-9191356D01*
X19456356Y-9445356D02*
X19456356Y-9374644D01*
X19385644Y-9374644D01*
X19385644Y-9445356D01*
X19456356Y-9445356D01*
X19456356Y-9699356D02*
X19456356Y-9628644D01*
X19385644Y-9628644D01*
X19385644Y-9699356D01*
X19456356Y-9699356D01*
X19456356Y-9953356D02*
X19456356Y-9882644D01*
X19385644Y-9882644D01*
X19385644Y-9953356D01*
X19456356Y-9953356D01*
X19456356Y-10207356D02*
X19456356Y-10136644D01*
X19385644Y-10136644D01*
X19385644Y-10207356D01*
X19456356Y-10207356D01*
X19456356Y-10461356D02*
X19456356Y-10390644D01*
X19385644Y-10390644D01*
X19385644Y-10461356D01*
X19456356Y-10461356D01*
X19456356Y-10715356D02*
X19456356Y-10644644D01*
X19385644Y-10644644D01*
X19385644Y-10715356D01*
X19456356Y-10715356D01*
X19456356Y-10969356D02*
X19456356Y-10898644D01*
X19385644Y-10898644D01*
X19385644Y-10969356D01*
X19456356Y-10969356D01*
X19456356Y-11223356D02*
X19456356Y-11152644D01*
X19385644Y-11152644D01*
X19385644Y-11223356D01*
X19456356Y-11223356D01*
X19456356Y-11477356D02*
X19456356Y-11406644D01*
X19385644Y-11406644D01*
X19385644Y-11477356D01*
X19456356Y-11477356D01*
X19456356Y-11731356D02*
X19456356Y-11660644D01*
X19385644Y-11660644D01*
X19385644Y-11731356D01*
X19456356Y-11731356D01*
X19542556Y-6321256D02*
X19542556Y-6250544D01*
X19471844Y-6250544D01*
X19471844Y-6321256D01*
X19542556Y-6321256D01*
X19710356Y-7159356D02*
X19710356Y-7088644D01*
X19639644Y-7088644D01*
X19639644Y-7159356D01*
X19710356Y-7159356D01*
X19710356Y-7413356D02*
X19710356Y-7342644D01*
X19639644Y-7342644D01*
X19639644Y-7413356D01*
X19710356Y-7413356D01*
X19710356Y-7667356D02*
X19710356Y-7596644D01*
X19639644Y-7596644D01*
X19639644Y-7667356D01*
X19710356Y-7667356D01*
X19710356Y-7921356D02*
X19710356Y-7850644D01*
X19639644Y-7850644D01*
X19639644Y-7921356D01*
X19710356Y-7921356D01*
X19710356Y-8175356D02*
X19710356Y-8104644D01*
X19639644Y-8104644D01*
X19639644Y-8175356D01*
X19710356Y-8175356D01*
X19710356Y-8429356D02*
X19710356Y-8358644D01*
X19639644Y-8358644D01*
X19639644Y-8429356D01*
X19710356Y-8429356D01*
X19710356Y-8683356D02*
X19710356Y-8612644D01*
X19639644Y-8612644D01*
X19639644Y-8683356D01*
X19710356Y-8683356D01*
X19710356Y-8937356D02*
X19710356Y-8866644D01*
X19639644Y-8866644D01*
X19639644Y-8937356D01*
X19710356Y-8937356D01*
X19710356Y-9191356D02*
X19710356Y-9120644D01*
X19639644Y-9120644D01*
X19639644Y-9191356D01*
X19710356Y-9191356D01*
X19710356Y-9445356D02*
X19710356Y-9374644D01*
X19639644Y-9374644D01*
X19639644Y-9445356D01*
X19710356Y-9445356D01*
X19710356Y-9699356D02*
X19710356Y-9628644D01*
X19639644Y-9628644D01*
X19639644Y-9699356D01*
X19710356Y-9699356D01*
X19710356Y-9953356D02*
X19710356Y-9882644D01*
X19639644Y-9882644D01*
X19639644Y-9953356D01*
X19710356Y-9953356D01*
X19710356Y-10207356D02*
X19710356Y-10136644D01*
X19639644Y-10136644D01*
X19639644Y-10207356D01*
X19710356Y-10207356D01*
X19710356Y-10461356D02*
X19710356Y-10390644D01*
X19639644Y-10390644D01*
X19639644Y-10461356D01*
X19710356Y-10461356D01*
X19710356Y-10715356D02*
X19710356Y-10644644D01*
X19639644Y-10644644D01*
X19639644Y-10715356D01*
X19710356Y-10715356D01*
X19710356Y-10969356D02*
X19710356Y-10898644D01*
X19639644Y-10898644D01*
X19639644Y-10969356D01*
X19710356Y-10969356D01*
X19710356Y-11223356D02*
X19710356Y-11152644D01*
X19639644Y-11152644D01*
X19639644Y-11223356D01*
X19710356Y-11223356D01*
X19710356Y-11477356D02*
X19710356Y-11406644D01*
X19639644Y-11406644D01*
X19639644Y-11477356D01*
X19710356Y-11477356D01*
X19710356Y-11731356D02*
X19710356Y-11660644D01*
X19639644Y-11660644D01*
X19639644Y-11731356D01*
X19710356Y-11731356D01*
X19796556Y-6321256D02*
X19796556Y-6250544D01*
X19725844Y-6250544D01*
X19725844Y-6321256D01*
X19796556Y-6321256D01*
D16*
X14274800Y-4627000D02*
X14329800Y-4572000D01*
X14274800Y-4517000D01*
X14219800Y-4572000D01*
X14274800Y-4627000D01*
X14274800Y-4881000D02*
X14329800Y-4826000D01*
X14274800Y-4771000D01*
X14219800Y-4826000D01*
X14274800Y-4881000D01*
X14274800Y-5135000D02*
X14329800Y-5080000D01*
X14274800Y-5025000D01*
X14219800Y-5080000D01*
X14274800Y-5135000D01*
X14274800Y-5770000D02*
X14329800Y-5715000D01*
X14274800Y-5660000D01*
X14219800Y-5715000D01*
X14274800Y-5770000D01*
X14274800Y-6024000D02*
X14329800Y-5969000D01*
X14274800Y-5914000D01*
X14219800Y-5969000D01*
X14274800Y-6024000D01*
X14274800Y-6278000D02*
X14329800Y-6223000D01*
X14274800Y-6168000D01*
X14219800Y-6223000D01*
X14274800Y-6278000D01*
D17*
X14101000Y-8232900D02*
X14220000Y-8351900D01*
X14220000Y-8232900D02*
X14101000Y-8351900D01*
X14220000Y-8292400D02*
G75*
G03*
X14220000Y-8292400I-59500J0D01*
G01*
X14101000Y-8486900D02*
X14220000Y-8605900D01*
X14220000Y-8486900D02*
X14101000Y-8605900D01*
X14220000Y-8546400D02*
G75*
G03*
X14220000Y-8546400I-59500J0D01*
G01*
X14101000Y-8740900D02*
X14220000Y-8859900D01*
X14220000Y-8740900D02*
X14101000Y-8859900D01*
X14220000Y-8800400D02*
G75*
G03*
X14220000Y-8800400I-59500J0D01*
G01*
X14101000Y-9192100D02*
X14220000Y-9311100D01*
X14220000Y-9192100D02*
X14101000Y-9311100D01*
X14220000Y-9251600D02*
G75*
G03*
X14220000Y-9251600I-59500J0D01*
G01*
X14101000Y-9446100D02*
X14220000Y-9565100D01*
X14220000Y-9446100D02*
X14101000Y-9565100D01*
X14220000Y-9505600D02*
G75*
G03*
X14220000Y-9505600I-59500J0D01*
G01*
X14101000Y-9700100D02*
X14220000Y-9819100D01*
X14220000Y-9700100D02*
X14101000Y-9819100D01*
X14220000Y-9759600D02*
G75*
G03*
X14220000Y-9759600I-59500J0D01*
G01*
X14101000Y-10151300D02*
X14220000Y-10270300D01*
X14220000Y-10151300D02*
X14101000Y-10270300D01*
X14220000Y-10210800D02*
G75*
G03*
X14220000Y-10210800I-59500J0D01*
G01*
X14101000Y-10405300D02*
X14220000Y-10524300D01*
X14220000Y-10405300D02*
X14101000Y-10524300D01*
X14220000Y-10464800D02*
G75*
G03*
X14220000Y-10464800I-59500J0D01*
G01*
X14101000Y-10659300D02*
X14220000Y-10778300D01*
X14220000Y-10659300D02*
X14101000Y-10778300D01*
X14220000Y-10718800D02*
G75*
G03*
X14220000Y-10718800I-59500J0D01*
G01*
X16933100Y-2860800D02*
X17052100Y-2979800D01*
X17052100Y-2860800D02*
X16933100Y-2979800D01*
X17052100Y-2920300D02*
G75*
G03*
X17052100Y-2920300I-59500J0D01*
G01*
X16933100Y-3114800D02*
X17052100Y-3233800D01*
X17052100Y-3114800D02*
X16933100Y-3233800D01*
X17052100Y-3174300D02*
G75*
G03*
X17052100Y-3174300I-59500J0D01*
G01*
X16933100Y-3368800D02*
X17052100Y-3487800D01*
X17052100Y-3368800D02*
X16933100Y-3487800D01*
X17052100Y-3428300D02*
G75*
G03*
X17052100Y-3428300I-59500J0D01*
G01*
X16933100Y-3622800D02*
X17052100Y-3741800D01*
X17052100Y-3622800D02*
X16933100Y-3741800D01*
X17052100Y-3682300D02*
G75*
G03*
X17052100Y-3682300I-59500J0D01*
G01*
X16933100Y-5020500D02*
X17052100Y-5139500D01*
X17052100Y-5020500D02*
X16933100Y-5139500D01*
X17052100Y-5080000D02*
G75*
G03*
X17052100Y-5080000I-59500J0D01*
G01*
X16933100Y-5274500D02*
X17052100Y-5393500D01*
X17052100Y-5274500D02*
X16933100Y-5393500D01*
X17052100Y-5334000D02*
G75*
G03*
X17052100Y-5334000I-59500J0D01*
G01*
X16933100Y-5528500D02*
X17052100Y-5647500D01*
X17052100Y-5528500D02*
X16933100Y-5647500D01*
X17052100Y-5588000D02*
G75*
G03*
X17052100Y-5588000I-59500J0D01*
G01*
X16933100Y-5782500D02*
X17052100Y-5901500D01*
X17052100Y-5782500D02*
X16933100Y-5901500D01*
X17052100Y-5842000D02*
G75*
G03*
X17052100Y-5842000I-59500J0D01*
G01*
X19360600Y-2860800D02*
X19479600Y-2979800D01*
X19479600Y-2860800D02*
X19360600Y-2979800D01*
X19479600Y-2920300D02*
G75*
G03*
X19479600Y-2920300I-59500J0D01*
G01*
X19360600Y-3114800D02*
X19479600Y-3233800D01*
X19479600Y-3114800D02*
X19360600Y-3233800D01*
X19479600Y-3174300D02*
G75*
G03*
X19479600Y-3174300I-59500J0D01*
G01*
X19360600Y-3368800D02*
X19479600Y-3487800D01*
X19479600Y-3368800D02*
X19360600Y-3487800D01*
X19479600Y-3428300D02*
G75*
G03*
X19479600Y-3428300I-59500J0D01*
G01*
X19360600Y-3622800D02*
X19479600Y-3741800D01*
X19479600Y-3622800D02*
X19360600Y-3741800D01*
X19479600Y-3682300D02*
G75*
G03*
X19479600Y-3682300I-59500J0D01*
G01*
X19360600Y-4360100D02*
X19479600Y-4479100D01*
X19479600Y-4360100D02*
X19360600Y-4479100D01*
X19479600Y-4419600D02*
G75*
G03*
X19479600Y-4419600I-59500J0D01*
G01*
X19360600Y-4614100D02*
X19479600Y-4733100D01*
X19479600Y-4614100D02*
X19360600Y-4733100D01*
X19479600Y-4673600D02*
G75*
G03*
X19479600Y-4673600I-59500J0D01*
G01*
X19360600Y-5020500D02*
X19479600Y-5139500D01*
X19479600Y-5020500D02*
X19360600Y-5139500D01*
X19479600Y-5080000D02*
G75*
G03*
X19479600Y-5080000I-59500J0D01*
G01*
X19360600Y-5274500D02*
X19479600Y-5393500D01*
X19479600Y-5274500D02*
X19360600Y-5393500D01*
X19479600Y-5334000D02*
G75*
G03*
X19479600Y-5334000I-59500J0D01*
G01*
X19360600Y-5528500D02*
X19479600Y-5647500D01*
X19479600Y-5528500D02*
X19360600Y-5647500D01*
X19479600Y-5588000D02*
G75*
G03*
X19479600Y-5588000I-59500J0D01*
G01*
X19360600Y-5782500D02*
X19479600Y-5901500D01*
X19479600Y-5782500D02*
X19360600Y-5901500D01*
X19479600Y-5842000D02*
G75*
G03*
X19479600Y-5842000I-59500J0D01*
G01*
X19362600Y-2190800D02*
X19481600Y-2309800D01*
X19481600Y-2190800D02*
X19362600Y-2309800D01*
X19481600Y-2250300D02*
G75*
G03*
X19481600Y-2250300I-59500J0D01*
G01*
X19362600Y-2444800D02*
X19481600Y-2563800D01*
X19481600Y-2444800D02*
X19362600Y-2563800D01*
X19481600Y-2504300D02*
G75*
G03*
X19481600Y-2504300I-59500J0D01*
G01*
D18*
X13426960Y-2301430D02*
X13556500Y-2430970D01*
X13556500Y-2301430D02*
X13426960Y-2430970D01*
X13491730Y-2301430D02*
X13491730Y-2430970D01*
X13426960Y-2366200D02*
X13556500Y-2366200D01*
X13426960Y-2801430D02*
X13556500Y-2930970D01*
X13556500Y-2801430D02*
X13426960Y-2930970D01*
X13491730Y-2801430D02*
X13491730Y-2930970D01*
X13426960Y-2866200D02*
X13556500Y-2866200D01*
X13426960Y-4511230D02*
X13556500Y-4640770D01*
X13556500Y-4511230D02*
X13426960Y-4640770D01*
X13491730Y-4511230D02*
X13491730Y-4640770D01*
X13426960Y-4576000D02*
X13556500Y-4576000D01*
X13426960Y-5011230D02*
X13556500Y-5140770D01*
X13556500Y-5011230D02*
X13426960Y-5140770D01*
X13491730Y-5011230D02*
X13491730Y-5140770D01*
X13426960Y-5076000D02*
X13556500Y-5076000D01*
X13426960Y-5654230D02*
X13556500Y-5783770D01*
X13556500Y-5654230D02*
X13426960Y-5783770D01*
X13491730Y-5654230D02*
X13491730Y-5783770D01*
X13426960Y-5719000D02*
X13556500Y-5719000D01*
X13426960Y-6154230D02*
X13556500Y-6283770D01*
X13556500Y-6154230D02*
X13426960Y-6283770D01*
X13491730Y-6154230D02*
X13491730Y-6283770D01*
X13426960Y-6219000D02*
X13556500Y-6219000D01*
D11*
X13250119Y-12517976D02*
X13250119Y-12317976D01*
X13297738Y-12317976D01*
X13326309Y-12327500D01*
X13345357Y-12346548D01*
X13354881Y-12365595D01*
X13364405Y-12403690D01*
X13364405Y-12432262D01*
X13354881Y-12470357D01*
X13345357Y-12489405D01*
X13326309Y-12508452D01*
X13297738Y-12517976D01*
X13250119Y-12517976D01*
X13450119Y-12517976D02*
X13450119Y-12384643D01*
X13450119Y-12422738D02*
X13459643Y-12403690D01*
X13469167Y-12394167D01*
X13488214Y-12384643D01*
X13507262Y-12384643D01*
X13573928Y-12517976D02*
X13573928Y-12384643D01*
X13573928Y-12317976D02*
X13564405Y-12327500D01*
X13573928Y-12337024D01*
X13583452Y-12327500D01*
X13573928Y-12317976D01*
X13573928Y-12337024D01*
X13697738Y-12517976D02*
X13678690Y-12508452D01*
X13669167Y-12489405D01*
X13669167Y-12317976D01*
X13802500Y-12517976D02*
X13783452Y-12508452D01*
X13773928Y-12489405D01*
X13773928Y-12317976D01*
X14031071Y-12517976D02*
X14031071Y-12317976D01*
X14097738Y-12460833D01*
X14164405Y-12317976D01*
X14164405Y-12517976D01*
X14345357Y-12517976D02*
X14345357Y-12413214D01*
X14335833Y-12394167D01*
X14316786Y-12384643D01*
X14278690Y-12384643D01*
X14259643Y-12394167D01*
X14345357Y-12508452D02*
X14326309Y-12517976D01*
X14278690Y-12517976D01*
X14259643Y-12508452D01*
X14250119Y-12489405D01*
X14250119Y-12470357D01*
X14259643Y-12451309D01*
X14278690Y-12441786D01*
X14326309Y-12441786D01*
X14345357Y-12432262D01*
X14440595Y-12384643D02*
X14440595Y-12584643D01*
X14440595Y-12394167D02*
X14459643Y-12384643D01*
X14497738Y-12384643D01*
X14516786Y-12394167D01*
X14526309Y-12403690D01*
X14535833Y-12422738D01*
X14535833Y-12479881D01*
X14526309Y-12498928D01*
X14516786Y-12508452D01*
X14497738Y-12517976D01*
X14459643Y-12517976D01*
X14440595Y-12508452D01*
X14621548Y-12498928D02*
X14631071Y-12508452D01*
X14621548Y-12517976D01*
X14612024Y-12508452D01*
X14621548Y-12498928D01*
X14621548Y-12517976D01*
X14621548Y-12394167D02*
X14631071Y-12403690D01*
X14621548Y-12413214D01*
X14612024Y-12403690D01*
X14621548Y-12394167D01*
X14621548Y-12413214D01*
D12*
X12952500Y-12827500D02*
X12992500Y-12867500D01*
X12992500Y-12827500D02*
X12952500Y-12867500D01*
D11*
X13288214Y-12737976D02*
X13307262Y-12737976D01*
X13326309Y-12747500D01*
X13335833Y-12757024D01*
X13345357Y-12776071D01*
X13354881Y-12814167D01*
X13354881Y-12861786D01*
X13345357Y-12899881D01*
X13335833Y-12918928D01*
X13326309Y-12928452D01*
X13307262Y-12937976D01*
X13288214Y-12937976D01*
X13269167Y-12928452D01*
X13259643Y-12918928D01*
X13250119Y-12899881D01*
X13240595Y-12861786D01*
X13240595Y-12814167D01*
X13250119Y-12776071D01*
X13259643Y-12757024D01*
X13269167Y-12747500D01*
X13288214Y-12737976D01*
X13440595Y-12918928D02*
X13450119Y-12928452D01*
X13440595Y-12937976D01*
X13431071Y-12928452D01*
X13440595Y-12918928D01*
X13440595Y-12937976D01*
X13621548Y-12804643D02*
X13621548Y-12937976D01*
X13573928Y-12728452D02*
X13526309Y-12871309D01*
X13650119Y-12871309D01*
X13764405Y-12737976D02*
X13783452Y-12737976D01*
X13802500Y-12747500D01*
X13812024Y-12757024D01*
X13821548Y-12776071D01*
X13831071Y-12814167D01*
X13831071Y-12861786D01*
X13821548Y-12899881D01*
X13812024Y-12918928D01*
X13802500Y-12928452D01*
X13783452Y-12937976D01*
X13764405Y-12937976D01*
X13745357Y-12928452D01*
X13735833Y-12918928D01*
X13726309Y-12899881D01*
X13716786Y-12861786D01*
X13716786Y-12814167D01*
X13726309Y-12776071D01*
X13735833Y-12757024D01*
X13745357Y-12747500D01*
X13764405Y-12737976D01*
X13954881Y-12737976D02*
X13973928Y-12737976D01*
X13992976Y-12747500D01*
X14002500Y-12757024D01*
X14012024Y-12776071D01*
X14021548Y-12814167D01*
X14021548Y-12861786D01*
X14012024Y-12899881D01*
X14002500Y-12918928D01*
X13992976Y-12928452D01*
X13973928Y-12937976D01*
X13954881Y-12937976D01*
X13935833Y-12928452D01*
X13926309Y-12918928D01*
X13916786Y-12899881D01*
X13907262Y-12861786D01*
X13907262Y-12814167D01*
X13916786Y-12776071D01*
X13926309Y-12757024D01*
X13935833Y-12747500D01*
X13954881Y-12737976D01*
X14107262Y-12937976D02*
X14107262Y-12804643D01*
X14107262Y-12823690D02*
X14116786Y-12814167D01*
X14135833Y-12804643D01*
X14164405Y-12804643D01*
X14183452Y-12814167D01*
X14192976Y-12833214D01*
X14192976Y-12937976D01*
X14192976Y-12833214D02*
X14202500Y-12814167D01*
X14221548Y-12804643D01*
X14250119Y-12804643D01*
X14269167Y-12814167D01*
X14278690Y-12833214D01*
X14278690Y-12937976D01*
X14373928Y-12937976D02*
X14373928Y-12804643D01*
X14373928Y-12823690D02*
X14383452Y-12814167D01*
X14402500Y-12804643D01*
X14431071Y-12804643D01*
X14450119Y-12814167D01*
X14459643Y-12833214D01*
X14459643Y-12937976D01*
X14459643Y-12833214D02*
X14469167Y-12814167D01*
X14488214Y-12804643D01*
X14516786Y-12804643D01*
X14535833Y-12814167D01*
X14545357Y-12833214D01*
X14545357Y-12937976D01*
X14935833Y-12728452D02*
X14764405Y-12985595D01*
X15192976Y-12737976D02*
X15212024Y-12737976D01*
X15231071Y-12747500D01*
X15240595Y-12757024D01*
X15250119Y-12776071D01*
X15259643Y-12814167D01*
X15259643Y-12861786D01*
X15250119Y-12899881D01*
X15240595Y-12918928D01*
X15231071Y-12928452D01*
X15212024Y-12937976D01*
X15192976Y-12937976D01*
X15173928Y-12928452D01*
X15164405Y-12918928D01*
X15154881Y-12899881D01*
X15145357Y-12861786D01*
X15145357Y-12814167D01*
X15154881Y-12776071D01*
X15164405Y-12757024D01*
X15173928Y-12747500D01*
X15192976Y-12737976D01*
X15345357Y-12918928D02*
X15354881Y-12928452D01*
X15345357Y-12937976D01*
X15335833Y-12928452D01*
X15345357Y-12918928D01*
X15345357Y-12937976D01*
X15478690Y-12737976D02*
X15497738Y-12737976D01*
X15516786Y-12747500D01*
X15526309Y-12757024D01*
X15535833Y-12776071D01*
X15545357Y-12814167D01*
X15545357Y-12861786D01*
X15535833Y-12899881D01*
X15526309Y-12918928D01*
X15516786Y-12928452D01*
X15497738Y-12937976D01*
X15478690Y-12937976D01*
X15459643Y-12928452D01*
X15450119Y-12918928D01*
X15440595Y-12899881D01*
X15431071Y-12861786D01*
X15431071Y-12814167D01*
X15440595Y-12776071D01*
X15450119Y-12757024D01*
X15459643Y-12747500D01*
X15478690Y-12737976D01*
X15735833Y-12937976D02*
X15621548Y-12937976D01*
X15678690Y-12937976D02*
X15678690Y-12737976D01*
X15659643Y-12766548D01*
X15640595Y-12785595D01*
X15621548Y-12795119D01*
X15916786Y-12737976D02*
X15821548Y-12737976D01*
X15812024Y-12833214D01*
X15821548Y-12823690D01*
X15840595Y-12814167D01*
X15888214Y-12814167D01*
X15907262Y-12823690D01*
X15916786Y-12833214D01*
X15926309Y-12852262D01*
X15926309Y-12899881D01*
X15916786Y-12918928D01*
X15907262Y-12928452D01*
X15888214Y-12937976D01*
X15840595Y-12937976D01*
X15821548Y-12928452D01*
X15812024Y-12918928D01*
X15992976Y-12737976D02*
X16126309Y-12737976D01*
X16040595Y-12937976D01*
X16192976Y-12737976D02*
X16192976Y-12776071D01*
X16269167Y-12737976D02*
X16269167Y-12776071D01*
X16564405Y-13014167D02*
X16554881Y-13004643D01*
X16535833Y-12976071D01*
X16526309Y-12957024D01*
X16516786Y-12928452D01*
X16507262Y-12880833D01*
X16507262Y-12842738D01*
X16516786Y-12795119D01*
X16526309Y-12766548D01*
X16535833Y-12747500D01*
X16554881Y-12718928D01*
X16564405Y-12709405D01*
X16669167Y-12823690D02*
X16650119Y-12814167D01*
X16640595Y-12804643D01*
X16631071Y-12785595D01*
X16631071Y-12776071D01*
X16640595Y-12757024D01*
X16650119Y-12747500D01*
X16669167Y-12737976D01*
X16707262Y-12737976D01*
X16726309Y-12747500D01*
X16735833Y-12757024D01*
X16745357Y-12776071D01*
X16745357Y-12785595D01*
X16735833Y-12804643D01*
X16726309Y-12814167D01*
X16707262Y-12823690D01*
X16669167Y-12823690D01*
X16650119Y-12833214D01*
X16640595Y-12842738D01*
X16631071Y-12861786D01*
X16631071Y-12899881D01*
X16640595Y-12918928D01*
X16650119Y-12928452D01*
X16669167Y-12937976D01*
X16707262Y-12937976D01*
X16726309Y-12928452D01*
X16735833Y-12918928D01*
X16745357Y-12899881D01*
X16745357Y-12861786D01*
X16735833Y-12842738D01*
X16726309Y-12833214D01*
X16707262Y-12823690D01*
X16812024Y-12737976D02*
X16945357Y-12737976D01*
X16859643Y-12937976D01*
X17173929Y-12937976D02*
X17173929Y-12737976D01*
X17259643Y-12937976D02*
X17259643Y-12833214D01*
X17250119Y-12814167D01*
X17231071Y-12804643D01*
X17202500Y-12804643D01*
X17183452Y-12814167D01*
X17173929Y-12823690D01*
X17383452Y-12937976D02*
X17364405Y-12928452D01*
X17354881Y-12918928D01*
X17345357Y-12899881D01*
X17345357Y-12842738D01*
X17354881Y-12823690D01*
X17364405Y-12814167D01*
X17383452Y-12804643D01*
X17412024Y-12804643D01*
X17431071Y-12814167D01*
X17440595Y-12823690D01*
X17450119Y-12842738D01*
X17450119Y-12899881D01*
X17440595Y-12918928D01*
X17431071Y-12928452D01*
X17412024Y-12937976D01*
X17383452Y-12937976D01*
X17564405Y-12937976D02*
X17545357Y-12928452D01*
X17535833Y-12909405D01*
X17535833Y-12737976D01*
X17716786Y-12928452D02*
X17697738Y-12937976D01*
X17659643Y-12937976D01*
X17640595Y-12928452D01*
X17631071Y-12909405D01*
X17631071Y-12833214D01*
X17640595Y-12814167D01*
X17659643Y-12804643D01*
X17697738Y-12804643D01*
X17716786Y-12814167D01*
X17726310Y-12833214D01*
X17726310Y-12852262D01*
X17631071Y-12871309D01*
X17802500Y-12928452D02*
X17821548Y-12937976D01*
X17859643Y-12937976D01*
X17878690Y-12928452D01*
X17888214Y-12909405D01*
X17888214Y-12899881D01*
X17878690Y-12880833D01*
X17859643Y-12871309D01*
X17831071Y-12871309D01*
X17812024Y-12861786D01*
X17802500Y-12842738D01*
X17802500Y-12833214D01*
X17812024Y-12814167D01*
X17831071Y-12804643D01*
X17859643Y-12804643D01*
X17878690Y-12814167D01*
X17954881Y-13014167D02*
X17964405Y-13004643D01*
X17983452Y-12976071D01*
X17992976Y-12957024D01*
X18002500Y-12928452D01*
X18012024Y-12880833D01*
X18012024Y-12842738D01*
X18002500Y-12795119D01*
X17992976Y-12766548D01*
X17983452Y-12747500D01*
X17964405Y-12718928D01*
X17954881Y-12709405D01*
D13*
X12992500Y-13111500D02*
G75*
G03*
X12992500Y-13111500I-40000J0D01*
G01*
D11*
X13288214Y-13001976D02*
X13307262Y-13001976D01*
X13326309Y-13011500D01*
X13335833Y-13021024D01*
X13345357Y-13040071D01*
X13354881Y-13078167D01*
X13354881Y-13125786D01*
X13345357Y-13163881D01*
X13335833Y-13182928D01*
X13326309Y-13192452D01*
X13307262Y-13201976D01*
X13288214Y-13201976D01*
X13269167Y-13192452D01*
X13259643Y-13182928D01*
X13250119Y-13163881D01*
X13240595Y-13125786D01*
X13240595Y-13078167D01*
X13250119Y-13040071D01*
X13259643Y-13021024D01*
X13269167Y-13011500D01*
X13288214Y-13001976D01*
X13440595Y-13182928D02*
X13450119Y-13192452D01*
X13440595Y-13201976D01*
X13431071Y-13192452D01*
X13440595Y-13182928D01*
X13440595Y-13201976D01*
X13564405Y-13087690D02*
X13545357Y-13078167D01*
X13535833Y-13068643D01*
X13526309Y-13049595D01*
X13526309Y-13040071D01*
X13535833Y-13021024D01*
X13545357Y-13011500D01*
X13564405Y-13001976D01*
X13602500Y-13001976D01*
X13621548Y-13011500D01*
X13631071Y-13021024D01*
X13640595Y-13040071D01*
X13640595Y-13049595D01*
X13631071Y-13068643D01*
X13621548Y-13078167D01*
X13602500Y-13087690D01*
X13564405Y-13087690D01*
X13545357Y-13097214D01*
X13535833Y-13106738D01*
X13526309Y-13125786D01*
X13526309Y-13163881D01*
X13535833Y-13182928D01*
X13545357Y-13192452D01*
X13564405Y-13201976D01*
X13602500Y-13201976D01*
X13621548Y-13192452D01*
X13631071Y-13182928D01*
X13640595Y-13163881D01*
X13640595Y-13125786D01*
X13631071Y-13106738D01*
X13621548Y-13097214D01*
X13602500Y-13087690D01*
X13764405Y-13001976D02*
X13783452Y-13001976D01*
X13802500Y-13011500D01*
X13812024Y-13021024D01*
X13821548Y-13040071D01*
X13831071Y-13078167D01*
X13831071Y-13125786D01*
X13821548Y-13163881D01*
X13812024Y-13182928D01*
X13802500Y-13192452D01*
X13783452Y-13201976D01*
X13764405Y-13201976D01*
X13745357Y-13192452D01*
X13735833Y-13182928D01*
X13726309Y-13163881D01*
X13716786Y-13125786D01*
X13716786Y-13078167D01*
X13726309Y-13040071D01*
X13735833Y-13021024D01*
X13745357Y-13011500D01*
X13764405Y-13001976D01*
X13954881Y-13001976D02*
X13973928Y-13001976D01*
X13992976Y-13011500D01*
X14002500Y-13021024D01*
X14012024Y-13040071D01*
X14021548Y-13078167D01*
X14021548Y-13125786D01*
X14012024Y-13163881D01*
X14002500Y-13182928D01*
X13992976Y-13192452D01*
X13973928Y-13201976D01*
X13954881Y-13201976D01*
X13935833Y-13192452D01*
X13926309Y-13182928D01*
X13916786Y-13163881D01*
X13907262Y-13125786D01*
X13907262Y-13078167D01*
X13916786Y-13040071D01*
X13926309Y-13021024D01*
X13935833Y-13011500D01*
X13954881Y-13001976D01*
X14107262Y-13201976D02*
X14107262Y-13068643D01*
X14107262Y-13087690D02*
X14116786Y-13078167D01*
X14135833Y-13068643D01*
X14164405Y-13068643D01*
X14183452Y-13078167D01*
X14192976Y-13097214D01*
X14192976Y-13201976D01*
X14192976Y-13097214D02*
X14202500Y-13078167D01*
X14221548Y-13068643D01*
X14250119Y-13068643D01*
X14269167Y-13078167D01*
X14278690Y-13097214D01*
X14278690Y-13201976D01*
X14373928Y-13201976D02*
X14373928Y-13068643D01*
X14373928Y-13087690D02*
X14383452Y-13078167D01*
X14402500Y-13068643D01*
X14431071Y-13068643D01*
X14450119Y-13078167D01*
X14459643Y-13097214D01*
X14459643Y-13201976D01*
X14459643Y-13097214D02*
X14469167Y-13078167D01*
X14488214Y-13068643D01*
X14516786Y-13068643D01*
X14535833Y-13078167D01*
X14545357Y-13097214D01*
X14545357Y-13201976D01*
X14935833Y-12992452D02*
X14764405Y-13249595D01*
X15192976Y-13001976D02*
X15212024Y-13001976D01*
X15231071Y-13011500D01*
X15240595Y-13021024D01*
X15250119Y-13040071D01*
X15259643Y-13078167D01*
X15259643Y-13125786D01*
X15250119Y-13163881D01*
X15240595Y-13182928D01*
X15231071Y-13192452D01*
X15212024Y-13201976D01*
X15192976Y-13201976D01*
X15173928Y-13192452D01*
X15164405Y-13182928D01*
X15154881Y-13163881D01*
X15145357Y-13125786D01*
X15145357Y-13078167D01*
X15154881Y-13040071D01*
X15164405Y-13021024D01*
X15173928Y-13011500D01*
X15192976Y-13001976D01*
X15345357Y-13182928D02*
X15354881Y-13192452D01*
X15345357Y-13201976D01*
X15335833Y-13192452D01*
X15345357Y-13182928D01*
X15345357Y-13201976D01*
X15478690Y-13001976D02*
X15497738Y-13001976D01*
X15516786Y-13011500D01*
X15526309Y-13021024D01*
X15535833Y-13040071D01*
X15545357Y-13078167D01*
X15545357Y-13125786D01*
X15535833Y-13163881D01*
X15526309Y-13182928D01*
X15516786Y-13192452D01*
X15497738Y-13201976D01*
X15478690Y-13201976D01*
X15459643Y-13192452D01*
X15450119Y-13182928D01*
X15440595Y-13163881D01*
X15431071Y-13125786D01*
X15431071Y-13078167D01*
X15440595Y-13040071D01*
X15450119Y-13021024D01*
X15459643Y-13011500D01*
X15478690Y-13001976D01*
X15612024Y-13001976D02*
X15735833Y-13001976D01*
X15669167Y-13078167D01*
X15697738Y-13078167D01*
X15716786Y-13087690D01*
X15726309Y-13097214D01*
X15735833Y-13116262D01*
X15735833Y-13163881D01*
X15726309Y-13182928D01*
X15716786Y-13192452D01*
X15697738Y-13201976D01*
X15640595Y-13201976D01*
X15621548Y-13192452D01*
X15612024Y-13182928D01*
X15926309Y-13201976D02*
X15812024Y-13201976D01*
X15869167Y-13201976D02*
X15869167Y-13001976D01*
X15850119Y-13030548D01*
X15831071Y-13049595D01*
X15812024Y-13059119D01*
X16107262Y-13001976D02*
X16012024Y-13001976D01*
X16002500Y-13097214D01*
X16012024Y-13087690D01*
X16031071Y-13078167D01*
X16078690Y-13078167D01*
X16097738Y-13087690D01*
X16107262Y-13097214D01*
X16116786Y-13116262D01*
X16116786Y-13163881D01*
X16107262Y-13182928D01*
X16097738Y-13192452D01*
X16078690Y-13201976D01*
X16031071Y-13201976D01*
X16012024Y-13192452D01*
X16002500Y-13182928D01*
X16192976Y-13001976D02*
X16192976Y-13040071D01*
X16269167Y-13001976D02*
X16269167Y-13040071D01*
X16564405Y-13278167D02*
X16554881Y-13268643D01*
X16535833Y-13240071D01*
X16526309Y-13221024D01*
X16516786Y-13192452D01*
X16507262Y-13144833D01*
X16507262Y-13106738D01*
X16516786Y-13059119D01*
X16526309Y-13030548D01*
X16535833Y-13011500D01*
X16554881Y-12982928D01*
X16564405Y-12973405D01*
X16621548Y-13001976D02*
X16754881Y-13001976D01*
X16669167Y-13201976D01*
X16821548Y-13021024D02*
X16831071Y-13011500D01*
X16850119Y-13001976D01*
X16897738Y-13001976D01*
X16916786Y-13011500D01*
X16926310Y-13021024D01*
X16935833Y-13040071D01*
X16935833Y-13059119D01*
X16926310Y-13087690D01*
X16812024Y-13201976D01*
X16935833Y-13201976D01*
X17173929Y-13201976D02*
X17173929Y-13001976D01*
X17259643Y-13201976D02*
X17259643Y-13097214D01*
X17250119Y-13078167D01*
X17231071Y-13068643D01*
X17202500Y-13068643D01*
X17183452Y-13078167D01*
X17173929Y-13087690D01*
X17383452Y-13201976D02*
X17364405Y-13192452D01*
X17354881Y-13182928D01*
X17345357Y-13163881D01*
X17345357Y-13106738D01*
X17354881Y-13087690D01*
X17364405Y-13078167D01*
X17383452Y-13068643D01*
X17412024Y-13068643D01*
X17431071Y-13078167D01*
X17440595Y-13087690D01*
X17450119Y-13106738D01*
X17450119Y-13163881D01*
X17440595Y-13182928D01*
X17431071Y-13192452D01*
X17412024Y-13201976D01*
X17383452Y-13201976D01*
X17564405Y-13201976D02*
X17545357Y-13192452D01*
X17535833Y-13173405D01*
X17535833Y-13001976D01*
X17716786Y-13192452D02*
X17697738Y-13201976D01*
X17659643Y-13201976D01*
X17640595Y-13192452D01*
X17631071Y-13173405D01*
X17631071Y-13097214D01*
X17640595Y-13078167D01*
X17659643Y-13068643D01*
X17697738Y-13068643D01*
X17716786Y-13078167D01*
X17726310Y-13097214D01*
X17726310Y-13116262D01*
X17631071Y-13135309D01*
X17802500Y-13192452D02*
X17821548Y-13201976D01*
X17859643Y-13201976D01*
X17878690Y-13192452D01*
X17888214Y-13173405D01*
X17888214Y-13163881D01*
X17878690Y-13144833D01*
X17859643Y-13135309D01*
X17831071Y-13135309D01*
X17812024Y-13125786D01*
X17802500Y-13106738D01*
X17802500Y-13097214D01*
X17812024Y-13078167D01*
X17831071Y-13068643D01*
X17859643Y-13068643D01*
X17878690Y-13078167D01*
X17954881Y-13278167D02*
X17964405Y-13268643D01*
X17983452Y-13240071D01*
X17992976Y-13221024D01*
X18002500Y-13192452D01*
X18012024Y-13144833D01*
X18012024Y-13106738D01*
X18002500Y-13059119D01*
X17992976Y-13030548D01*
X17983452Y-13011500D01*
X17964405Y-12982928D01*
X17954881Y-12973405D01*
D14*
X12947500Y-13330500D02*
X12947500Y-13420500D01*
X12902500Y-13375500D02*
X12992500Y-13375500D01*
D11*
X13288214Y-13265976D02*
X13307262Y-13265976D01*
X13326309Y-13275500D01*
X13335833Y-13285024D01*
X13345357Y-13304071D01*
X13354881Y-13342167D01*
X13354881Y-13389786D01*
X13345357Y-13427881D01*
X13335833Y-13446928D01*
X13326309Y-13456452D01*
X13307262Y-13465976D01*
X13288214Y-13465976D01*
X13269167Y-13456452D01*
X13259643Y-13446928D01*
X13250119Y-13427881D01*
X13240595Y-13389786D01*
X13240595Y-13342167D01*
X13250119Y-13304071D01*
X13259643Y-13285024D01*
X13269167Y-13275500D01*
X13288214Y-13265976D01*
X13440595Y-13446928D02*
X13450119Y-13456452D01*
X13440595Y-13465976D01*
X13431071Y-13456452D01*
X13440595Y-13446928D01*
X13440595Y-13465976D01*
X13545357Y-13465976D02*
X13583452Y-13465976D01*
X13602500Y-13456452D01*
X13612024Y-13446928D01*
X13631071Y-13418357D01*
X13640595Y-13380262D01*
X13640595Y-13304071D01*
X13631071Y-13285024D01*
X13621548Y-13275500D01*
X13602500Y-13265976D01*
X13564405Y-13265976D01*
X13545357Y-13275500D01*
X13535833Y-13285024D01*
X13526309Y-13304071D01*
X13526309Y-13351690D01*
X13535833Y-13370738D01*
X13545357Y-13380262D01*
X13564405Y-13389786D01*
X13602500Y-13389786D01*
X13621548Y-13380262D01*
X13631071Y-13370738D01*
X13640595Y-13351690D01*
X13764405Y-13265976D02*
X13783452Y-13265976D01*
X13802500Y-13275500D01*
X13812024Y-13285024D01*
X13821548Y-13304071D01*
X13831071Y-13342167D01*
X13831071Y-13389786D01*
X13821548Y-13427881D01*
X13812024Y-13446928D01*
X13802500Y-13456452D01*
X13783452Y-13465976D01*
X13764405Y-13465976D01*
X13745357Y-13456452D01*
X13735833Y-13446928D01*
X13726309Y-13427881D01*
X13716786Y-13389786D01*
X13716786Y-13342167D01*
X13726309Y-13304071D01*
X13735833Y-13285024D01*
X13745357Y-13275500D01*
X13764405Y-13265976D01*
X13954881Y-13265976D02*
X13973928Y-13265976D01*
X13992976Y-13275500D01*
X14002500Y-13285024D01*
X14012024Y-13304071D01*
X14021548Y-13342167D01*
X14021548Y-13389786D01*
X14012024Y-13427881D01*
X14002500Y-13446928D01*
X13992976Y-13456452D01*
X13973928Y-13465976D01*
X13954881Y-13465976D01*
X13935833Y-13456452D01*
X13926309Y-13446928D01*
X13916786Y-13427881D01*
X13907262Y-13389786D01*
X13907262Y-13342167D01*
X13916786Y-13304071D01*
X13926309Y-13285024D01*
X13935833Y-13275500D01*
X13954881Y-13265976D01*
X14107262Y-13465976D02*
X14107262Y-13332643D01*
X14107262Y-13351690D02*
X14116786Y-13342167D01*
X14135833Y-13332643D01*
X14164405Y-13332643D01*
X14183452Y-13342167D01*
X14192976Y-13361214D01*
X14192976Y-13465976D01*
X14192976Y-13361214D02*
X14202500Y-13342167D01*
X14221548Y-13332643D01*
X14250119Y-13332643D01*
X14269167Y-13342167D01*
X14278690Y-13361214D01*
X14278690Y-13465976D01*
X14373928Y-13465976D02*
X14373928Y-13332643D01*
X14373928Y-13351690D02*
X14383452Y-13342167D01*
X14402500Y-13332643D01*
X14431071Y-13332643D01*
X14450119Y-13342167D01*
X14459643Y-13361214D01*
X14459643Y-13465976D01*
X14459643Y-13361214D02*
X14469167Y-13342167D01*
X14488214Y-13332643D01*
X14516786Y-13332643D01*
X14535833Y-13342167D01*
X14545357Y-13361214D01*
X14545357Y-13465976D01*
X14935833Y-13256452D02*
X14764405Y-13513595D01*
X15192976Y-13265976D02*
X15212024Y-13265976D01*
X15231071Y-13275500D01*
X15240595Y-13285024D01*
X15250119Y-13304071D01*
X15259643Y-13342167D01*
X15259643Y-13389786D01*
X15250119Y-13427881D01*
X15240595Y-13446928D01*
X15231071Y-13456452D01*
X15212024Y-13465976D01*
X15192976Y-13465976D01*
X15173928Y-13456452D01*
X15164405Y-13446928D01*
X15154881Y-13427881D01*
X15145357Y-13389786D01*
X15145357Y-13342167D01*
X15154881Y-13304071D01*
X15164405Y-13285024D01*
X15173928Y-13275500D01*
X15192976Y-13265976D01*
X15345357Y-13446928D02*
X15354881Y-13456452D01*
X15345357Y-13465976D01*
X15335833Y-13456452D01*
X15345357Y-13446928D01*
X15345357Y-13465976D01*
X15478690Y-13265976D02*
X15497738Y-13265976D01*
X15516786Y-13275500D01*
X15526309Y-13285024D01*
X15535833Y-13304071D01*
X15545357Y-13342167D01*
X15545357Y-13389786D01*
X15535833Y-13427881D01*
X15526309Y-13446928D01*
X15516786Y-13456452D01*
X15497738Y-13465976D01*
X15478690Y-13465976D01*
X15459643Y-13456452D01*
X15450119Y-13446928D01*
X15440595Y-13427881D01*
X15431071Y-13389786D01*
X15431071Y-13342167D01*
X15440595Y-13304071D01*
X15450119Y-13285024D01*
X15459643Y-13275500D01*
X15478690Y-13265976D01*
X15612024Y-13265976D02*
X15735833Y-13265976D01*
X15669167Y-13342167D01*
X15697738Y-13342167D01*
X15716786Y-13351690D01*
X15726309Y-13361214D01*
X15735833Y-13380262D01*
X15735833Y-13427881D01*
X15726309Y-13446928D01*
X15716786Y-13456452D01*
X15697738Y-13465976D01*
X15640595Y-13465976D01*
X15621548Y-13456452D01*
X15612024Y-13446928D01*
X15916786Y-13265976D02*
X15821548Y-13265976D01*
X15812024Y-13361214D01*
X15821548Y-13351690D01*
X15840595Y-13342167D01*
X15888214Y-13342167D01*
X15907262Y-13351690D01*
X15916786Y-13361214D01*
X15926309Y-13380262D01*
X15926309Y-13427881D01*
X15916786Y-13446928D01*
X15907262Y-13456452D01*
X15888214Y-13465976D01*
X15840595Y-13465976D01*
X15821548Y-13456452D01*
X15812024Y-13446928D01*
X16097738Y-13332643D02*
X16097738Y-13465976D01*
X16050119Y-13256452D02*
X16002500Y-13399309D01*
X16126309Y-13399309D01*
X16192976Y-13265976D02*
X16192976Y-13304071D01*
X16269167Y-13265976D02*
X16269167Y-13304071D01*
X16564405Y-13542167D02*
X16554881Y-13532643D01*
X16535833Y-13504071D01*
X16526309Y-13485024D01*
X16516786Y-13456452D01*
X16507262Y-13408833D01*
X16507262Y-13370738D01*
X16516786Y-13323119D01*
X16526309Y-13294548D01*
X16535833Y-13275500D01*
X16554881Y-13246928D01*
X16564405Y-13237405D01*
X16631071Y-13285024D02*
X16640595Y-13275500D01*
X16659643Y-13265976D01*
X16707262Y-13265976D01*
X16726309Y-13275500D01*
X16735833Y-13285024D01*
X16745357Y-13304071D01*
X16745357Y-13323119D01*
X16735833Y-13351690D01*
X16621548Y-13465976D01*
X16745357Y-13465976D01*
X16983452Y-13465976D02*
X16983452Y-13265976D01*
X17069167Y-13465976D02*
X17069167Y-13361214D01*
X17059643Y-13342167D01*
X17040595Y-13332643D01*
X17012024Y-13332643D01*
X16992976Y-13342167D01*
X16983452Y-13351690D01*
X17192976Y-13465976D02*
X17173929Y-13456452D01*
X17164405Y-13446928D01*
X17154881Y-13427881D01*
X17154881Y-13370738D01*
X17164405Y-13351690D01*
X17173929Y-13342167D01*
X17192976Y-13332643D01*
X17221548Y-13332643D01*
X17240595Y-13342167D01*
X17250119Y-13351690D01*
X17259643Y-13370738D01*
X17259643Y-13427881D01*
X17250119Y-13446928D01*
X17240595Y-13456452D01*
X17221548Y-13465976D01*
X17192976Y-13465976D01*
X17373929Y-13465976D02*
X17354881Y-13456452D01*
X17345357Y-13437405D01*
X17345357Y-13265976D01*
X17526310Y-13456452D02*
X17507262Y-13465976D01*
X17469167Y-13465976D01*
X17450119Y-13456452D01*
X17440595Y-13437405D01*
X17440595Y-13361214D01*
X17450119Y-13342167D01*
X17469167Y-13332643D01*
X17507262Y-13332643D01*
X17526310Y-13342167D01*
X17535833Y-13361214D01*
X17535833Y-13380262D01*
X17440595Y-13399309D01*
X17612024Y-13456452D02*
X17631071Y-13465976D01*
X17669167Y-13465976D01*
X17688214Y-13456452D01*
X17697738Y-13437405D01*
X17697738Y-13427881D01*
X17688214Y-13408833D01*
X17669167Y-13399309D01*
X17640595Y-13399309D01*
X17621548Y-13389786D01*
X17612024Y-13370738D01*
X17612024Y-13361214D01*
X17621548Y-13342167D01*
X17640595Y-13332643D01*
X17669167Y-13332643D01*
X17688214Y-13342167D01*
X17764405Y-13542167D02*
X17773929Y-13532643D01*
X17792976Y-13504071D01*
X17802500Y-13485024D01*
X17812024Y-13456452D01*
X17821548Y-13408833D01*
X17821548Y-13370738D01*
X17812024Y-13323119D01*
X17802500Y-13294548D01*
X17792976Y-13275500D01*
X17773929Y-13246928D01*
X17764405Y-13237405D01*
D15*
X12977856Y-13674856D02*
X12977856Y-13604144D01*
X12907144Y-13604144D01*
X12907144Y-13674856D01*
X12977856Y-13674856D01*
D11*
X13354881Y-13729976D02*
X13240595Y-13729976D01*
X13297738Y-13729976D02*
X13297738Y-13529976D01*
X13278690Y-13558548D01*
X13259643Y-13577595D01*
X13240595Y-13587119D01*
X13440595Y-13710928D02*
X13450119Y-13720452D01*
X13440595Y-13729976D01*
X13431071Y-13720452D01*
X13440595Y-13710928D01*
X13440595Y-13729976D01*
X13573928Y-13529976D02*
X13592976Y-13529976D01*
X13612024Y-13539500D01*
X13621548Y-13549024D01*
X13631071Y-13568071D01*
X13640595Y-13606167D01*
X13640595Y-13653786D01*
X13631071Y-13691881D01*
X13621548Y-13710928D01*
X13612024Y-13720452D01*
X13592976Y-13729976D01*
X13573928Y-13729976D01*
X13554881Y-13720452D01*
X13545357Y-13710928D01*
X13535833Y-13691881D01*
X13526309Y-13653786D01*
X13526309Y-13606167D01*
X13535833Y-13568071D01*
X13545357Y-13549024D01*
X13554881Y-13539500D01*
X13573928Y-13529976D01*
X13764405Y-13529976D02*
X13783452Y-13529976D01*
X13802500Y-13539500D01*
X13812024Y-13549024D01*
X13821548Y-13568071D01*
X13831071Y-13606167D01*
X13831071Y-13653786D01*
X13821548Y-13691881D01*
X13812024Y-13710928D01*
X13802500Y-13720452D01*
X13783452Y-13729976D01*
X13764405Y-13729976D01*
X13745357Y-13720452D01*
X13735833Y-13710928D01*
X13726309Y-13691881D01*
X13716786Y-13653786D01*
X13716786Y-13606167D01*
X13726309Y-13568071D01*
X13735833Y-13549024D01*
X13745357Y-13539500D01*
X13764405Y-13529976D01*
X13954881Y-13529976D02*
X13973928Y-13529976D01*
X13992976Y-13539500D01*
X14002500Y-13549024D01*
X14012024Y-13568071D01*
X14021548Y-13606167D01*
X14021548Y-13653786D01*
X14012024Y-13691881D01*
X14002500Y-13710928D01*
X13992976Y-13720452D01*
X13973928Y-13729976D01*
X13954881Y-13729976D01*
X13935833Y-13720452D01*
X13926309Y-13710928D01*
X13916786Y-13691881D01*
X13907262Y-13653786D01*
X13907262Y-13606167D01*
X13916786Y-13568071D01*
X13926309Y-13549024D01*
X13935833Y-13539500D01*
X13954881Y-13529976D01*
X14107262Y-13729976D02*
X14107262Y-13596643D01*
X14107262Y-13615690D02*
X14116786Y-13606167D01*
X14135833Y-13596643D01*
X14164405Y-13596643D01*
X14183452Y-13606167D01*
X14192976Y-13625214D01*
X14192976Y-13729976D01*
X14192976Y-13625214D02*
X14202500Y-13606167D01*
X14221548Y-13596643D01*
X14250119Y-13596643D01*
X14269167Y-13606167D01*
X14278690Y-13625214D01*
X14278690Y-13729976D01*
X14373928Y-13729976D02*
X14373928Y-13596643D01*
X14373928Y-13615690D02*
X14383452Y-13606167D01*
X14402500Y-13596643D01*
X14431071Y-13596643D01*
X14450119Y-13606167D01*
X14459643Y-13625214D01*
X14459643Y-13729976D01*
X14459643Y-13625214D02*
X14469167Y-13606167D01*
X14488214Y-13596643D01*
X14516786Y-13596643D01*
X14535833Y-13606167D01*
X14545357Y-13625214D01*
X14545357Y-13729976D01*
X14935833Y-13520452D02*
X14764405Y-13777595D01*
X15192976Y-13529976D02*
X15212024Y-13529976D01*
X15231071Y-13539500D01*
X15240595Y-13549024D01*
X15250119Y-13568071D01*
X15259643Y-13606167D01*
X15259643Y-13653786D01*
X15250119Y-13691881D01*
X15240595Y-13710928D01*
X15231071Y-13720452D01*
X15212024Y-13729976D01*
X15192976Y-13729976D01*
X15173928Y-13720452D01*
X15164405Y-13710928D01*
X15154881Y-13691881D01*
X15145357Y-13653786D01*
X15145357Y-13606167D01*
X15154881Y-13568071D01*
X15164405Y-13549024D01*
X15173928Y-13539500D01*
X15192976Y-13529976D01*
X15345357Y-13710928D02*
X15354881Y-13720452D01*
X15345357Y-13729976D01*
X15335833Y-13720452D01*
X15345357Y-13710928D01*
X15345357Y-13729976D01*
X15478690Y-13529976D02*
X15497738Y-13529976D01*
X15516786Y-13539500D01*
X15526309Y-13549024D01*
X15535833Y-13568071D01*
X15545357Y-13606167D01*
X15545357Y-13653786D01*
X15535833Y-13691881D01*
X15526309Y-13710928D01*
X15516786Y-13720452D01*
X15497738Y-13729976D01*
X15478690Y-13729976D01*
X15459643Y-13720452D01*
X15450119Y-13710928D01*
X15440595Y-13691881D01*
X15431071Y-13653786D01*
X15431071Y-13606167D01*
X15440595Y-13568071D01*
X15450119Y-13549024D01*
X15459643Y-13539500D01*
X15478690Y-13529976D01*
X15612024Y-13529976D02*
X15735833Y-13529976D01*
X15669167Y-13606167D01*
X15697738Y-13606167D01*
X15716786Y-13615690D01*
X15726309Y-13625214D01*
X15735833Y-13644262D01*
X15735833Y-13691881D01*
X15726309Y-13710928D01*
X15716786Y-13720452D01*
X15697738Y-13729976D01*
X15640595Y-13729976D01*
X15621548Y-13720452D01*
X15612024Y-13710928D01*
X15831071Y-13729976D02*
X15869167Y-13729976D01*
X15888214Y-13720452D01*
X15897738Y-13710928D01*
X15916786Y-13682357D01*
X15926309Y-13644262D01*
X15926309Y-13568071D01*
X15916786Y-13549024D01*
X15907262Y-13539500D01*
X15888214Y-13529976D01*
X15850119Y-13529976D01*
X15831071Y-13539500D01*
X15821548Y-13549024D01*
X15812024Y-13568071D01*
X15812024Y-13615690D01*
X15821548Y-13634738D01*
X15831071Y-13644262D01*
X15850119Y-13653786D01*
X15888214Y-13653786D01*
X15907262Y-13644262D01*
X15916786Y-13634738D01*
X15926309Y-13615690D01*
X16097738Y-13596643D02*
X16097738Y-13729976D01*
X16050119Y-13520452D02*
X16002500Y-13663309D01*
X16126309Y-13663309D01*
X16192976Y-13529976D02*
X16192976Y-13568071D01*
X16269167Y-13529976D02*
X16269167Y-13568071D01*
X16564405Y-13806167D02*
X16554881Y-13796643D01*
X16535833Y-13768071D01*
X16526309Y-13749024D01*
X16516786Y-13720452D01*
X16507262Y-13672833D01*
X16507262Y-13634738D01*
X16516786Y-13587119D01*
X16526309Y-13558548D01*
X16535833Y-13539500D01*
X16554881Y-13510928D01*
X16564405Y-13501405D01*
X16745357Y-13729976D02*
X16631071Y-13729976D01*
X16688214Y-13729976D02*
X16688214Y-13529976D01*
X16669167Y-13558548D01*
X16650119Y-13577595D01*
X16631071Y-13587119D01*
X16812024Y-13529976D02*
X16935833Y-13529976D01*
X16869167Y-13606167D01*
X16897738Y-13606167D01*
X16916786Y-13615690D01*
X16926310Y-13625214D01*
X16935833Y-13644262D01*
X16935833Y-13691881D01*
X16926310Y-13710928D01*
X16916786Y-13720452D01*
X16897738Y-13729976D01*
X16840595Y-13729976D01*
X16821548Y-13720452D01*
X16812024Y-13710928D01*
X17126310Y-13729976D02*
X17012024Y-13729976D01*
X17069167Y-13729976D02*
X17069167Y-13529976D01*
X17050119Y-13558548D01*
X17031071Y-13577595D01*
X17012024Y-13587119D01*
X17364405Y-13729976D02*
X17364405Y-13529976D01*
X17450119Y-13729976D02*
X17450119Y-13625214D01*
X17440595Y-13606167D01*
X17421548Y-13596643D01*
X17392976Y-13596643D01*
X17373929Y-13606167D01*
X17364405Y-13615690D01*
X17573929Y-13729976D02*
X17554881Y-13720452D01*
X17545357Y-13710928D01*
X17535833Y-13691881D01*
X17535833Y-13634738D01*
X17545357Y-13615690D01*
X17554881Y-13606167D01*
X17573929Y-13596643D01*
X17602500Y-13596643D01*
X17621548Y-13606167D01*
X17631071Y-13615690D01*
X17640595Y-13634738D01*
X17640595Y-13691881D01*
X17631071Y-13710928D01*
X17621548Y-13720452D01*
X17602500Y-13729976D01*
X17573929Y-13729976D01*
X17754881Y-13729976D02*
X17735833Y-13720452D01*
X17726310Y-13701405D01*
X17726310Y-13529976D01*
X17907262Y-13720452D02*
X17888214Y-13729976D01*
X17850119Y-13729976D01*
X17831071Y-13720452D01*
X17821548Y-13701405D01*
X17821548Y-13625214D01*
X17831071Y-13606167D01*
X17850119Y-13596643D01*
X17888214Y-13596643D01*
X17907262Y-13606167D01*
X17916786Y-13625214D01*
X17916786Y-13644262D01*
X17821548Y-13663309D01*
X17992976Y-13720452D02*
X18012024Y-13729976D01*
X18050119Y-13729976D01*
X18069167Y-13720452D01*
X18078690Y-13701405D01*
X18078690Y-13691881D01*
X18069167Y-13672833D01*
X18050119Y-13663309D01*
X18021548Y-13663309D01*
X18002500Y-13653786D01*
X17992976Y-13634738D01*
X17992976Y-13625214D01*
X18002500Y-13606167D01*
X18021548Y-13596643D01*
X18050119Y-13596643D01*
X18069167Y-13606167D01*
X18145357Y-13806167D02*
X18154881Y-13796643D01*
X18173929Y-13768071D01*
X18183452Y-13749024D01*
X18192976Y-13720452D01*
X18202500Y-13672833D01*
X18202500Y-13634738D01*
X18192976Y-13587119D01*
X18183452Y-13558548D01*
X18173929Y-13539500D01*
X18154881Y-13510928D01*
X18145357Y-13501405D01*
D16*
X12937500Y-13958500D02*
X12992500Y-13903500D01*
X12937500Y-13848500D01*
X12882500Y-13903500D01*
X12937500Y-13958500D01*
D11*
X13354881Y-13993976D02*
X13240595Y-13993976D01*
X13297738Y-13993976D02*
X13297738Y-13793976D01*
X13278690Y-13822548D01*
X13259643Y-13841595D01*
X13240595Y-13851119D01*
X13440595Y-13974928D02*
X13450119Y-13984452D01*
X13440595Y-13993976D01*
X13431071Y-13984452D01*
X13440595Y-13974928D01*
X13440595Y-13993976D01*
X13640595Y-13993976D02*
X13526309Y-13993976D01*
X13583452Y-13993976D02*
X13583452Y-13793976D01*
X13564405Y-13822548D01*
X13545357Y-13841595D01*
X13526309Y-13851119D01*
X13764405Y-13793976D02*
X13783452Y-13793976D01*
X13802500Y-13803500D01*
X13812024Y-13813024D01*
X13821548Y-13832071D01*
X13831071Y-13870167D01*
X13831071Y-13917786D01*
X13821548Y-13955881D01*
X13812024Y-13974928D01*
X13802500Y-13984452D01*
X13783452Y-13993976D01*
X13764405Y-13993976D01*
X13745357Y-13984452D01*
X13735833Y-13974928D01*
X13726309Y-13955881D01*
X13716786Y-13917786D01*
X13716786Y-13870167D01*
X13726309Y-13832071D01*
X13735833Y-13813024D01*
X13745357Y-13803500D01*
X13764405Y-13793976D01*
X13954881Y-13793976D02*
X13973928Y-13793976D01*
X13992976Y-13803500D01*
X14002500Y-13813024D01*
X14012024Y-13832071D01*
X14021548Y-13870167D01*
X14021548Y-13917786D01*
X14012024Y-13955881D01*
X14002500Y-13974928D01*
X13992976Y-13984452D01*
X13973928Y-13993976D01*
X13954881Y-13993976D01*
X13935833Y-13984452D01*
X13926309Y-13974928D01*
X13916786Y-13955881D01*
X13907262Y-13917786D01*
X13907262Y-13870167D01*
X13916786Y-13832071D01*
X13926309Y-13813024D01*
X13935833Y-13803500D01*
X13954881Y-13793976D01*
X14107262Y-13993976D02*
X14107262Y-13860643D01*
X14107262Y-13879690D02*
X14116786Y-13870167D01*
X14135833Y-13860643D01*
X14164405Y-13860643D01*
X14183452Y-13870167D01*
X14192976Y-13889214D01*
X14192976Y-13993976D01*
X14192976Y-13889214D02*
X14202500Y-13870167D01*
X14221548Y-13860643D01*
X14250119Y-13860643D01*
X14269167Y-13870167D01*
X14278690Y-13889214D01*
X14278690Y-13993976D01*
X14373928Y-13993976D02*
X14373928Y-13860643D01*
X14373928Y-13879690D02*
X14383452Y-13870167D01*
X14402500Y-13860643D01*
X14431071Y-13860643D01*
X14450119Y-13870167D01*
X14459643Y-13889214D01*
X14459643Y-13993976D01*
X14459643Y-13889214D02*
X14469167Y-13870167D01*
X14488214Y-13860643D01*
X14516786Y-13860643D01*
X14535833Y-13870167D01*
X14545357Y-13889214D01*
X14545357Y-13993976D01*
X14935833Y-13784452D02*
X14764405Y-14041595D01*
X15192976Y-13793976D02*
X15212024Y-13793976D01*
X15231071Y-13803500D01*
X15240595Y-13813024D01*
X15250119Y-13832071D01*
X15259643Y-13870167D01*
X15259643Y-13917786D01*
X15250119Y-13955881D01*
X15240595Y-13974928D01*
X15231071Y-13984452D01*
X15212024Y-13993976D01*
X15192976Y-13993976D01*
X15173928Y-13984452D01*
X15164405Y-13974928D01*
X15154881Y-13955881D01*
X15145357Y-13917786D01*
X15145357Y-13870167D01*
X15154881Y-13832071D01*
X15164405Y-13813024D01*
X15173928Y-13803500D01*
X15192976Y-13793976D01*
X15345357Y-13974928D02*
X15354881Y-13984452D01*
X15345357Y-13993976D01*
X15335833Y-13984452D01*
X15345357Y-13974928D01*
X15345357Y-13993976D01*
X15478690Y-13793976D02*
X15497738Y-13793976D01*
X15516786Y-13803500D01*
X15526309Y-13813024D01*
X15535833Y-13832071D01*
X15545357Y-13870167D01*
X15545357Y-13917786D01*
X15535833Y-13955881D01*
X15526309Y-13974928D01*
X15516786Y-13984452D01*
X15497738Y-13993976D01*
X15478690Y-13993976D01*
X15459643Y-13984452D01*
X15450119Y-13974928D01*
X15440595Y-13955881D01*
X15431071Y-13917786D01*
X15431071Y-13870167D01*
X15440595Y-13832071D01*
X15450119Y-13813024D01*
X15459643Y-13803500D01*
X15478690Y-13793976D01*
X15716786Y-13860643D02*
X15716786Y-13993976D01*
X15669167Y-13784452D02*
X15621548Y-13927309D01*
X15745357Y-13927309D01*
X15802500Y-13793976D02*
X15926309Y-13793976D01*
X15859643Y-13870167D01*
X15888214Y-13870167D01*
X15907262Y-13879690D01*
X15916786Y-13889214D01*
X15926309Y-13908262D01*
X15926309Y-13955881D01*
X15916786Y-13974928D01*
X15907262Y-13984452D01*
X15888214Y-13993976D01*
X15831071Y-13993976D01*
X15812024Y-13984452D01*
X15802500Y-13974928D01*
X15992976Y-13793976D02*
X16116786Y-13793976D01*
X16050119Y-13870167D01*
X16078690Y-13870167D01*
X16097738Y-13879690D01*
X16107262Y-13889214D01*
X16116786Y-13908262D01*
X16116786Y-13955881D01*
X16107262Y-13974928D01*
X16097738Y-13984452D01*
X16078690Y-13993976D01*
X16021548Y-13993976D01*
X16002500Y-13984452D01*
X15992976Y-13974928D01*
X16192976Y-13793976D02*
X16192976Y-13832071D01*
X16269167Y-13793976D02*
X16269167Y-13832071D01*
X16564405Y-14070167D02*
X16554881Y-14060643D01*
X16535833Y-14032071D01*
X16526309Y-14013024D01*
X16516786Y-13984452D01*
X16507262Y-13936833D01*
X16507262Y-13898738D01*
X16516786Y-13851119D01*
X16526309Y-13822548D01*
X16535833Y-13803500D01*
X16554881Y-13774928D01*
X16564405Y-13765405D01*
X16726309Y-13793976D02*
X16688214Y-13793976D01*
X16669167Y-13803500D01*
X16659643Y-13813024D01*
X16640595Y-13841595D01*
X16631071Y-13879690D01*
X16631071Y-13955881D01*
X16640595Y-13974928D01*
X16650119Y-13984452D01*
X16669167Y-13993976D01*
X16707262Y-13993976D01*
X16726309Y-13984452D01*
X16735833Y-13974928D01*
X16745357Y-13955881D01*
X16745357Y-13908262D01*
X16735833Y-13889214D01*
X16726309Y-13879690D01*
X16707262Y-13870167D01*
X16669167Y-13870167D01*
X16650119Y-13879690D01*
X16640595Y-13889214D01*
X16631071Y-13908262D01*
X16983452Y-13993976D02*
X16983452Y-13793976D01*
X17069167Y-13993976D02*
X17069167Y-13889214D01*
X17059643Y-13870167D01*
X17040595Y-13860643D01*
X17012024Y-13860643D01*
X16992976Y-13870167D01*
X16983452Y-13879690D01*
X17192976Y-13993976D02*
X17173929Y-13984452D01*
X17164405Y-13974928D01*
X17154881Y-13955881D01*
X17154881Y-13898738D01*
X17164405Y-13879690D01*
X17173929Y-13870167D01*
X17192976Y-13860643D01*
X17221548Y-13860643D01*
X17240595Y-13870167D01*
X17250119Y-13879690D01*
X17259643Y-13898738D01*
X17259643Y-13955881D01*
X17250119Y-13974928D01*
X17240595Y-13984452D01*
X17221548Y-13993976D01*
X17192976Y-13993976D01*
X17373929Y-13993976D02*
X17354881Y-13984452D01*
X17345357Y-13965405D01*
X17345357Y-13793976D01*
X17526310Y-13984452D02*
X17507262Y-13993976D01*
X17469167Y-13993976D01*
X17450119Y-13984452D01*
X17440595Y-13965405D01*
X17440595Y-13889214D01*
X17450119Y-13870167D01*
X17469167Y-13860643D01*
X17507262Y-13860643D01*
X17526310Y-13870167D01*
X17535833Y-13889214D01*
X17535833Y-13908262D01*
X17440595Y-13927309D01*
X17612024Y-13984452D02*
X17631071Y-13993976D01*
X17669167Y-13993976D01*
X17688214Y-13984452D01*
X17697738Y-13965405D01*
X17697738Y-13955881D01*
X17688214Y-13936833D01*
X17669167Y-13927309D01*
X17640595Y-13927309D01*
X17621548Y-13917786D01*
X17612024Y-13898738D01*
X17612024Y-13889214D01*
X17621548Y-13870167D01*
X17640595Y-13860643D01*
X17669167Y-13860643D01*
X17688214Y-13870167D01*
X17764405Y-14070167D02*
X17773929Y-14060643D01*
X17792976Y-14032071D01*
X17802500Y-14013024D01*
X17812024Y-13984452D01*
X17821548Y-13936833D01*
X17821548Y-13898738D01*
X17812024Y-13851119D01*
X17802500Y-13822548D01*
X17792976Y-13803500D01*
X17773929Y-13774928D01*
X17764405Y-13765405D01*
D17*
X12873500Y-14108000D02*
X12992500Y-14227000D01*
X12992500Y-14108000D02*
X12873500Y-14227000D01*
X12992500Y-14167500D02*
G75*
G03*
X12992500Y-14167500I-59500J0D01*
G01*
D11*
X13354881Y-14257976D02*
X13240595Y-14257976D01*
X13297738Y-14257976D02*
X13297738Y-14057976D01*
X13278690Y-14086548D01*
X13259643Y-14105595D01*
X13240595Y-14115119D01*
X13440595Y-14238928D02*
X13450119Y-14248452D01*
X13440595Y-14257976D01*
X13431071Y-14248452D01*
X13440595Y-14238928D01*
X13440595Y-14257976D01*
X13640595Y-14257976D02*
X13526309Y-14257976D01*
X13583452Y-14257976D02*
X13583452Y-14057976D01*
X13564405Y-14086548D01*
X13545357Y-14105595D01*
X13526309Y-14115119D01*
X13735833Y-14257976D02*
X13773928Y-14257976D01*
X13792976Y-14248452D01*
X13802500Y-14238928D01*
X13821548Y-14210357D01*
X13831071Y-14172262D01*
X13831071Y-14096071D01*
X13821548Y-14077024D01*
X13812024Y-14067500D01*
X13792976Y-14057976D01*
X13754881Y-14057976D01*
X13735833Y-14067500D01*
X13726309Y-14077024D01*
X13716786Y-14096071D01*
X13716786Y-14143690D01*
X13726309Y-14162738D01*
X13735833Y-14172262D01*
X13754881Y-14181786D01*
X13792976Y-14181786D01*
X13812024Y-14172262D01*
X13821548Y-14162738D01*
X13831071Y-14143690D01*
X13954881Y-14057976D02*
X13973928Y-14057976D01*
X13992976Y-14067500D01*
X14002500Y-14077024D01*
X14012024Y-14096071D01*
X14021548Y-14134167D01*
X14021548Y-14181786D01*
X14012024Y-14219881D01*
X14002500Y-14238928D01*
X13992976Y-14248452D01*
X13973928Y-14257976D01*
X13954881Y-14257976D01*
X13935833Y-14248452D01*
X13926309Y-14238928D01*
X13916786Y-14219881D01*
X13907262Y-14181786D01*
X13907262Y-14134167D01*
X13916786Y-14096071D01*
X13926309Y-14077024D01*
X13935833Y-14067500D01*
X13954881Y-14057976D01*
X14107262Y-14257976D02*
X14107262Y-14124643D01*
X14107262Y-14143690D02*
X14116786Y-14134167D01*
X14135833Y-14124643D01*
X14164405Y-14124643D01*
X14183452Y-14134167D01*
X14192976Y-14153214D01*
X14192976Y-14257976D01*
X14192976Y-14153214D02*
X14202500Y-14134167D01*
X14221548Y-14124643D01*
X14250119Y-14124643D01*
X14269167Y-14134167D01*
X14278690Y-14153214D01*
X14278690Y-14257976D01*
X14373928Y-14257976D02*
X14373928Y-14124643D01*
X14373928Y-14143690D02*
X14383452Y-14134167D01*
X14402500Y-14124643D01*
X14431071Y-14124643D01*
X14450119Y-14134167D01*
X14459643Y-14153214D01*
X14459643Y-14257976D01*
X14459643Y-14153214D02*
X14469167Y-14134167D01*
X14488214Y-14124643D01*
X14516786Y-14124643D01*
X14535833Y-14134167D01*
X14545357Y-14153214D01*
X14545357Y-14257976D01*
X14935833Y-14048452D02*
X14764405Y-14305595D01*
X15192976Y-14057976D02*
X15212024Y-14057976D01*
X15231071Y-14067500D01*
X15240595Y-14077024D01*
X15250119Y-14096071D01*
X15259643Y-14134167D01*
X15259643Y-14181786D01*
X15250119Y-14219881D01*
X15240595Y-14238928D01*
X15231071Y-14248452D01*
X15212024Y-14257976D01*
X15192976Y-14257976D01*
X15173928Y-14248452D01*
X15164405Y-14238928D01*
X15154881Y-14219881D01*
X15145357Y-14181786D01*
X15145357Y-14134167D01*
X15154881Y-14096071D01*
X15164405Y-14077024D01*
X15173928Y-14067500D01*
X15192976Y-14057976D01*
X15345357Y-14238928D02*
X15354881Y-14248452D01*
X15345357Y-14257976D01*
X15335833Y-14248452D01*
X15345357Y-14238928D01*
X15345357Y-14257976D01*
X15478690Y-14057976D02*
X15497738Y-14057976D01*
X15516786Y-14067500D01*
X15526309Y-14077024D01*
X15535833Y-14096071D01*
X15545357Y-14134167D01*
X15545357Y-14181786D01*
X15535833Y-14219881D01*
X15526309Y-14238928D01*
X15516786Y-14248452D01*
X15497738Y-14257976D01*
X15478690Y-14257976D01*
X15459643Y-14248452D01*
X15450119Y-14238928D01*
X15440595Y-14219881D01*
X15431071Y-14181786D01*
X15431071Y-14134167D01*
X15440595Y-14096071D01*
X15450119Y-14077024D01*
X15459643Y-14067500D01*
X15478690Y-14057976D01*
X15716786Y-14124643D02*
X15716786Y-14257976D01*
X15669167Y-14048452D02*
X15621548Y-14191309D01*
X15745357Y-14191309D01*
X15907262Y-14057976D02*
X15869167Y-14057976D01*
X15850119Y-14067500D01*
X15840595Y-14077024D01*
X15821548Y-14105595D01*
X15812024Y-14143690D01*
X15812024Y-14219881D01*
X15821548Y-14238928D01*
X15831071Y-14248452D01*
X15850119Y-14257976D01*
X15888214Y-14257976D01*
X15907262Y-14248452D01*
X15916786Y-14238928D01*
X15926309Y-14219881D01*
X15926309Y-14172262D01*
X15916786Y-14153214D01*
X15907262Y-14143690D01*
X15888214Y-14134167D01*
X15850119Y-14134167D01*
X15831071Y-14143690D01*
X15821548Y-14153214D01*
X15812024Y-14172262D01*
X16021548Y-14257976D02*
X16059643Y-14257976D01*
X16078690Y-14248452D01*
X16088214Y-14238928D01*
X16107262Y-14210357D01*
X16116786Y-14172262D01*
X16116786Y-14096071D01*
X16107262Y-14077024D01*
X16097738Y-14067500D01*
X16078690Y-14057976D01*
X16040595Y-14057976D01*
X16021548Y-14067500D01*
X16012024Y-14077024D01*
X16002500Y-14096071D01*
X16002500Y-14143690D01*
X16012024Y-14162738D01*
X16021548Y-14172262D01*
X16040595Y-14181786D01*
X16078690Y-14181786D01*
X16097738Y-14172262D01*
X16107262Y-14162738D01*
X16116786Y-14143690D01*
X16192976Y-14057976D02*
X16192976Y-14096071D01*
X16269167Y-14057976D02*
X16269167Y-14096071D01*
X16564405Y-14334167D02*
X16554881Y-14324643D01*
X16535833Y-14296071D01*
X16526309Y-14277024D01*
X16516786Y-14248452D01*
X16507262Y-14200833D01*
X16507262Y-14162738D01*
X16516786Y-14115119D01*
X16526309Y-14086548D01*
X16535833Y-14067500D01*
X16554881Y-14038928D01*
X16564405Y-14029405D01*
X16631071Y-14077024D02*
X16640595Y-14067500D01*
X16659643Y-14057976D01*
X16707262Y-14057976D01*
X16726309Y-14067500D01*
X16735833Y-14077024D01*
X16745357Y-14096071D01*
X16745357Y-14115119D01*
X16735833Y-14143690D01*
X16621548Y-14257976D01*
X16745357Y-14257976D01*
X16840595Y-14257976D02*
X16878690Y-14257976D01*
X16897738Y-14248452D01*
X16907262Y-14238928D01*
X16926310Y-14210357D01*
X16935833Y-14172262D01*
X16935833Y-14096071D01*
X16926310Y-14077024D01*
X16916786Y-14067500D01*
X16897738Y-14057976D01*
X16859643Y-14057976D01*
X16840595Y-14067500D01*
X16831071Y-14077024D01*
X16821548Y-14096071D01*
X16821548Y-14143690D01*
X16831071Y-14162738D01*
X16840595Y-14172262D01*
X16859643Y-14181786D01*
X16897738Y-14181786D01*
X16916786Y-14172262D01*
X16926310Y-14162738D01*
X16935833Y-14143690D01*
X17173929Y-14257976D02*
X17173929Y-14057976D01*
X17259643Y-14257976D02*
X17259643Y-14153214D01*
X17250119Y-14134167D01*
X17231071Y-14124643D01*
X17202500Y-14124643D01*
X17183452Y-14134167D01*
X17173929Y-14143690D01*
X17383452Y-14257976D02*
X17364405Y-14248452D01*
X17354881Y-14238928D01*
X17345357Y-14219881D01*
X17345357Y-14162738D01*
X17354881Y-14143690D01*
X17364405Y-14134167D01*
X17383452Y-14124643D01*
X17412024Y-14124643D01*
X17431071Y-14134167D01*
X17440595Y-14143690D01*
X17450119Y-14162738D01*
X17450119Y-14219881D01*
X17440595Y-14238928D01*
X17431071Y-14248452D01*
X17412024Y-14257976D01*
X17383452Y-14257976D01*
X17564405Y-14257976D02*
X17545357Y-14248452D01*
X17535833Y-14229405D01*
X17535833Y-14057976D01*
X17716786Y-14248452D02*
X17697738Y-14257976D01*
X17659643Y-14257976D01*
X17640595Y-14248452D01*
X17631071Y-14229405D01*
X17631071Y-14153214D01*
X17640595Y-14134167D01*
X17659643Y-14124643D01*
X17697738Y-14124643D01*
X17716786Y-14134167D01*
X17726310Y-14153214D01*
X17726310Y-14172262D01*
X17631071Y-14191309D01*
X17802500Y-14248452D02*
X17821548Y-14257976D01*
X17859643Y-14257976D01*
X17878690Y-14248452D01*
X17888214Y-14229405D01*
X17888214Y-14219881D01*
X17878690Y-14200833D01*
X17859643Y-14191309D01*
X17831071Y-14191309D01*
X17812024Y-14181786D01*
X17802500Y-14162738D01*
X17802500Y-14153214D01*
X17812024Y-14134167D01*
X17831071Y-14124643D01*
X17859643Y-14124643D01*
X17878690Y-14134167D01*
X17954881Y-14334167D02*
X17964405Y-14324643D01*
X17983452Y-14296071D01*
X17992976Y-14277024D01*
X18002500Y-14248452D01*
X18012024Y-14200833D01*
X18012024Y-14162738D01*
X18002500Y-14115119D01*
X17992976Y-14086548D01*
X17983452Y-14067500D01*
X17964405Y-14038928D01*
X17954881Y-14029405D01*
D18*
X12862960Y-14366730D02*
X12992500Y-14496270D01*
X12992500Y-14366730D02*
X12862960Y-14496270D01*
X12927730Y-14366730D02*
X12927730Y-14496270D01*
X12862960Y-14431500D02*
X12992500Y-14431500D01*
D11*
X13354881Y-14521976D02*
X13240595Y-14521976D01*
X13297738Y-14521976D02*
X13297738Y-14321976D01*
X13278690Y-14350548D01*
X13259643Y-14369595D01*
X13240595Y-14379119D01*
X13440595Y-14502928D02*
X13450119Y-14512452D01*
X13440595Y-14521976D01*
X13431071Y-14512452D01*
X13440595Y-14502928D01*
X13440595Y-14521976D01*
X13526309Y-14341024D02*
X13535833Y-14331500D01*
X13554881Y-14321976D01*
X13602500Y-14321976D01*
X13621548Y-14331500D01*
X13631071Y-14341024D01*
X13640595Y-14360071D01*
X13640595Y-14379119D01*
X13631071Y-14407690D01*
X13516786Y-14521976D01*
X13640595Y-14521976D01*
X13735833Y-14521976D02*
X13773928Y-14521976D01*
X13792976Y-14512452D01*
X13802500Y-14502928D01*
X13821548Y-14474357D01*
X13831071Y-14436262D01*
X13831071Y-14360071D01*
X13821548Y-14341024D01*
X13812024Y-14331500D01*
X13792976Y-14321976D01*
X13754881Y-14321976D01*
X13735833Y-14331500D01*
X13726309Y-14341024D01*
X13716786Y-14360071D01*
X13716786Y-14407690D01*
X13726309Y-14426738D01*
X13735833Y-14436262D01*
X13754881Y-14445786D01*
X13792976Y-14445786D01*
X13812024Y-14436262D01*
X13821548Y-14426738D01*
X13831071Y-14407690D01*
X14012024Y-14321976D02*
X13916786Y-14321976D01*
X13907262Y-14417214D01*
X13916786Y-14407690D01*
X13935833Y-14398167D01*
X13983452Y-14398167D01*
X14002500Y-14407690D01*
X14012024Y-14417214D01*
X14021548Y-14436262D01*
X14021548Y-14483881D01*
X14012024Y-14502928D01*
X14002500Y-14512452D01*
X13983452Y-14521976D01*
X13935833Y-14521976D01*
X13916786Y-14512452D01*
X13907262Y-14502928D01*
X14107262Y-14521976D02*
X14107262Y-14388643D01*
X14107262Y-14407690D02*
X14116786Y-14398167D01*
X14135833Y-14388643D01*
X14164405Y-14388643D01*
X14183452Y-14398167D01*
X14192976Y-14417214D01*
X14192976Y-14521976D01*
X14192976Y-14417214D02*
X14202500Y-14398167D01*
X14221548Y-14388643D01*
X14250119Y-14388643D01*
X14269167Y-14398167D01*
X14278690Y-14417214D01*
X14278690Y-14521976D01*
X14373928Y-14521976D02*
X14373928Y-14388643D01*
X14373928Y-14407690D02*
X14383452Y-14398167D01*
X14402500Y-14388643D01*
X14431071Y-14388643D01*
X14450119Y-14398167D01*
X14459643Y-14417214D01*
X14459643Y-14521976D01*
X14459643Y-14417214D02*
X14469167Y-14398167D01*
X14488214Y-14388643D01*
X14516786Y-14388643D01*
X14535833Y-14398167D01*
X14545357Y-14417214D01*
X14545357Y-14521976D01*
X14935833Y-14312452D02*
X14764405Y-14569595D01*
X15192976Y-14321976D02*
X15212024Y-14321976D01*
X15231071Y-14331500D01*
X15240595Y-14341024D01*
X15250119Y-14360071D01*
X15259643Y-14398167D01*
X15259643Y-14445786D01*
X15250119Y-14483881D01*
X15240595Y-14502928D01*
X15231071Y-14512452D01*
X15212024Y-14521976D01*
X15192976Y-14521976D01*
X15173928Y-14512452D01*
X15164405Y-14502928D01*
X15154881Y-14483881D01*
X15145357Y-14445786D01*
X15145357Y-14398167D01*
X15154881Y-14360071D01*
X15164405Y-14341024D01*
X15173928Y-14331500D01*
X15192976Y-14321976D01*
X15345357Y-14502928D02*
X15354881Y-14512452D01*
X15345357Y-14521976D01*
X15335833Y-14512452D01*
X15345357Y-14502928D01*
X15345357Y-14521976D01*
X15478690Y-14321976D02*
X15497738Y-14321976D01*
X15516786Y-14331500D01*
X15526309Y-14341024D01*
X15535833Y-14360071D01*
X15545357Y-14398167D01*
X15545357Y-14445786D01*
X15535833Y-14483881D01*
X15526309Y-14502928D01*
X15516786Y-14512452D01*
X15497738Y-14521976D01*
X15478690Y-14521976D01*
X15459643Y-14512452D01*
X15450119Y-14502928D01*
X15440595Y-14483881D01*
X15431071Y-14445786D01*
X15431071Y-14398167D01*
X15440595Y-14360071D01*
X15450119Y-14341024D01*
X15459643Y-14331500D01*
X15478690Y-14321976D01*
X15726309Y-14321976D02*
X15631071Y-14321976D01*
X15621548Y-14417214D01*
X15631071Y-14407690D01*
X15650119Y-14398167D01*
X15697738Y-14398167D01*
X15716786Y-14407690D01*
X15726309Y-14417214D01*
X15735833Y-14436262D01*
X15735833Y-14483881D01*
X15726309Y-14502928D01*
X15716786Y-14512452D01*
X15697738Y-14521976D01*
X15650119Y-14521976D01*
X15631071Y-14512452D01*
X15621548Y-14502928D01*
X15926309Y-14521976D02*
X15812024Y-14521976D01*
X15869167Y-14521976D02*
X15869167Y-14321976D01*
X15850119Y-14350548D01*
X15831071Y-14369595D01*
X15812024Y-14379119D01*
X16050119Y-14321976D02*
X16069167Y-14321976D01*
X16088214Y-14331500D01*
X16097738Y-14341024D01*
X16107262Y-14360071D01*
X16116786Y-14398167D01*
X16116786Y-14445786D01*
X16107262Y-14483881D01*
X16097738Y-14502928D01*
X16088214Y-14512452D01*
X16069167Y-14521976D01*
X16050119Y-14521976D01*
X16031071Y-14512452D01*
X16021548Y-14502928D01*
X16012024Y-14483881D01*
X16002500Y-14445786D01*
X16002500Y-14398167D01*
X16012024Y-14360071D01*
X16021548Y-14341024D01*
X16031071Y-14331500D01*
X16050119Y-14321976D01*
X16192976Y-14321976D02*
X16192976Y-14360071D01*
X16269167Y-14321976D02*
X16269167Y-14360071D01*
X16564405Y-14598167D02*
X16554881Y-14588643D01*
X16535833Y-14560071D01*
X16526309Y-14541024D01*
X16516786Y-14512452D01*
X16507262Y-14464833D01*
X16507262Y-14426738D01*
X16516786Y-14379119D01*
X16526309Y-14350548D01*
X16535833Y-14331500D01*
X16554881Y-14302928D01*
X16564405Y-14293405D01*
X16726309Y-14321976D02*
X16688214Y-14321976D01*
X16669167Y-14331500D01*
X16659643Y-14341024D01*
X16640595Y-14369595D01*
X16631071Y-14407690D01*
X16631071Y-14483881D01*
X16640595Y-14502928D01*
X16650119Y-14512452D01*
X16669167Y-14521976D01*
X16707262Y-14521976D01*
X16726309Y-14512452D01*
X16735833Y-14502928D01*
X16745357Y-14483881D01*
X16745357Y-14436262D01*
X16735833Y-14417214D01*
X16726309Y-14407690D01*
X16707262Y-14398167D01*
X16669167Y-14398167D01*
X16650119Y-14407690D01*
X16640595Y-14417214D01*
X16631071Y-14436262D01*
X16983452Y-14521976D02*
X16983452Y-14321976D01*
X17069167Y-14521976D02*
X17069167Y-14417214D01*
X17059643Y-14398167D01*
X17040595Y-14388643D01*
X17012024Y-14388643D01*
X16992976Y-14398167D01*
X16983452Y-14407690D01*
X17192976Y-14521976D02*
X17173929Y-14512452D01*
X17164405Y-14502928D01*
X17154881Y-14483881D01*
X17154881Y-14426738D01*
X17164405Y-14407690D01*
X17173929Y-14398167D01*
X17192976Y-14388643D01*
X17221548Y-14388643D01*
X17240595Y-14398167D01*
X17250119Y-14407690D01*
X17259643Y-14426738D01*
X17259643Y-14483881D01*
X17250119Y-14502928D01*
X17240595Y-14512452D01*
X17221548Y-14521976D01*
X17192976Y-14521976D01*
X17373929Y-14521976D02*
X17354881Y-14512452D01*
X17345357Y-14493405D01*
X17345357Y-14321976D01*
X17526310Y-14512452D02*
X17507262Y-14521976D01*
X17469167Y-14521976D01*
X17450119Y-14512452D01*
X17440595Y-14493405D01*
X17440595Y-14417214D01*
X17450119Y-14398167D01*
X17469167Y-14388643D01*
X17507262Y-14388643D01*
X17526310Y-14398167D01*
X17535833Y-14417214D01*
X17535833Y-14436262D01*
X17440595Y-14455309D01*
X17612024Y-14512452D02*
X17631071Y-14521976D01*
X17669167Y-14521976D01*
X17688214Y-14512452D01*
X17697738Y-14493405D01*
X17697738Y-14483881D01*
X17688214Y-14464833D01*
X17669167Y-14455309D01*
X17640595Y-14455309D01*
X17621548Y-14445786D01*
X17612024Y-14426738D01*
X17612024Y-14417214D01*
X17621548Y-14398167D01*
X17640595Y-14388643D01*
X17669167Y-14388643D01*
X17688214Y-14398167D01*
X17764405Y-14598167D02*
X17773929Y-14588643D01*
X17792976Y-14560071D01*
X17802500Y-14541024D01*
X17812024Y-14512452D01*
X17821548Y-14464833D01*
X17821548Y-14426738D01*
X17812024Y-14379119D01*
X17802500Y-14350548D01*
X17792976Y-14331500D01*
X17773929Y-14302928D01*
X17764405Y-14293405D01*
M02*
