%FSLAX45Y45*%
G04 Gerber Fmt 4.5, Leading zero omitted, Abs format (unit mm)*
G04 Created by KiCad (PCBNEW 6.0.5-a6ca702e91~116~ubuntu20.04.1) date 2022-07-24 23:29:51*
%MOMM*%
%LPD*%
G01*
G04 APERTURE LIST*
%TA.AperFunction,Profile*%
%ADD10C,0.150000*%
%TD*%
%ADD11C,0.200000*%
%ADD12C,0.080000*%
%ADD13C,0.100000*%
%ADD14C,0.110000*%
%ADD15C,0.119000*%
%ADD16C,0.129540*%
G04 APERTURE END LIST*
D10*
X20000000Y-2032000D02*
X13000000Y-2032000D01*
X15972000Y-6869000D02*
G75*
G03*
X15972000Y-6869000I-300000J0D01*
G01*
X14300000Y-12200000D02*
X17600000Y-12200000D01*
X19800000Y-12000000D02*
G75*
G03*
X20000000Y-11800000I0J200000D01*
G01*
X17600000Y-12200000D02*
X17800000Y-12000000D01*
X20000000Y-11800000D02*
X20000000Y-2032000D01*
X19075000Y-6870000D02*
G75*
G03*
X19075000Y-6870000I-162000J0D01*
G01*
X13000000Y-11800000D02*
X13000000Y-2032000D01*
X14249000Y-6742000D02*
G75*
G03*
X14249000Y-6742000I-162000J0D01*
G01*
X14100000Y-12000000D02*
X14300000Y-12200000D01*
X13200000Y-12000000D02*
X14100000Y-12000000D01*
X13000000Y-11800000D02*
G75*
G03*
X13200000Y-12000000I200000J0D01*
G01*
X17800000Y-12000000D02*
X19800000Y-12000000D01*
X17630000Y-6868000D02*
G75*
G03*
X17630000Y-6868000I-300000J0D01*
G01*
X17550000Y-11950000D02*
G75*
G03*
X17550000Y-11950000I-163000J0D01*
G01*
D11*
D12*
X15119000Y-2372300D02*
X15199000Y-2452300D01*
X15199000Y-2372300D02*
X15119000Y-2452300D01*
X15119000Y-2626300D02*
X15199000Y-2706300D01*
X15199000Y-2626300D02*
X15119000Y-2706300D01*
X15119000Y-2880300D02*
X15199000Y-2960300D01*
X15199000Y-2880300D02*
X15119000Y-2960300D01*
X15119000Y-3134300D02*
X15199000Y-3214300D01*
X15199000Y-3134300D02*
X15119000Y-3214300D01*
X15119000Y-3388300D02*
X15199000Y-3468300D01*
X15199000Y-3388300D02*
X15119000Y-3468300D01*
X15119000Y-3642300D02*
X15199000Y-3722300D01*
X15199000Y-3642300D02*
X15119000Y-3722300D01*
X15119000Y-3896300D02*
X15199000Y-3976300D01*
X15199000Y-3896300D02*
X15119000Y-3976300D01*
X15119000Y-4150300D02*
X15199000Y-4230300D01*
X15199000Y-4150300D02*
X15119000Y-4230300D01*
X15127100Y-4532000D02*
X15207100Y-4612000D01*
X15207100Y-4532000D02*
X15127100Y-4612000D01*
X15127100Y-4786000D02*
X15207100Y-4866000D01*
X15207100Y-4786000D02*
X15127100Y-4866000D01*
X15127100Y-5040000D02*
X15207100Y-5120000D01*
X15207100Y-5040000D02*
X15127100Y-5120000D01*
X15127100Y-5294000D02*
X15207100Y-5374000D01*
X15207100Y-5294000D02*
X15127100Y-5374000D01*
X15127100Y-5548000D02*
X15207100Y-5628000D01*
X15207100Y-5548000D02*
X15127100Y-5628000D01*
X15127100Y-5802000D02*
X15207100Y-5882000D01*
X15207100Y-5802000D02*
X15127100Y-5882000D01*
X15127100Y-6056000D02*
X15207100Y-6136000D01*
X15207100Y-6056000D02*
X15127100Y-6136000D01*
X15127100Y-6310000D02*
X15207100Y-6390000D01*
X15207100Y-6310000D02*
X15127100Y-6390000D01*
X15959400Y-2432700D02*
X16039400Y-2512700D01*
X16039400Y-2432700D02*
X15959400Y-2512700D01*
X15959400Y-2632700D02*
X16039400Y-2712700D01*
X16039400Y-2632700D02*
X15959400Y-2712700D01*
X15959400Y-4582700D02*
X16039400Y-4662700D01*
X16039400Y-4582700D02*
X15959400Y-4662700D01*
X15959400Y-4782700D02*
X16039400Y-4862700D01*
X16039400Y-4782700D02*
X15959400Y-4862700D01*
X16389000Y-2372300D02*
X16469000Y-2452300D01*
X16469000Y-2372300D02*
X16389000Y-2452300D01*
X16389000Y-2626300D02*
X16469000Y-2706300D01*
X16469000Y-2626300D02*
X16389000Y-2706300D01*
X16389000Y-2880300D02*
X16469000Y-2960300D01*
X16469000Y-2880300D02*
X16389000Y-2960300D01*
X16389000Y-3134300D02*
X16469000Y-3214300D01*
X16469000Y-3134300D02*
X16389000Y-3214300D01*
X16389000Y-3388300D02*
X16469000Y-3468300D01*
X16469000Y-3388300D02*
X16389000Y-3468300D01*
X16389000Y-3642300D02*
X16469000Y-3722300D01*
X16469000Y-3642300D02*
X16389000Y-3722300D01*
X16389000Y-3896300D02*
X16469000Y-3976300D01*
X16469000Y-3896300D02*
X16389000Y-3976300D01*
X16389000Y-4150300D02*
X16469000Y-4230300D01*
X16469000Y-4150300D02*
X16389000Y-4230300D01*
X16397100Y-4532000D02*
X16477100Y-4612000D01*
X16477100Y-4532000D02*
X16397100Y-4612000D01*
X16397100Y-4786000D02*
X16477100Y-4866000D01*
X16477100Y-4786000D02*
X16397100Y-4866000D01*
X16397100Y-5040000D02*
X16477100Y-5120000D01*
X16477100Y-5040000D02*
X16397100Y-5120000D01*
X16397100Y-5294000D02*
X16477100Y-5374000D01*
X16477100Y-5294000D02*
X16397100Y-5374000D01*
X16397100Y-5548000D02*
X16477100Y-5628000D01*
X16477100Y-5548000D02*
X16397100Y-5628000D01*
X16397100Y-5802000D02*
X16477100Y-5882000D01*
X16477100Y-5802000D02*
X16397100Y-5882000D01*
X16397100Y-6056000D02*
X16477100Y-6136000D01*
X16477100Y-6056000D02*
X16397100Y-6136000D01*
X16397100Y-6310000D02*
X16477100Y-6390000D01*
X16477100Y-6310000D02*
X16397100Y-6390000D01*
X17719420Y-2368720D02*
X17799420Y-2448720D01*
X17799420Y-2368720D02*
X17719420Y-2448720D01*
X17719420Y-2622720D02*
X17799420Y-2702720D01*
X17799420Y-2622720D02*
X17719420Y-2702720D01*
X17719420Y-2876720D02*
X17799420Y-2956720D01*
X17799420Y-2876720D02*
X17719420Y-2956720D01*
X17719420Y-3130720D02*
X17799420Y-3210720D01*
X17799420Y-3130720D02*
X17719420Y-3210720D01*
X17719420Y-3384720D02*
X17799420Y-3464720D01*
X17799420Y-3384720D02*
X17719420Y-3464720D01*
X17719420Y-3638720D02*
X17799420Y-3718720D01*
X17799420Y-3638720D02*
X17719420Y-3718720D01*
X17719420Y-3892720D02*
X17799420Y-3972720D01*
X17799420Y-3892720D02*
X17719420Y-3972720D01*
X17719420Y-4146720D02*
X17799420Y-4226720D01*
X17799420Y-4146720D02*
X17719420Y-4226720D01*
X17720420Y-4531300D02*
X17800420Y-4611300D01*
X17800420Y-4531300D02*
X17720420Y-4611300D01*
X17720420Y-4785300D02*
X17800420Y-4865300D01*
X17800420Y-4785300D02*
X17720420Y-4865300D01*
X17720420Y-5039300D02*
X17800420Y-5119300D01*
X17800420Y-5039300D02*
X17720420Y-5119300D01*
X17720420Y-5293300D02*
X17800420Y-5373300D01*
X17800420Y-5293300D02*
X17720420Y-5373300D01*
X17720420Y-5547300D02*
X17800420Y-5627300D01*
X17800420Y-5547300D02*
X17720420Y-5627300D01*
X17720420Y-5801300D02*
X17800420Y-5881300D01*
X17800420Y-5801300D02*
X17720420Y-5881300D01*
X17720420Y-6055300D02*
X17800420Y-6135300D01*
X17800420Y-6055300D02*
X17720420Y-6135300D01*
X17720420Y-6309300D02*
X17800420Y-6389300D01*
X17800420Y-6309300D02*
X17720420Y-6389300D01*
X18563620Y-2443720D02*
X18643620Y-2523720D01*
X18643620Y-2443720D02*
X18563620Y-2523720D01*
X18563620Y-2643720D02*
X18643620Y-2723720D01*
X18643620Y-2643720D02*
X18563620Y-2723720D01*
X18565620Y-4606089D02*
X18645620Y-4686089D01*
X18645620Y-4606089D02*
X18565620Y-4686089D01*
X18565620Y-4806089D02*
X18645620Y-4886089D01*
X18645620Y-4806089D02*
X18565620Y-4886089D01*
X18989420Y-2368720D02*
X19069420Y-2448720D01*
X19069420Y-2368720D02*
X18989420Y-2448720D01*
X18989420Y-2622720D02*
X19069420Y-2702720D01*
X19069420Y-2622720D02*
X18989420Y-2702720D01*
X18989420Y-2876720D02*
X19069420Y-2956720D01*
X19069420Y-2876720D02*
X18989420Y-2956720D01*
X18989420Y-3130720D02*
X19069420Y-3210720D01*
X19069420Y-3130720D02*
X18989420Y-3210720D01*
X18989420Y-3384720D02*
X19069420Y-3464720D01*
X19069420Y-3384720D02*
X18989420Y-3464720D01*
X18989420Y-3638720D02*
X19069420Y-3718720D01*
X19069420Y-3638720D02*
X18989420Y-3718720D01*
X18989420Y-3892720D02*
X19069420Y-3972720D01*
X19069420Y-3892720D02*
X18989420Y-3972720D01*
X18989420Y-4146720D02*
X19069420Y-4226720D01*
X19069420Y-4146720D02*
X18989420Y-4226720D01*
X18990420Y-4531300D02*
X19070420Y-4611300D01*
X19070420Y-4531300D02*
X18990420Y-4611300D01*
X18990420Y-4785300D02*
X19070420Y-4865300D01*
X19070420Y-4785300D02*
X18990420Y-4865300D01*
X18990420Y-5039300D02*
X19070420Y-5119300D01*
X19070420Y-5039300D02*
X18990420Y-5119300D01*
X18990420Y-5293300D02*
X19070420Y-5373300D01*
X19070420Y-5293300D02*
X18990420Y-5373300D01*
X18990420Y-5547300D02*
X19070420Y-5627300D01*
X19070420Y-5547300D02*
X18990420Y-5627300D01*
X18990420Y-5801300D02*
X19070420Y-5881300D01*
X19070420Y-5801300D02*
X18990420Y-5881300D01*
X18990420Y-6055300D02*
X19070420Y-6135300D01*
X19070420Y-6055300D02*
X18990420Y-6135300D01*
X18990420Y-6309300D02*
X19070420Y-6389300D01*
X19070420Y-6309300D02*
X18990420Y-6389300D01*
D13*
X13943800Y-2870200D02*
G75*
G03*
X13943800Y-2870200I-50000J0D01*
G01*
X14235900Y-7772400D02*
G75*
G03*
X14235900Y-7772400I-50000J0D01*
G01*
X14299400Y-10871200D02*
G75*
G03*
X14299400Y-10871200I-50000J0D01*
G01*
X14337500Y-8318500D02*
G75*
G03*
X14337500Y-8318500I-50000J0D01*
G01*
X14401000Y-7569200D02*
G75*
G03*
X14401000Y-7569200I-50000J0D01*
G01*
X14655000Y-8051800D02*
G75*
G03*
X14655000Y-8051800I-50000J0D01*
G01*
X14959800Y-9728200D02*
G75*
G03*
X14959800Y-9728200I-50000J0D01*
G01*
X14985200Y-8293100D02*
G75*
G03*
X14985200Y-8293100I-50000J0D01*
G01*
X15086800Y-7848600D02*
G75*
G03*
X15086800Y-7848600I-50000J0D01*
G01*
X15391600Y-8077200D02*
G75*
G03*
X15391600Y-8077200I-50000J0D01*
G01*
X15645600Y-9702800D02*
G75*
G03*
X15645600Y-9702800I-50000J0D01*
G01*
X15772600Y-8305800D02*
G75*
G03*
X15772600Y-8305800I-50000J0D01*
G01*
X16306000Y-8813800D02*
G75*
G03*
X16306000Y-8813800I-50000J0D01*
G01*
X16306000Y-9702800D02*
G75*
G03*
X16306000Y-9702800I-50000J0D01*
G01*
X16407600Y-10414000D02*
G75*
G03*
X16407600Y-10414000I-50000J0D01*
G01*
X16610800Y-9118600D02*
G75*
G03*
X16610800Y-9118600I-50000J0D01*
G01*
X16687000Y-10718800D02*
G75*
G03*
X16687000Y-10718800I-50000J0D01*
G01*
X16839400Y-7569200D02*
G75*
G03*
X16839400Y-7569200I-50000J0D01*
G01*
X16915600Y-2590800D02*
G75*
G03*
X16915600Y-2590800I-50000J0D01*
G01*
X16941000Y-9448800D02*
G75*
G03*
X16941000Y-9448800I-50000J0D01*
G01*
X16966400Y-11049000D02*
G75*
G03*
X16966400Y-11049000I-50000J0D01*
G01*
X17195000Y-2387600D02*
G75*
G03*
X17195000Y-2387600I-50000J0D01*
G01*
X17220400Y-7797800D02*
G75*
G03*
X17220400Y-7797800I-50000J0D01*
G01*
X17296600Y-9804400D02*
G75*
G03*
X17296600Y-9804400I-50000J0D01*
G01*
X17322000Y-8128000D02*
G75*
G03*
X17322000Y-8128000I-50000J0D01*
G01*
X17398200Y-10287000D02*
G75*
G03*
X17398200Y-10287000I-50000J0D01*
G01*
X17423600Y-10947400D02*
G75*
G03*
X17423600Y-10947400I-50000J0D01*
G01*
X17499800Y-11188700D02*
G75*
G03*
X17499800Y-11188700I-50000J0D01*
G01*
X17652200Y-8001000D02*
G75*
G03*
X17652200Y-8001000I-50000J0D01*
G01*
X17652200Y-8331200D02*
G75*
G03*
X17652200Y-8331200I-50000J0D01*
G01*
X17779200Y-7683500D02*
G75*
G03*
X17779200Y-7683500I-50000J0D01*
G01*
X17830000Y-10909300D02*
G75*
G03*
X17830000Y-10909300I-50000J0D01*
G01*
X17982400Y-8064500D02*
G75*
G03*
X17982400Y-8064500I-50000J0D01*
G01*
X17982400Y-8394700D02*
G75*
G03*
X17982400Y-8394700I-50000J0D01*
G01*
X17982400Y-8750300D02*
G75*
G03*
X17982400Y-8750300I-50000J0D01*
G01*
X18109400Y-7683500D02*
G75*
G03*
X18109400Y-7683500I-50000J0D01*
G01*
X18109400Y-10960100D02*
G75*
G03*
X18109400Y-10960100I-50000J0D01*
G01*
X18693600Y-5308600D02*
G75*
G03*
X18693600Y-5308600I-50000J0D01*
G01*
X18795200Y-5765800D02*
G75*
G03*
X18795200Y-5765800I-50000J0D01*
G01*
X13325000Y-7074000D02*
X13325000Y-7174000D01*
X13275000Y-7124000D02*
X13375000Y-7124000D01*
X13325000Y-7328000D02*
X13325000Y-7428000D01*
X13275000Y-7378000D02*
X13375000Y-7378000D01*
X13325000Y-7582000D02*
X13325000Y-7682000D01*
X13275000Y-7632000D02*
X13375000Y-7632000D01*
X13325000Y-7836000D02*
X13325000Y-7936000D01*
X13275000Y-7886000D02*
X13375000Y-7886000D01*
X13325000Y-8090000D02*
X13325000Y-8190000D01*
X13275000Y-8140000D02*
X13375000Y-8140000D01*
X13325000Y-8344000D02*
X13325000Y-8444000D01*
X13275000Y-8394000D02*
X13375000Y-8394000D01*
X13325000Y-8598000D02*
X13325000Y-8698000D01*
X13275000Y-8648000D02*
X13375000Y-8648000D01*
X13325000Y-8852000D02*
X13325000Y-8952000D01*
X13275000Y-8902000D02*
X13375000Y-8902000D01*
X13325000Y-9106000D02*
X13325000Y-9206000D01*
X13275000Y-9156000D02*
X13375000Y-9156000D01*
X13325000Y-9360000D02*
X13325000Y-9460000D01*
X13275000Y-9410000D02*
X13375000Y-9410000D01*
X13325000Y-9614000D02*
X13325000Y-9714000D01*
X13275000Y-9664000D02*
X13375000Y-9664000D01*
X13325000Y-9868000D02*
X13325000Y-9968000D01*
X13275000Y-9918000D02*
X13375000Y-9918000D01*
X13325000Y-10122000D02*
X13325000Y-10222000D01*
X13275000Y-10172000D02*
X13375000Y-10172000D01*
X13325000Y-10376000D02*
X13325000Y-10476000D01*
X13275000Y-10426000D02*
X13375000Y-10426000D01*
X13325000Y-10630000D02*
X13325000Y-10730000D01*
X13275000Y-10680000D02*
X13375000Y-10680000D01*
X13325000Y-10884000D02*
X13325000Y-10984000D01*
X13275000Y-10934000D02*
X13375000Y-10934000D01*
X13325000Y-11138000D02*
X13325000Y-11238000D01*
X13275000Y-11188000D02*
X13375000Y-11188000D01*
X13325000Y-11392000D02*
X13325000Y-11492000D01*
X13275000Y-11442000D02*
X13375000Y-11442000D01*
X13325000Y-11646000D02*
X13325000Y-11746000D01*
X13275000Y-11696000D02*
X13375000Y-11696000D01*
X13334500Y-6640360D02*
X13334500Y-6740360D01*
X13284500Y-6690360D02*
X13384500Y-6690360D01*
X13474432Y-3568000D02*
X13474432Y-3668000D01*
X13424432Y-3618000D02*
X13524432Y-3618000D01*
X13579000Y-7074000D02*
X13579000Y-7174000D01*
X13529000Y-7124000D02*
X13629000Y-7124000D01*
X13579000Y-7328000D02*
X13579000Y-7428000D01*
X13529000Y-7378000D02*
X13629000Y-7378000D01*
X13579000Y-7582000D02*
X13579000Y-7682000D01*
X13529000Y-7632000D02*
X13629000Y-7632000D01*
X13579000Y-7836000D02*
X13579000Y-7936000D01*
X13529000Y-7886000D02*
X13629000Y-7886000D01*
X13579000Y-8090000D02*
X13579000Y-8190000D01*
X13529000Y-8140000D02*
X13629000Y-8140000D01*
X13579000Y-8344000D02*
X13579000Y-8444000D01*
X13529000Y-8394000D02*
X13629000Y-8394000D01*
X13579000Y-8598000D02*
X13579000Y-8698000D01*
X13529000Y-8648000D02*
X13629000Y-8648000D01*
X13579000Y-8852000D02*
X13579000Y-8952000D01*
X13529000Y-8902000D02*
X13629000Y-8902000D01*
X13579000Y-9106000D02*
X13579000Y-9206000D01*
X13529000Y-9156000D02*
X13629000Y-9156000D01*
X13579000Y-9360000D02*
X13579000Y-9460000D01*
X13529000Y-9410000D02*
X13629000Y-9410000D01*
X13579000Y-9614000D02*
X13579000Y-9714000D01*
X13529000Y-9664000D02*
X13629000Y-9664000D01*
X13579000Y-9868000D02*
X13579000Y-9968000D01*
X13529000Y-9918000D02*
X13629000Y-9918000D01*
X13579000Y-10122000D02*
X13579000Y-10222000D01*
X13529000Y-10172000D02*
X13629000Y-10172000D01*
X13579000Y-10376000D02*
X13579000Y-10476000D01*
X13529000Y-10426000D02*
X13629000Y-10426000D01*
X13579000Y-10630000D02*
X13579000Y-10730000D01*
X13529000Y-10680000D02*
X13629000Y-10680000D01*
X13579000Y-10884000D02*
X13579000Y-10984000D01*
X13529000Y-10934000D02*
X13629000Y-10934000D01*
X13579000Y-11138000D02*
X13579000Y-11238000D01*
X13529000Y-11188000D02*
X13629000Y-11188000D01*
X13579000Y-11392000D02*
X13579000Y-11492000D01*
X13529000Y-11442000D02*
X13629000Y-11442000D01*
X13579000Y-11646000D02*
X13579000Y-11746000D01*
X13529000Y-11696000D02*
X13629000Y-11696000D01*
X13588500Y-6640360D02*
X13588500Y-6740360D01*
X13538500Y-6690360D02*
X13638500Y-6690360D01*
X13974432Y-3568000D02*
X13974432Y-3668000D01*
X13924432Y-3618000D02*
X14024432Y-3618000D01*
X14016000Y-11390000D02*
X14016000Y-11490000D01*
X13966000Y-11440000D02*
X14066000Y-11440000D01*
X14016000Y-11644000D02*
X14016000Y-11744000D01*
X13966000Y-11694000D02*
X14066000Y-11694000D01*
X14270000Y-11390000D02*
X14270000Y-11490000D01*
X14220000Y-11440000D02*
X14320000Y-11440000D01*
X14270000Y-11644000D02*
X14270000Y-11744000D01*
X14220000Y-11694000D02*
X14320000Y-11694000D01*
X14524000Y-11390000D02*
X14524000Y-11490000D01*
X14474000Y-11440000D02*
X14574000Y-11440000D01*
X14524000Y-11644000D02*
X14524000Y-11744000D01*
X14474000Y-11694000D02*
X14574000Y-11694000D01*
X14778000Y-11390000D02*
X14778000Y-11490000D01*
X14728000Y-11440000D02*
X14828000Y-11440000D01*
X14778000Y-11644000D02*
X14778000Y-11744000D01*
X14728000Y-11694000D02*
X14828000Y-11694000D01*
X15032000Y-11390000D02*
X15032000Y-11490000D01*
X14982000Y-11440000D02*
X15082000Y-11440000D01*
X15032000Y-11644000D02*
X15032000Y-11744000D01*
X14982000Y-11694000D02*
X15082000Y-11694000D01*
X15476500Y-11390000D02*
X15476500Y-11490000D01*
X15426500Y-11440000D02*
X15526500Y-11440000D01*
X15476500Y-11644000D02*
X15476500Y-11744000D01*
X15426500Y-11694000D02*
X15526500Y-11694000D01*
X15497300Y-2426300D02*
X15497300Y-2526300D01*
X15447300Y-2476300D02*
X15547300Y-2476300D01*
X15497300Y-2680300D02*
X15497300Y-2780300D01*
X15447300Y-2730300D02*
X15547300Y-2730300D01*
X15497300Y-3124800D02*
X15497300Y-3224800D01*
X15447300Y-3174800D02*
X15547300Y-3174800D01*
X15497300Y-3378800D02*
X15497300Y-3478800D01*
X15447300Y-3428800D02*
X15547300Y-3428800D01*
X15497300Y-3810600D02*
X15497300Y-3910600D01*
X15447300Y-3860600D02*
X15547300Y-3860600D01*
X15497300Y-4064600D02*
X15497300Y-4164600D01*
X15447300Y-4114600D02*
X15547300Y-4114600D01*
X15497300Y-4585500D02*
X15497300Y-4685500D01*
X15447300Y-4635500D02*
X15547300Y-4635500D01*
X15497300Y-4839500D02*
X15497300Y-4939500D01*
X15447300Y-4889500D02*
X15547300Y-4889500D01*
X15497300Y-5245900D02*
X15497300Y-5345900D01*
X15447300Y-5295900D02*
X15547300Y-5295900D01*
X15497300Y-5499900D02*
X15497300Y-5599900D01*
X15447300Y-5549900D02*
X15547300Y-5549900D01*
X15497300Y-5919500D02*
X15497300Y-6019500D01*
X15447300Y-5969500D02*
X15547300Y-5969500D01*
X15497300Y-6173500D02*
X15497300Y-6273500D01*
X15447300Y-6223500D02*
X15547300Y-6223500D01*
X15730500Y-11390000D02*
X15730500Y-11490000D01*
X15680500Y-11440000D02*
X15780500Y-11440000D01*
X15730500Y-11644000D02*
X15730500Y-11744000D01*
X15680500Y-11694000D02*
X15780500Y-11694000D01*
X15984500Y-11390000D02*
X15984500Y-11490000D01*
X15934500Y-11440000D02*
X16034500Y-11440000D01*
X15984500Y-11644000D02*
X15984500Y-11744000D01*
X15934500Y-11694000D02*
X16034500Y-11694000D01*
X16238500Y-11390000D02*
X16238500Y-11490000D01*
X16188500Y-11440000D02*
X16288500Y-11440000D01*
X16238500Y-11644000D02*
X16238500Y-11744000D01*
X16188500Y-11694000D02*
X16288500Y-11694000D01*
X16492500Y-11390000D02*
X16492500Y-11490000D01*
X16442500Y-11440000D02*
X16542500Y-11440000D01*
X16492500Y-11644000D02*
X16492500Y-11744000D01*
X16442500Y-11694000D02*
X16542500Y-11694000D01*
X18100320Y-2435620D02*
X18100320Y-2535620D01*
X18050320Y-2485620D02*
X18150320Y-2485620D01*
X18100320Y-2689620D02*
X18100320Y-2789620D01*
X18050320Y-2739620D02*
X18150320Y-2739620D01*
X18100320Y-3109220D02*
X18100320Y-3209220D01*
X18050320Y-3159220D02*
X18150320Y-3159220D01*
X18100320Y-3363220D02*
X18100320Y-3463220D01*
X18050320Y-3413220D02*
X18150320Y-3413220D01*
X18100320Y-3807720D02*
X18100320Y-3907720D01*
X18050320Y-3857720D02*
X18150320Y-3857720D01*
X18100320Y-4061720D02*
X18100320Y-4161720D01*
X18050320Y-4111720D02*
X18150320Y-4111720D01*
X18102320Y-4585300D02*
X18102320Y-4685300D01*
X18052320Y-4635300D02*
X18152320Y-4635300D01*
X18102320Y-4839300D02*
X18102320Y-4939300D01*
X18052320Y-4889300D02*
X18152320Y-4889300D01*
X18102320Y-5233000D02*
X18102320Y-5333000D01*
X18052320Y-5283000D02*
X18152320Y-5283000D01*
X18102320Y-5487000D02*
X18102320Y-5587000D01*
X18052320Y-5537000D02*
X18152320Y-5537000D01*
X18102320Y-5880700D02*
X18102320Y-5980700D01*
X18052320Y-5930700D02*
X18152320Y-5930700D01*
X18102320Y-6134700D02*
X18102320Y-6234700D01*
X18052320Y-6184700D02*
X18152320Y-6184700D01*
X18783300Y-7976900D02*
X18783300Y-8076900D01*
X18733300Y-8026900D02*
X18833300Y-8026900D01*
X18783300Y-8230900D02*
X18783300Y-8330900D01*
X18733300Y-8280900D02*
X18833300Y-8280900D01*
X18796000Y-8725700D02*
X18796000Y-8825700D01*
X18746000Y-8775700D02*
X18846000Y-8775700D01*
X18796000Y-8979700D02*
X18796000Y-9079700D01*
X18746000Y-9029700D02*
X18846000Y-9029700D01*
X19421000Y-7074000D02*
X19421000Y-7174000D01*
X19371000Y-7124000D02*
X19471000Y-7124000D01*
X19421000Y-7328000D02*
X19421000Y-7428000D01*
X19371000Y-7378000D02*
X19471000Y-7378000D01*
X19421000Y-7582000D02*
X19421000Y-7682000D01*
X19371000Y-7632000D02*
X19471000Y-7632000D01*
X19421000Y-7836000D02*
X19421000Y-7936000D01*
X19371000Y-7886000D02*
X19471000Y-7886000D01*
X19421000Y-8090000D02*
X19421000Y-8190000D01*
X19371000Y-8140000D02*
X19471000Y-8140000D01*
X19421000Y-8344000D02*
X19421000Y-8444000D01*
X19371000Y-8394000D02*
X19471000Y-8394000D01*
X19421000Y-8598000D02*
X19421000Y-8698000D01*
X19371000Y-8648000D02*
X19471000Y-8648000D01*
X19421000Y-8852000D02*
X19421000Y-8952000D01*
X19371000Y-8902000D02*
X19471000Y-8902000D01*
X19421000Y-9106000D02*
X19421000Y-9206000D01*
X19371000Y-9156000D02*
X19471000Y-9156000D01*
X19421000Y-9360000D02*
X19421000Y-9460000D01*
X19371000Y-9410000D02*
X19471000Y-9410000D01*
X19421000Y-9614000D02*
X19421000Y-9714000D01*
X19371000Y-9664000D02*
X19471000Y-9664000D01*
X19421000Y-9868000D02*
X19421000Y-9968000D01*
X19371000Y-9918000D02*
X19471000Y-9918000D01*
X19421000Y-10122000D02*
X19421000Y-10222000D01*
X19371000Y-10172000D02*
X19471000Y-10172000D01*
X19421000Y-10376000D02*
X19421000Y-10476000D01*
X19371000Y-10426000D02*
X19471000Y-10426000D01*
X19421000Y-10630000D02*
X19421000Y-10730000D01*
X19371000Y-10680000D02*
X19471000Y-10680000D01*
X19421000Y-10884000D02*
X19421000Y-10984000D01*
X19371000Y-10934000D02*
X19471000Y-10934000D01*
X19421000Y-11138000D02*
X19421000Y-11238000D01*
X19371000Y-11188000D02*
X19471000Y-11188000D01*
X19421000Y-11392000D02*
X19421000Y-11492000D01*
X19371000Y-11442000D02*
X19471000Y-11442000D01*
X19421000Y-11646000D02*
X19421000Y-11746000D01*
X19371000Y-11696000D02*
X19471000Y-11696000D01*
X19675000Y-7074000D02*
X19675000Y-7174000D01*
X19625000Y-7124000D02*
X19725000Y-7124000D01*
X19675000Y-7328000D02*
X19675000Y-7428000D01*
X19625000Y-7378000D02*
X19725000Y-7378000D01*
X19675000Y-7582000D02*
X19675000Y-7682000D01*
X19625000Y-7632000D02*
X19725000Y-7632000D01*
X19675000Y-7836000D02*
X19675000Y-7936000D01*
X19625000Y-7886000D02*
X19725000Y-7886000D01*
X19675000Y-8090000D02*
X19675000Y-8190000D01*
X19625000Y-8140000D02*
X19725000Y-8140000D01*
X19675000Y-8344000D02*
X19675000Y-8444000D01*
X19625000Y-8394000D02*
X19725000Y-8394000D01*
X19675000Y-8598000D02*
X19675000Y-8698000D01*
X19625000Y-8648000D02*
X19725000Y-8648000D01*
X19675000Y-8852000D02*
X19675000Y-8952000D01*
X19625000Y-8902000D02*
X19725000Y-8902000D01*
X19675000Y-9106000D02*
X19675000Y-9206000D01*
X19625000Y-9156000D02*
X19725000Y-9156000D01*
X19675000Y-9360000D02*
X19675000Y-9460000D01*
X19625000Y-9410000D02*
X19725000Y-9410000D01*
X19675000Y-9614000D02*
X19675000Y-9714000D01*
X19625000Y-9664000D02*
X19725000Y-9664000D01*
X19675000Y-9868000D02*
X19675000Y-9968000D01*
X19625000Y-9918000D02*
X19725000Y-9918000D01*
X19675000Y-10122000D02*
X19675000Y-10222000D01*
X19625000Y-10172000D02*
X19725000Y-10172000D01*
X19675000Y-10376000D02*
X19675000Y-10476000D01*
X19625000Y-10426000D02*
X19725000Y-10426000D01*
X19675000Y-10630000D02*
X19675000Y-10730000D01*
X19625000Y-10680000D02*
X19725000Y-10680000D01*
X19675000Y-10884000D02*
X19675000Y-10984000D01*
X19625000Y-10934000D02*
X19725000Y-10934000D01*
X19675000Y-11138000D02*
X19675000Y-11238000D01*
X19625000Y-11188000D02*
X19725000Y-11188000D01*
X19675000Y-11392000D02*
X19675000Y-11492000D01*
X19625000Y-11442000D02*
X19725000Y-11442000D01*
X19675000Y-11646000D02*
X19675000Y-11746000D01*
X19625000Y-11696000D02*
X19725000Y-11696000D01*
D14*
X14410491Y-4400891D02*
X14410491Y-4323109D01*
X14332709Y-4323109D01*
X14332709Y-4400891D01*
X14410491Y-4400891D01*
X14410491Y-4654891D02*
X14410491Y-4577109D01*
X14332709Y-4577109D01*
X14332709Y-4654891D01*
X14410491Y-4654891D01*
X14410491Y-4908891D02*
X14410491Y-4831109D01*
X14332709Y-4831109D01*
X14332709Y-4908891D01*
X14410491Y-4908891D01*
X14410491Y-5779291D02*
X14410491Y-5701509D01*
X14332709Y-5701509D01*
X14332709Y-5779291D01*
X14410491Y-5779291D01*
X14410491Y-6033291D02*
X14410491Y-5955509D01*
X14332709Y-5955509D01*
X14332709Y-6033291D01*
X14410491Y-6033291D01*
X14410491Y-6287291D02*
X14410491Y-6209509D01*
X14332709Y-6209509D01*
X14332709Y-6287291D01*
X14410491Y-6287291D01*
D15*
X14162500Y-8707500D02*
X14222000Y-8648000D01*
X14162500Y-8588500D01*
X14103000Y-8648000D01*
X14162500Y-8707500D01*
X14162500Y-8961500D02*
X14222000Y-8902000D01*
X14162500Y-8842500D01*
X14103000Y-8902000D01*
X14162500Y-8961500D01*
X14162500Y-9215500D02*
X14222000Y-9156000D01*
X14162500Y-9096500D01*
X14103000Y-9156000D01*
X14162500Y-9215500D01*
X14936200Y-8707500D02*
X14995700Y-8648000D01*
X14936200Y-8588500D01*
X14876700Y-8648000D01*
X14936200Y-8707500D01*
X14936200Y-8961500D02*
X14995700Y-8902000D01*
X14936200Y-8842500D01*
X14876700Y-8902000D01*
X14936200Y-8961500D01*
X14936200Y-9215500D02*
X14995700Y-9156000D01*
X14936200Y-9096500D01*
X14876700Y-9156000D01*
X14936200Y-9215500D01*
X15722600Y-8707500D02*
X15782100Y-8648000D01*
X15722600Y-8588500D01*
X15663100Y-8648000D01*
X15722600Y-8707500D01*
X15722600Y-8961500D02*
X15782100Y-8902000D01*
X15722600Y-8842500D01*
X15663100Y-8902000D01*
X15722600Y-8961500D01*
X15722600Y-9215500D02*
X15782100Y-9156000D01*
X15722600Y-9096500D01*
X15663100Y-9156000D01*
X15722600Y-9215500D01*
X16990800Y-2976920D02*
X17050300Y-2917420D01*
X16990800Y-2857920D01*
X16931300Y-2917420D01*
X16990800Y-2976920D01*
X16990800Y-3230920D02*
X17050300Y-3171420D01*
X16990800Y-3111920D01*
X16931300Y-3171420D01*
X16990800Y-3230920D01*
X16990800Y-3484920D02*
X17050300Y-3425420D01*
X16990800Y-3365920D01*
X16931300Y-3425420D01*
X16990800Y-3484920D01*
X16990800Y-3738920D02*
X17050300Y-3679420D01*
X16990800Y-3619920D01*
X16931300Y-3679420D01*
X16990800Y-3738920D01*
X16990800Y-5138800D02*
X17050300Y-5079300D01*
X16990800Y-5019800D01*
X16931300Y-5079300D01*
X16990800Y-5138800D01*
X16990800Y-5392800D02*
X17050300Y-5333300D01*
X16990800Y-5273800D01*
X16931300Y-5333300D01*
X16990800Y-5392800D01*
X16990800Y-5646800D02*
X17050300Y-5587300D01*
X16990800Y-5527800D01*
X16931300Y-5587300D01*
X16990800Y-5646800D01*
X16990800Y-5900800D02*
X17050300Y-5841300D01*
X16990800Y-5781800D01*
X16931300Y-5841300D01*
X16990800Y-5900800D01*
X19558000Y-2472500D02*
X19617500Y-2413000D01*
X19558000Y-2353500D01*
X19498500Y-2413000D01*
X19558000Y-2472500D01*
X19558000Y-2726500D02*
X19617500Y-2667000D01*
X19558000Y-2607500D01*
X19498500Y-2667000D01*
X19558000Y-2726500D01*
X19558000Y-3107500D02*
X19617500Y-3048000D01*
X19558000Y-2988500D01*
X19498500Y-3048000D01*
X19558000Y-3107500D01*
X19558000Y-3361500D02*
X19617500Y-3302000D01*
X19558000Y-3242500D01*
X19498500Y-3302000D01*
X19558000Y-3361500D01*
X19558000Y-3615500D02*
X19617500Y-3556000D01*
X19558000Y-3496500D01*
X19498500Y-3556000D01*
X19558000Y-3615500D01*
X19558000Y-3869500D02*
X19617500Y-3810000D01*
X19558000Y-3750500D01*
X19498500Y-3810000D01*
X19558000Y-3869500D01*
X19558000Y-4656900D02*
X19617500Y-4597400D01*
X19558000Y-4537900D01*
X19498500Y-4597400D01*
X19558000Y-4656900D01*
X19558000Y-4910900D02*
X19617500Y-4851400D01*
X19558000Y-4791900D01*
X19498500Y-4851400D01*
X19558000Y-4910900D01*
X19560000Y-5291900D02*
X19619500Y-5232400D01*
X19560000Y-5172900D01*
X19500500Y-5232400D01*
X19560000Y-5291900D01*
X19560000Y-5545900D02*
X19619500Y-5486400D01*
X19560000Y-5426900D01*
X19500500Y-5486400D01*
X19560000Y-5545900D01*
X19560000Y-5799900D02*
X19619500Y-5740400D01*
X19560000Y-5680900D01*
X19500500Y-5740400D01*
X19560000Y-5799900D01*
X19560000Y-6053900D02*
X19619500Y-5994400D01*
X19560000Y-5934900D01*
X19500500Y-5994400D01*
X19560000Y-6053900D01*
D16*
X13410880Y-2505500D02*
X13540420Y-2635040D01*
X13540420Y-2505500D02*
X13410880Y-2635040D01*
X13540420Y-2570270D02*
G75*
G03*
X13540420Y-2570270I-64770J0D01*
G01*
X13471400Y-4469880D02*
X13600940Y-4599420D01*
X13600940Y-4469880D02*
X13471400Y-4599420D01*
X13600940Y-4534650D02*
G75*
G03*
X13600940Y-4534650I-64770J0D01*
G01*
X13471400Y-4969880D02*
X13600940Y-5099420D01*
X13600940Y-4969880D02*
X13471400Y-5099420D01*
X13600940Y-5034650D02*
G75*
G03*
X13600940Y-5034650I-64770J0D01*
G01*
X13471400Y-5593230D02*
X13600940Y-5722770D01*
X13600940Y-5593230D02*
X13471400Y-5722770D01*
X13600940Y-5658000D02*
G75*
G03*
X13600940Y-5658000I-64770J0D01*
G01*
X13471400Y-6093230D02*
X13600940Y-6222770D01*
X13600940Y-6093230D02*
X13471400Y-6222770D01*
X13600940Y-6158000D02*
G75*
G03*
X13600940Y-6158000I-64770J0D01*
G01*
X13910880Y-2505500D02*
X14040420Y-2635040D01*
X14040420Y-2505500D02*
X13910880Y-2635040D01*
X14040420Y-2570270D02*
G75*
G03*
X14040420Y-2570270I-64770J0D01*
G01*
D11*
X13250119Y-12517976D02*
X13250119Y-12317976D01*
X13297738Y-12317976D01*
X13326309Y-12327500D01*
X13345357Y-12346548D01*
X13354881Y-12365595D01*
X13364405Y-12403690D01*
X13364405Y-12432262D01*
X13354881Y-12470357D01*
X13345357Y-12489405D01*
X13326309Y-12508452D01*
X13297738Y-12517976D01*
X13250119Y-12517976D01*
X13450119Y-12517976D02*
X13450119Y-12384643D01*
X13450119Y-12422738D02*
X13459643Y-12403690D01*
X13469167Y-12394167D01*
X13488214Y-12384643D01*
X13507262Y-12384643D01*
X13573928Y-12517976D02*
X13573928Y-12384643D01*
X13573928Y-12317976D02*
X13564405Y-12327500D01*
X13573928Y-12337024D01*
X13583452Y-12327500D01*
X13573928Y-12317976D01*
X13573928Y-12337024D01*
X13697738Y-12517976D02*
X13678690Y-12508452D01*
X13669167Y-12489405D01*
X13669167Y-12317976D01*
X13802500Y-12517976D02*
X13783452Y-12508452D01*
X13773928Y-12489405D01*
X13773928Y-12317976D01*
X14031071Y-12517976D02*
X14031071Y-12317976D01*
X14097738Y-12460833D01*
X14164405Y-12317976D01*
X14164405Y-12517976D01*
X14345357Y-12517976D02*
X14345357Y-12413214D01*
X14335833Y-12394167D01*
X14316786Y-12384643D01*
X14278690Y-12384643D01*
X14259643Y-12394167D01*
X14345357Y-12508452D02*
X14326309Y-12517976D01*
X14278690Y-12517976D01*
X14259643Y-12508452D01*
X14250119Y-12489405D01*
X14250119Y-12470357D01*
X14259643Y-12451309D01*
X14278690Y-12441786D01*
X14326309Y-12441786D01*
X14345357Y-12432262D01*
X14440595Y-12384643D02*
X14440595Y-12584643D01*
X14440595Y-12394167D02*
X14459643Y-12384643D01*
X14497738Y-12384643D01*
X14516786Y-12394167D01*
X14526309Y-12403690D01*
X14535833Y-12422738D01*
X14535833Y-12479881D01*
X14526309Y-12498928D01*
X14516786Y-12508452D01*
X14497738Y-12517976D01*
X14459643Y-12517976D01*
X14440595Y-12508452D01*
X14621548Y-12498928D02*
X14631071Y-12508452D01*
X14621548Y-12517976D01*
X14612024Y-12508452D01*
X14621548Y-12498928D01*
X14621548Y-12517976D01*
X14621548Y-12394167D02*
X14631071Y-12403690D01*
X14621548Y-12413214D01*
X14612024Y-12403690D01*
X14621548Y-12394167D01*
X14621548Y-12413214D01*
D12*
X12912500Y-12807500D02*
X12992500Y-12887500D01*
X12992500Y-12807500D02*
X12912500Y-12887500D01*
D11*
X13288214Y-12737976D02*
X13307262Y-12737976D01*
X13326309Y-12747500D01*
X13335833Y-12757024D01*
X13345357Y-12776071D01*
X13354881Y-12814167D01*
X13354881Y-12861786D01*
X13345357Y-12899881D01*
X13335833Y-12918928D01*
X13326309Y-12928452D01*
X13307262Y-12937976D01*
X13288214Y-12937976D01*
X13269167Y-12928452D01*
X13259643Y-12918928D01*
X13250119Y-12899881D01*
X13240595Y-12861786D01*
X13240595Y-12814167D01*
X13250119Y-12776071D01*
X13259643Y-12757024D01*
X13269167Y-12747500D01*
X13288214Y-12737976D01*
X13440595Y-12918928D02*
X13450119Y-12928452D01*
X13440595Y-12937976D01*
X13431071Y-12928452D01*
X13440595Y-12918928D01*
X13440595Y-12937976D01*
X13564405Y-12823690D02*
X13545357Y-12814167D01*
X13535833Y-12804643D01*
X13526309Y-12785595D01*
X13526309Y-12776071D01*
X13535833Y-12757024D01*
X13545357Y-12747500D01*
X13564405Y-12737976D01*
X13602500Y-12737976D01*
X13621548Y-12747500D01*
X13631071Y-12757024D01*
X13640595Y-12776071D01*
X13640595Y-12785595D01*
X13631071Y-12804643D01*
X13621548Y-12814167D01*
X13602500Y-12823690D01*
X13564405Y-12823690D01*
X13545357Y-12833214D01*
X13535833Y-12842738D01*
X13526309Y-12861786D01*
X13526309Y-12899881D01*
X13535833Y-12918928D01*
X13545357Y-12928452D01*
X13564405Y-12937976D01*
X13602500Y-12937976D01*
X13621548Y-12928452D01*
X13631071Y-12918928D01*
X13640595Y-12899881D01*
X13640595Y-12861786D01*
X13631071Y-12842738D01*
X13621548Y-12833214D01*
X13602500Y-12823690D01*
X13764405Y-12737976D02*
X13783452Y-12737976D01*
X13802500Y-12747500D01*
X13812024Y-12757024D01*
X13821548Y-12776071D01*
X13831071Y-12814167D01*
X13831071Y-12861786D01*
X13821548Y-12899881D01*
X13812024Y-12918928D01*
X13802500Y-12928452D01*
X13783452Y-12937976D01*
X13764405Y-12937976D01*
X13745357Y-12928452D01*
X13735833Y-12918928D01*
X13726309Y-12899881D01*
X13716786Y-12861786D01*
X13716786Y-12814167D01*
X13726309Y-12776071D01*
X13735833Y-12757024D01*
X13745357Y-12747500D01*
X13764405Y-12737976D01*
X13954881Y-12737976D02*
X13973928Y-12737976D01*
X13992976Y-12747500D01*
X14002500Y-12757024D01*
X14012024Y-12776071D01*
X14021548Y-12814167D01*
X14021548Y-12861786D01*
X14012024Y-12899881D01*
X14002500Y-12918928D01*
X13992976Y-12928452D01*
X13973928Y-12937976D01*
X13954881Y-12937976D01*
X13935833Y-12928452D01*
X13926309Y-12918928D01*
X13916786Y-12899881D01*
X13907262Y-12861786D01*
X13907262Y-12814167D01*
X13916786Y-12776071D01*
X13926309Y-12757024D01*
X13935833Y-12747500D01*
X13954881Y-12737976D01*
X14107262Y-12937976D02*
X14107262Y-12804643D01*
X14107262Y-12823690D02*
X14116786Y-12814167D01*
X14135833Y-12804643D01*
X14164405Y-12804643D01*
X14183452Y-12814167D01*
X14192976Y-12833214D01*
X14192976Y-12937976D01*
X14192976Y-12833214D02*
X14202500Y-12814167D01*
X14221548Y-12804643D01*
X14250119Y-12804643D01*
X14269167Y-12814167D01*
X14278690Y-12833214D01*
X14278690Y-12937976D01*
X14373928Y-12937976D02*
X14373928Y-12804643D01*
X14373928Y-12823690D02*
X14383452Y-12814167D01*
X14402500Y-12804643D01*
X14431071Y-12804643D01*
X14450119Y-12814167D01*
X14459643Y-12833214D01*
X14459643Y-12937976D01*
X14459643Y-12833214D02*
X14469167Y-12814167D01*
X14488214Y-12804643D01*
X14516786Y-12804643D01*
X14535833Y-12814167D01*
X14545357Y-12833214D01*
X14545357Y-12937976D01*
X14935833Y-12728452D02*
X14764405Y-12985595D01*
X15192976Y-12737976D02*
X15212024Y-12737976D01*
X15231071Y-12747500D01*
X15240595Y-12757024D01*
X15250119Y-12776071D01*
X15259643Y-12814167D01*
X15259643Y-12861786D01*
X15250119Y-12899881D01*
X15240595Y-12918928D01*
X15231071Y-12928452D01*
X15212024Y-12937976D01*
X15192976Y-12937976D01*
X15173928Y-12928452D01*
X15164405Y-12918928D01*
X15154881Y-12899881D01*
X15145357Y-12861786D01*
X15145357Y-12814167D01*
X15154881Y-12776071D01*
X15164405Y-12757024D01*
X15173928Y-12747500D01*
X15192976Y-12737976D01*
X15345357Y-12918928D02*
X15354881Y-12928452D01*
X15345357Y-12937976D01*
X15335833Y-12928452D01*
X15345357Y-12918928D01*
X15345357Y-12937976D01*
X15478690Y-12737976D02*
X15497738Y-12737976D01*
X15516786Y-12747500D01*
X15526309Y-12757024D01*
X15535833Y-12776071D01*
X15545357Y-12814167D01*
X15545357Y-12861786D01*
X15535833Y-12899881D01*
X15526309Y-12918928D01*
X15516786Y-12928452D01*
X15497738Y-12937976D01*
X15478690Y-12937976D01*
X15459643Y-12928452D01*
X15450119Y-12918928D01*
X15440595Y-12899881D01*
X15431071Y-12861786D01*
X15431071Y-12814167D01*
X15440595Y-12776071D01*
X15450119Y-12757024D01*
X15459643Y-12747500D01*
X15478690Y-12737976D01*
X15612024Y-12737976D02*
X15735833Y-12737976D01*
X15669167Y-12814167D01*
X15697738Y-12814167D01*
X15716786Y-12823690D01*
X15726309Y-12833214D01*
X15735833Y-12852262D01*
X15735833Y-12899881D01*
X15726309Y-12918928D01*
X15716786Y-12928452D01*
X15697738Y-12937976D01*
X15640595Y-12937976D01*
X15621548Y-12928452D01*
X15612024Y-12918928D01*
X15926309Y-12937976D02*
X15812024Y-12937976D01*
X15869167Y-12937976D02*
X15869167Y-12737976D01*
X15850119Y-12766548D01*
X15831071Y-12785595D01*
X15812024Y-12795119D01*
X16107262Y-12737976D02*
X16012024Y-12737976D01*
X16002500Y-12833214D01*
X16012024Y-12823690D01*
X16031071Y-12814167D01*
X16078690Y-12814167D01*
X16097738Y-12823690D01*
X16107262Y-12833214D01*
X16116786Y-12852262D01*
X16116786Y-12899881D01*
X16107262Y-12918928D01*
X16097738Y-12928452D01*
X16078690Y-12937976D01*
X16031071Y-12937976D01*
X16012024Y-12928452D01*
X16002500Y-12918928D01*
X16192976Y-12737976D02*
X16192976Y-12776071D01*
X16269167Y-12737976D02*
X16269167Y-12776071D01*
X16564405Y-13014167D02*
X16554881Y-13004643D01*
X16535833Y-12976071D01*
X16526309Y-12957024D01*
X16516786Y-12928452D01*
X16507262Y-12880833D01*
X16507262Y-12842738D01*
X16516786Y-12795119D01*
X16526309Y-12766548D01*
X16535833Y-12747500D01*
X16554881Y-12718928D01*
X16564405Y-12709405D01*
X16621548Y-12737976D02*
X16754881Y-12737976D01*
X16669167Y-12937976D01*
X16821548Y-12757024D02*
X16831071Y-12747500D01*
X16850119Y-12737976D01*
X16897738Y-12737976D01*
X16916786Y-12747500D01*
X16926310Y-12757024D01*
X16935833Y-12776071D01*
X16935833Y-12795119D01*
X16926310Y-12823690D01*
X16812024Y-12937976D01*
X16935833Y-12937976D01*
X17173929Y-12937976D02*
X17173929Y-12737976D01*
X17259643Y-12937976D02*
X17259643Y-12833214D01*
X17250119Y-12814167D01*
X17231071Y-12804643D01*
X17202500Y-12804643D01*
X17183452Y-12814167D01*
X17173929Y-12823690D01*
X17383452Y-12937976D02*
X17364405Y-12928452D01*
X17354881Y-12918928D01*
X17345357Y-12899881D01*
X17345357Y-12842738D01*
X17354881Y-12823690D01*
X17364405Y-12814167D01*
X17383452Y-12804643D01*
X17412024Y-12804643D01*
X17431071Y-12814167D01*
X17440595Y-12823690D01*
X17450119Y-12842738D01*
X17450119Y-12899881D01*
X17440595Y-12918928D01*
X17431071Y-12928452D01*
X17412024Y-12937976D01*
X17383452Y-12937976D01*
X17564405Y-12937976D02*
X17545357Y-12928452D01*
X17535833Y-12909405D01*
X17535833Y-12737976D01*
X17716786Y-12928452D02*
X17697738Y-12937976D01*
X17659643Y-12937976D01*
X17640595Y-12928452D01*
X17631071Y-12909405D01*
X17631071Y-12833214D01*
X17640595Y-12814167D01*
X17659643Y-12804643D01*
X17697738Y-12804643D01*
X17716786Y-12814167D01*
X17726310Y-12833214D01*
X17726310Y-12852262D01*
X17631071Y-12871309D01*
X17802500Y-12928452D02*
X17821548Y-12937976D01*
X17859643Y-12937976D01*
X17878690Y-12928452D01*
X17888214Y-12909405D01*
X17888214Y-12899881D01*
X17878690Y-12880833D01*
X17859643Y-12871309D01*
X17831071Y-12871309D01*
X17812024Y-12861786D01*
X17802500Y-12842738D01*
X17802500Y-12833214D01*
X17812024Y-12814167D01*
X17831071Y-12804643D01*
X17859643Y-12804643D01*
X17878690Y-12814167D01*
X17954881Y-13014167D02*
X17964405Y-13004643D01*
X17983452Y-12976071D01*
X17992976Y-12957024D01*
X18002500Y-12928452D01*
X18012024Y-12880833D01*
X18012024Y-12842738D01*
X18002500Y-12795119D01*
X17992976Y-12766548D01*
X17983452Y-12747500D01*
X17964405Y-12718928D01*
X17954881Y-12709405D01*
D13*
X12992500Y-13111500D02*
G75*
G03*
X12992500Y-13111500I-50000J0D01*
G01*
D11*
X13354881Y-13201976D02*
X13240595Y-13201976D01*
X13297738Y-13201976D02*
X13297738Y-13001976D01*
X13278690Y-13030548D01*
X13259643Y-13049595D01*
X13240595Y-13059119D01*
X13440595Y-13182928D02*
X13450119Y-13192452D01*
X13440595Y-13201976D01*
X13431071Y-13192452D01*
X13440595Y-13182928D01*
X13440595Y-13201976D01*
X13573928Y-13001976D02*
X13592976Y-13001976D01*
X13612024Y-13011500D01*
X13621548Y-13021024D01*
X13631071Y-13040071D01*
X13640595Y-13078167D01*
X13640595Y-13125786D01*
X13631071Y-13163881D01*
X13621548Y-13182928D01*
X13612024Y-13192452D01*
X13592976Y-13201976D01*
X13573928Y-13201976D01*
X13554881Y-13192452D01*
X13545357Y-13182928D01*
X13535833Y-13163881D01*
X13526309Y-13125786D01*
X13526309Y-13078167D01*
X13535833Y-13040071D01*
X13545357Y-13021024D01*
X13554881Y-13011500D01*
X13573928Y-13001976D01*
X13764405Y-13001976D02*
X13783452Y-13001976D01*
X13802500Y-13011500D01*
X13812024Y-13021024D01*
X13821548Y-13040071D01*
X13831071Y-13078167D01*
X13831071Y-13125786D01*
X13821548Y-13163881D01*
X13812024Y-13182928D01*
X13802500Y-13192452D01*
X13783452Y-13201976D01*
X13764405Y-13201976D01*
X13745357Y-13192452D01*
X13735833Y-13182928D01*
X13726309Y-13163881D01*
X13716786Y-13125786D01*
X13716786Y-13078167D01*
X13726309Y-13040071D01*
X13735833Y-13021024D01*
X13745357Y-13011500D01*
X13764405Y-13001976D01*
X13954881Y-13001976D02*
X13973928Y-13001976D01*
X13992976Y-13011500D01*
X14002500Y-13021024D01*
X14012024Y-13040071D01*
X14021548Y-13078167D01*
X14021548Y-13125786D01*
X14012024Y-13163881D01*
X14002500Y-13182928D01*
X13992976Y-13192452D01*
X13973928Y-13201976D01*
X13954881Y-13201976D01*
X13935833Y-13192452D01*
X13926309Y-13182928D01*
X13916786Y-13163881D01*
X13907262Y-13125786D01*
X13907262Y-13078167D01*
X13916786Y-13040071D01*
X13926309Y-13021024D01*
X13935833Y-13011500D01*
X13954881Y-13001976D01*
X14107262Y-13201976D02*
X14107262Y-13068643D01*
X14107262Y-13087690D02*
X14116786Y-13078167D01*
X14135833Y-13068643D01*
X14164405Y-13068643D01*
X14183452Y-13078167D01*
X14192976Y-13097214D01*
X14192976Y-13201976D01*
X14192976Y-13097214D02*
X14202500Y-13078167D01*
X14221548Y-13068643D01*
X14250119Y-13068643D01*
X14269167Y-13078167D01*
X14278690Y-13097214D01*
X14278690Y-13201976D01*
X14373928Y-13201976D02*
X14373928Y-13068643D01*
X14373928Y-13087690D02*
X14383452Y-13078167D01*
X14402500Y-13068643D01*
X14431071Y-13068643D01*
X14450119Y-13078167D01*
X14459643Y-13097214D01*
X14459643Y-13201976D01*
X14459643Y-13097214D02*
X14469167Y-13078167D01*
X14488214Y-13068643D01*
X14516786Y-13068643D01*
X14535833Y-13078167D01*
X14545357Y-13097214D01*
X14545357Y-13201976D01*
X14935833Y-12992452D02*
X14764405Y-13249595D01*
X15192976Y-13001976D02*
X15212024Y-13001976D01*
X15231071Y-13011500D01*
X15240595Y-13021024D01*
X15250119Y-13040071D01*
X15259643Y-13078167D01*
X15259643Y-13125786D01*
X15250119Y-13163881D01*
X15240595Y-13182928D01*
X15231071Y-13192452D01*
X15212024Y-13201976D01*
X15192976Y-13201976D01*
X15173928Y-13192452D01*
X15164405Y-13182928D01*
X15154881Y-13163881D01*
X15145357Y-13125786D01*
X15145357Y-13078167D01*
X15154881Y-13040071D01*
X15164405Y-13021024D01*
X15173928Y-13011500D01*
X15192976Y-13001976D01*
X15345357Y-13182928D02*
X15354881Y-13192452D01*
X15345357Y-13201976D01*
X15335833Y-13192452D01*
X15345357Y-13182928D01*
X15345357Y-13201976D01*
X15478690Y-13001976D02*
X15497738Y-13001976D01*
X15516786Y-13011500D01*
X15526309Y-13021024D01*
X15535833Y-13040071D01*
X15545357Y-13078167D01*
X15545357Y-13125786D01*
X15535833Y-13163881D01*
X15526309Y-13182928D01*
X15516786Y-13192452D01*
X15497738Y-13201976D01*
X15478690Y-13201976D01*
X15459643Y-13192452D01*
X15450119Y-13182928D01*
X15440595Y-13163881D01*
X15431071Y-13125786D01*
X15431071Y-13078167D01*
X15440595Y-13040071D01*
X15450119Y-13021024D01*
X15459643Y-13011500D01*
X15478690Y-13001976D01*
X15612024Y-13001976D02*
X15735833Y-13001976D01*
X15669167Y-13078167D01*
X15697738Y-13078167D01*
X15716786Y-13087690D01*
X15726309Y-13097214D01*
X15735833Y-13116262D01*
X15735833Y-13163881D01*
X15726309Y-13182928D01*
X15716786Y-13192452D01*
X15697738Y-13201976D01*
X15640595Y-13201976D01*
X15621548Y-13192452D01*
X15612024Y-13182928D01*
X15831071Y-13201976D02*
X15869167Y-13201976D01*
X15888214Y-13192452D01*
X15897738Y-13182928D01*
X15916786Y-13154357D01*
X15926309Y-13116262D01*
X15926309Y-13040071D01*
X15916786Y-13021024D01*
X15907262Y-13011500D01*
X15888214Y-13001976D01*
X15850119Y-13001976D01*
X15831071Y-13011500D01*
X15821548Y-13021024D01*
X15812024Y-13040071D01*
X15812024Y-13087690D01*
X15821548Y-13106738D01*
X15831071Y-13116262D01*
X15850119Y-13125786D01*
X15888214Y-13125786D01*
X15907262Y-13116262D01*
X15916786Y-13106738D01*
X15926309Y-13087690D01*
X16097738Y-13068643D02*
X16097738Y-13201976D01*
X16050119Y-12992452D02*
X16002500Y-13135309D01*
X16126309Y-13135309D01*
X16192976Y-13001976D02*
X16192976Y-13040071D01*
X16269167Y-13001976D02*
X16269167Y-13040071D01*
X16564405Y-13278167D02*
X16554881Y-13268643D01*
X16535833Y-13240071D01*
X16526309Y-13221024D01*
X16516786Y-13192452D01*
X16507262Y-13144833D01*
X16507262Y-13106738D01*
X16516786Y-13059119D01*
X16526309Y-13030548D01*
X16535833Y-13011500D01*
X16554881Y-12982928D01*
X16564405Y-12973405D01*
X16621548Y-13001976D02*
X16745357Y-13001976D01*
X16678690Y-13078167D01*
X16707262Y-13078167D01*
X16726309Y-13087690D01*
X16735833Y-13097214D01*
X16745357Y-13116262D01*
X16745357Y-13163881D01*
X16735833Y-13182928D01*
X16726309Y-13192452D01*
X16707262Y-13201976D01*
X16650119Y-13201976D01*
X16631071Y-13192452D01*
X16621548Y-13182928D01*
X16840595Y-13201976D02*
X16878690Y-13201976D01*
X16897738Y-13192452D01*
X16907262Y-13182928D01*
X16926310Y-13154357D01*
X16935833Y-13116262D01*
X16935833Y-13040071D01*
X16926310Y-13021024D01*
X16916786Y-13011500D01*
X16897738Y-13001976D01*
X16859643Y-13001976D01*
X16840595Y-13011500D01*
X16831071Y-13021024D01*
X16821548Y-13040071D01*
X16821548Y-13087690D01*
X16831071Y-13106738D01*
X16840595Y-13116262D01*
X16859643Y-13125786D01*
X16897738Y-13125786D01*
X16916786Y-13116262D01*
X16926310Y-13106738D01*
X16935833Y-13087690D01*
X17173929Y-13201976D02*
X17173929Y-13001976D01*
X17259643Y-13201976D02*
X17259643Y-13097214D01*
X17250119Y-13078167D01*
X17231071Y-13068643D01*
X17202500Y-13068643D01*
X17183452Y-13078167D01*
X17173929Y-13087690D01*
X17383452Y-13201976D02*
X17364405Y-13192452D01*
X17354881Y-13182928D01*
X17345357Y-13163881D01*
X17345357Y-13106738D01*
X17354881Y-13087690D01*
X17364405Y-13078167D01*
X17383452Y-13068643D01*
X17412024Y-13068643D01*
X17431071Y-13078167D01*
X17440595Y-13087690D01*
X17450119Y-13106738D01*
X17450119Y-13163881D01*
X17440595Y-13182928D01*
X17431071Y-13192452D01*
X17412024Y-13201976D01*
X17383452Y-13201976D01*
X17564405Y-13201976D02*
X17545357Y-13192452D01*
X17535833Y-13173405D01*
X17535833Y-13001976D01*
X17716786Y-13192452D02*
X17697738Y-13201976D01*
X17659643Y-13201976D01*
X17640595Y-13192452D01*
X17631071Y-13173405D01*
X17631071Y-13097214D01*
X17640595Y-13078167D01*
X17659643Y-13068643D01*
X17697738Y-13068643D01*
X17716786Y-13078167D01*
X17726310Y-13097214D01*
X17726310Y-13116262D01*
X17631071Y-13135309D01*
X17802500Y-13192452D02*
X17821548Y-13201976D01*
X17859643Y-13201976D01*
X17878690Y-13192452D01*
X17888214Y-13173405D01*
X17888214Y-13163881D01*
X17878690Y-13144833D01*
X17859643Y-13135309D01*
X17831071Y-13135309D01*
X17812024Y-13125786D01*
X17802500Y-13106738D01*
X17802500Y-13097214D01*
X17812024Y-13078167D01*
X17831071Y-13068643D01*
X17859643Y-13068643D01*
X17878690Y-13078167D01*
X17954881Y-13278167D02*
X17964405Y-13268643D01*
X17983452Y-13240071D01*
X17992976Y-13221024D01*
X18002500Y-13192452D01*
X18012024Y-13144833D01*
X18012024Y-13106738D01*
X18002500Y-13059119D01*
X17992976Y-13030548D01*
X17983452Y-13011500D01*
X17964405Y-12982928D01*
X17954881Y-12973405D01*
D13*
X12942500Y-13325500D02*
X12942500Y-13425500D01*
X12892500Y-13375500D02*
X12992500Y-13375500D01*
D11*
X13354881Y-13465976D02*
X13240595Y-13465976D01*
X13297738Y-13465976D02*
X13297738Y-13265976D01*
X13278690Y-13294548D01*
X13259643Y-13313595D01*
X13240595Y-13323119D01*
X13440595Y-13446928D02*
X13450119Y-13456452D01*
X13440595Y-13465976D01*
X13431071Y-13456452D01*
X13440595Y-13446928D01*
X13440595Y-13465976D01*
X13573928Y-13265976D02*
X13592976Y-13265976D01*
X13612024Y-13275500D01*
X13621548Y-13285024D01*
X13631071Y-13304071D01*
X13640595Y-13342167D01*
X13640595Y-13389786D01*
X13631071Y-13427881D01*
X13621548Y-13446928D01*
X13612024Y-13456452D01*
X13592976Y-13465976D01*
X13573928Y-13465976D01*
X13554881Y-13456452D01*
X13545357Y-13446928D01*
X13535833Y-13427881D01*
X13526309Y-13389786D01*
X13526309Y-13342167D01*
X13535833Y-13304071D01*
X13545357Y-13285024D01*
X13554881Y-13275500D01*
X13573928Y-13265976D01*
X13764405Y-13265976D02*
X13783452Y-13265976D01*
X13802500Y-13275500D01*
X13812024Y-13285024D01*
X13821548Y-13304071D01*
X13831071Y-13342167D01*
X13831071Y-13389786D01*
X13821548Y-13427881D01*
X13812024Y-13446928D01*
X13802500Y-13456452D01*
X13783452Y-13465976D01*
X13764405Y-13465976D01*
X13745357Y-13456452D01*
X13735833Y-13446928D01*
X13726309Y-13427881D01*
X13716786Y-13389786D01*
X13716786Y-13342167D01*
X13726309Y-13304071D01*
X13735833Y-13285024D01*
X13745357Y-13275500D01*
X13764405Y-13265976D01*
X13954881Y-13265976D02*
X13973928Y-13265976D01*
X13992976Y-13275500D01*
X14002500Y-13285024D01*
X14012024Y-13304071D01*
X14021548Y-13342167D01*
X14021548Y-13389786D01*
X14012024Y-13427881D01*
X14002500Y-13446928D01*
X13992976Y-13456452D01*
X13973928Y-13465976D01*
X13954881Y-13465976D01*
X13935833Y-13456452D01*
X13926309Y-13446928D01*
X13916786Y-13427881D01*
X13907262Y-13389786D01*
X13907262Y-13342167D01*
X13916786Y-13304071D01*
X13926309Y-13285024D01*
X13935833Y-13275500D01*
X13954881Y-13265976D01*
X14107262Y-13465976D02*
X14107262Y-13332643D01*
X14107262Y-13351690D02*
X14116786Y-13342167D01*
X14135833Y-13332643D01*
X14164405Y-13332643D01*
X14183452Y-13342167D01*
X14192976Y-13361214D01*
X14192976Y-13465976D01*
X14192976Y-13361214D02*
X14202500Y-13342167D01*
X14221548Y-13332643D01*
X14250119Y-13332643D01*
X14269167Y-13342167D01*
X14278690Y-13361214D01*
X14278690Y-13465976D01*
X14373928Y-13465976D02*
X14373928Y-13332643D01*
X14373928Y-13351690D02*
X14383452Y-13342167D01*
X14402500Y-13332643D01*
X14431071Y-13332643D01*
X14450119Y-13342167D01*
X14459643Y-13361214D01*
X14459643Y-13465976D01*
X14459643Y-13361214D02*
X14469167Y-13342167D01*
X14488214Y-13332643D01*
X14516786Y-13332643D01*
X14535833Y-13342167D01*
X14545357Y-13361214D01*
X14545357Y-13465976D01*
X14935833Y-13256452D02*
X14764405Y-13513595D01*
X15192976Y-13265976D02*
X15212024Y-13265976D01*
X15231071Y-13275500D01*
X15240595Y-13285024D01*
X15250119Y-13304071D01*
X15259643Y-13342167D01*
X15259643Y-13389786D01*
X15250119Y-13427881D01*
X15240595Y-13446928D01*
X15231071Y-13456452D01*
X15212024Y-13465976D01*
X15192976Y-13465976D01*
X15173928Y-13456452D01*
X15164405Y-13446928D01*
X15154881Y-13427881D01*
X15145357Y-13389786D01*
X15145357Y-13342167D01*
X15154881Y-13304071D01*
X15164405Y-13285024D01*
X15173928Y-13275500D01*
X15192976Y-13265976D01*
X15345357Y-13446928D02*
X15354881Y-13456452D01*
X15345357Y-13465976D01*
X15335833Y-13456452D01*
X15345357Y-13446928D01*
X15345357Y-13465976D01*
X15478690Y-13265976D02*
X15497738Y-13265976D01*
X15516786Y-13275500D01*
X15526309Y-13285024D01*
X15535833Y-13304071D01*
X15545357Y-13342167D01*
X15545357Y-13389786D01*
X15535833Y-13427881D01*
X15526309Y-13446928D01*
X15516786Y-13456452D01*
X15497738Y-13465976D01*
X15478690Y-13465976D01*
X15459643Y-13456452D01*
X15450119Y-13446928D01*
X15440595Y-13427881D01*
X15431071Y-13389786D01*
X15431071Y-13342167D01*
X15440595Y-13304071D01*
X15450119Y-13285024D01*
X15459643Y-13275500D01*
X15478690Y-13265976D01*
X15612024Y-13265976D02*
X15735833Y-13265976D01*
X15669167Y-13342167D01*
X15697738Y-13342167D01*
X15716786Y-13351690D01*
X15726309Y-13361214D01*
X15735833Y-13380262D01*
X15735833Y-13427881D01*
X15726309Y-13446928D01*
X15716786Y-13456452D01*
X15697738Y-13465976D01*
X15640595Y-13465976D01*
X15621548Y-13456452D01*
X15612024Y-13446928D01*
X15831071Y-13465976D02*
X15869167Y-13465976D01*
X15888214Y-13456452D01*
X15897738Y-13446928D01*
X15916786Y-13418357D01*
X15926309Y-13380262D01*
X15926309Y-13304071D01*
X15916786Y-13285024D01*
X15907262Y-13275500D01*
X15888214Y-13265976D01*
X15850119Y-13265976D01*
X15831071Y-13275500D01*
X15821548Y-13285024D01*
X15812024Y-13304071D01*
X15812024Y-13351690D01*
X15821548Y-13370738D01*
X15831071Y-13380262D01*
X15850119Y-13389786D01*
X15888214Y-13389786D01*
X15907262Y-13380262D01*
X15916786Y-13370738D01*
X15926309Y-13351690D01*
X16097738Y-13332643D02*
X16097738Y-13465976D01*
X16050119Y-13256452D02*
X16002500Y-13399309D01*
X16126309Y-13399309D01*
X16192976Y-13265976D02*
X16192976Y-13304071D01*
X16269167Y-13265976D02*
X16269167Y-13304071D01*
X16564405Y-13542167D02*
X16554881Y-13532643D01*
X16535833Y-13504071D01*
X16526309Y-13485024D01*
X16516786Y-13456452D01*
X16507262Y-13408833D01*
X16507262Y-13370738D01*
X16516786Y-13323119D01*
X16526309Y-13294548D01*
X16535833Y-13275500D01*
X16554881Y-13246928D01*
X16564405Y-13237405D01*
X16745357Y-13465976D02*
X16631071Y-13465976D01*
X16688214Y-13465976D02*
X16688214Y-13265976D01*
X16669167Y-13294548D01*
X16650119Y-13313595D01*
X16631071Y-13323119D01*
X16821548Y-13285024D02*
X16831071Y-13275500D01*
X16850119Y-13265976D01*
X16897738Y-13265976D01*
X16916786Y-13275500D01*
X16926310Y-13285024D01*
X16935833Y-13304071D01*
X16935833Y-13323119D01*
X16926310Y-13351690D01*
X16812024Y-13465976D01*
X16935833Y-13465976D01*
X17050119Y-13351690D02*
X17031071Y-13342167D01*
X17021548Y-13332643D01*
X17012024Y-13313595D01*
X17012024Y-13304071D01*
X17021548Y-13285024D01*
X17031071Y-13275500D01*
X17050119Y-13265976D01*
X17088214Y-13265976D01*
X17107262Y-13275500D01*
X17116786Y-13285024D01*
X17126310Y-13304071D01*
X17126310Y-13313595D01*
X17116786Y-13332643D01*
X17107262Y-13342167D01*
X17088214Y-13351690D01*
X17050119Y-13351690D01*
X17031071Y-13361214D01*
X17021548Y-13370738D01*
X17012024Y-13389786D01*
X17012024Y-13427881D01*
X17021548Y-13446928D01*
X17031071Y-13456452D01*
X17050119Y-13465976D01*
X17088214Y-13465976D01*
X17107262Y-13456452D01*
X17116786Y-13446928D01*
X17126310Y-13427881D01*
X17126310Y-13389786D01*
X17116786Y-13370738D01*
X17107262Y-13361214D01*
X17088214Y-13351690D01*
X17364405Y-13465976D02*
X17364405Y-13265976D01*
X17450119Y-13465976D02*
X17450119Y-13361214D01*
X17440595Y-13342167D01*
X17421548Y-13332643D01*
X17392976Y-13332643D01*
X17373929Y-13342167D01*
X17364405Y-13351690D01*
X17573929Y-13465976D02*
X17554881Y-13456452D01*
X17545357Y-13446928D01*
X17535833Y-13427881D01*
X17535833Y-13370738D01*
X17545357Y-13351690D01*
X17554881Y-13342167D01*
X17573929Y-13332643D01*
X17602500Y-13332643D01*
X17621548Y-13342167D01*
X17631071Y-13351690D01*
X17640595Y-13370738D01*
X17640595Y-13427881D01*
X17631071Y-13446928D01*
X17621548Y-13456452D01*
X17602500Y-13465976D01*
X17573929Y-13465976D01*
X17754881Y-13465976D02*
X17735833Y-13456452D01*
X17726310Y-13437405D01*
X17726310Y-13265976D01*
X17907262Y-13456452D02*
X17888214Y-13465976D01*
X17850119Y-13465976D01*
X17831071Y-13456452D01*
X17821548Y-13437405D01*
X17821548Y-13361214D01*
X17831071Y-13342167D01*
X17850119Y-13332643D01*
X17888214Y-13332643D01*
X17907262Y-13342167D01*
X17916786Y-13361214D01*
X17916786Y-13380262D01*
X17821548Y-13399309D01*
X17992976Y-13456452D02*
X18012024Y-13465976D01*
X18050119Y-13465976D01*
X18069167Y-13456452D01*
X18078690Y-13437405D01*
X18078690Y-13427881D01*
X18069167Y-13408833D01*
X18050119Y-13399309D01*
X18021548Y-13399309D01*
X18002500Y-13389786D01*
X17992976Y-13370738D01*
X17992976Y-13361214D01*
X18002500Y-13342167D01*
X18021548Y-13332643D01*
X18050119Y-13332643D01*
X18069167Y-13342167D01*
X18145357Y-13542167D02*
X18154881Y-13532643D01*
X18173929Y-13504071D01*
X18183452Y-13485024D01*
X18192976Y-13456452D01*
X18202500Y-13408833D01*
X18202500Y-13370738D01*
X18192976Y-13323119D01*
X18183452Y-13294548D01*
X18173929Y-13275500D01*
X18154881Y-13246928D01*
X18145357Y-13237405D01*
D14*
X12976391Y-13678391D02*
X12976391Y-13600609D01*
X12898609Y-13600609D01*
X12898609Y-13678391D01*
X12976391Y-13678391D01*
D11*
X13354881Y-13729976D02*
X13240595Y-13729976D01*
X13297738Y-13729976D02*
X13297738Y-13529976D01*
X13278690Y-13558548D01*
X13259643Y-13577595D01*
X13240595Y-13587119D01*
X13440595Y-13710928D02*
X13450119Y-13720452D01*
X13440595Y-13729976D01*
X13431071Y-13720452D01*
X13440595Y-13710928D01*
X13440595Y-13729976D01*
X13640595Y-13729976D02*
X13526309Y-13729976D01*
X13583452Y-13729976D02*
X13583452Y-13529976D01*
X13564405Y-13558548D01*
X13545357Y-13577595D01*
X13526309Y-13587119D01*
X13764405Y-13529976D02*
X13783452Y-13529976D01*
X13802500Y-13539500D01*
X13812024Y-13549024D01*
X13821548Y-13568071D01*
X13831071Y-13606167D01*
X13831071Y-13653786D01*
X13821548Y-13691881D01*
X13812024Y-13710928D01*
X13802500Y-13720452D01*
X13783452Y-13729976D01*
X13764405Y-13729976D01*
X13745357Y-13720452D01*
X13735833Y-13710928D01*
X13726309Y-13691881D01*
X13716786Y-13653786D01*
X13716786Y-13606167D01*
X13726309Y-13568071D01*
X13735833Y-13549024D01*
X13745357Y-13539500D01*
X13764405Y-13529976D01*
X13954881Y-13529976D02*
X13973928Y-13529976D01*
X13992976Y-13539500D01*
X14002500Y-13549024D01*
X14012024Y-13568071D01*
X14021548Y-13606167D01*
X14021548Y-13653786D01*
X14012024Y-13691881D01*
X14002500Y-13710928D01*
X13992976Y-13720452D01*
X13973928Y-13729976D01*
X13954881Y-13729976D01*
X13935833Y-13720452D01*
X13926309Y-13710928D01*
X13916786Y-13691881D01*
X13907262Y-13653786D01*
X13907262Y-13606167D01*
X13916786Y-13568071D01*
X13926309Y-13549024D01*
X13935833Y-13539500D01*
X13954881Y-13529976D01*
X14107262Y-13729976D02*
X14107262Y-13596643D01*
X14107262Y-13615690D02*
X14116786Y-13606167D01*
X14135833Y-13596643D01*
X14164405Y-13596643D01*
X14183452Y-13606167D01*
X14192976Y-13625214D01*
X14192976Y-13729976D01*
X14192976Y-13625214D02*
X14202500Y-13606167D01*
X14221548Y-13596643D01*
X14250119Y-13596643D01*
X14269167Y-13606167D01*
X14278690Y-13625214D01*
X14278690Y-13729976D01*
X14373928Y-13729976D02*
X14373928Y-13596643D01*
X14373928Y-13615690D02*
X14383452Y-13606167D01*
X14402500Y-13596643D01*
X14431071Y-13596643D01*
X14450119Y-13606167D01*
X14459643Y-13625214D01*
X14459643Y-13729976D01*
X14459643Y-13625214D02*
X14469167Y-13606167D01*
X14488214Y-13596643D01*
X14516786Y-13596643D01*
X14535833Y-13606167D01*
X14545357Y-13625214D01*
X14545357Y-13729976D01*
X14935833Y-13520452D02*
X14764405Y-13777595D01*
X15192976Y-13529976D02*
X15212024Y-13529976D01*
X15231071Y-13539500D01*
X15240595Y-13549024D01*
X15250119Y-13568071D01*
X15259643Y-13606167D01*
X15259643Y-13653786D01*
X15250119Y-13691881D01*
X15240595Y-13710928D01*
X15231071Y-13720452D01*
X15212024Y-13729976D01*
X15192976Y-13729976D01*
X15173928Y-13720452D01*
X15164405Y-13710928D01*
X15154881Y-13691881D01*
X15145357Y-13653786D01*
X15145357Y-13606167D01*
X15154881Y-13568071D01*
X15164405Y-13549024D01*
X15173928Y-13539500D01*
X15192976Y-13529976D01*
X15345357Y-13710928D02*
X15354881Y-13720452D01*
X15345357Y-13729976D01*
X15335833Y-13720452D01*
X15345357Y-13710928D01*
X15345357Y-13729976D01*
X15478690Y-13529976D02*
X15497738Y-13529976D01*
X15516786Y-13539500D01*
X15526309Y-13549024D01*
X15535833Y-13568071D01*
X15545357Y-13606167D01*
X15545357Y-13653786D01*
X15535833Y-13691881D01*
X15526309Y-13710928D01*
X15516786Y-13720452D01*
X15497738Y-13729976D01*
X15478690Y-13729976D01*
X15459643Y-13720452D01*
X15450119Y-13710928D01*
X15440595Y-13691881D01*
X15431071Y-13653786D01*
X15431071Y-13606167D01*
X15440595Y-13568071D01*
X15450119Y-13549024D01*
X15459643Y-13539500D01*
X15478690Y-13529976D01*
X15716786Y-13596643D02*
X15716786Y-13729976D01*
X15669167Y-13520452D02*
X15621548Y-13663309D01*
X15745357Y-13663309D01*
X15802500Y-13529976D02*
X15926309Y-13529976D01*
X15859643Y-13606167D01*
X15888214Y-13606167D01*
X15907262Y-13615690D01*
X15916786Y-13625214D01*
X15926309Y-13644262D01*
X15926309Y-13691881D01*
X15916786Y-13710928D01*
X15907262Y-13720452D01*
X15888214Y-13729976D01*
X15831071Y-13729976D01*
X15812024Y-13720452D01*
X15802500Y-13710928D01*
X15992976Y-13529976D02*
X16116786Y-13529976D01*
X16050119Y-13606167D01*
X16078690Y-13606167D01*
X16097738Y-13615690D01*
X16107262Y-13625214D01*
X16116786Y-13644262D01*
X16116786Y-13691881D01*
X16107262Y-13710928D01*
X16097738Y-13720452D01*
X16078690Y-13729976D01*
X16021548Y-13729976D01*
X16002500Y-13720452D01*
X15992976Y-13710928D01*
X16192976Y-13529976D02*
X16192976Y-13568071D01*
X16269167Y-13529976D02*
X16269167Y-13568071D01*
X16564405Y-13806167D02*
X16554881Y-13796643D01*
X16535833Y-13768071D01*
X16526309Y-13749024D01*
X16516786Y-13720452D01*
X16507262Y-13672833D01*
X16507262Y-13634738D01*
X16516786Y-13587119D01*
X16526309Y-13558548D01*
X16535833Y-13539500D01*
X16554881Y-13510928D01*
X16564405Y-13501405D01*
X16726309Y-13529976D02*
X16688214Y-13529976D01*
X16669167Y-13539500D01*
X16659643Y-13549024D01*
X16640595Y-13577595D01*
X16631071Y-13615690D01*
X16631071Y-13691881D01*
X16640595Y-13710928D01*
X16650119Y-13720452D01*
X16669167Y-13729976D01*
X16707262Y-13729976D01*
X16726309Y-13720452D01*
X16735833Y-13710928D01*
X16745357Y-13691881D01*
X16745357Y-13644262D01*
X16735833Y-13625214D01*
X16726309Y-13615690D01*
X16707262Y-13606167D01*
X16669167Y-13606167D01*
X16650119Y-13615690D01*
X16640595Y-13625214D01*
X16631071Y-13644262D01*
X16983452Y-13729976D02*
X16983452Y-13529976D01*
X17069167Y-13729976D02*
X17069167Y-13625214D01*
X17059643Y-13606167D01*
X17040595Y-13596643D01*
X17012024Y-13596643D01*
X16992976Y-13606167D01*
X16983452Y-13615690D01*
X17192976Y-13729976D02*
X17173929Y-13720452D01*
X17164405Y-13710928D01*
X17154881Y-13691881D01*
X17154881Y-13634738D01*
X17164405Y-13615690D01*
X17173929Y-13606167D01*
X17192976Y-13596643D01*
X17221548Y-13596643D01*
X17240595Y-13606167D01*
X17250119Y-13615690D01*
X17259643Y-13634738D01*
X17259643Y-13691881D01*
X17250119Y-13710928D01*
X17240595Y-13720452D01*
X17221548Y-13729976D01*
X17192976Y-13729976D01*
X17373929Y-13729976D02*
X17354881Y-13720452D01*
X17345357Y-13701405D01*
X17345357Y-13529976D01*
X17526310Y-13720452D02*
X17507262Y-13729976D01*
X17469167Y-13729976D01*
X17450119Y-13720452D01*
X17440595Y-13701405D01*
X17440595Y-13625214D01*
X17450119Y-13606167D01*
X17469167Y-13596643D01*
X17507262Y-13596643D01*
X17526310Y-13606167D01*
X17535833Y-13625214D01*
X17535833Y-13644262D01*
X17440595Y-13663309D01*
X17612024Y-13720452D02*
X17631071Y-13729976D01*
X17669167Y-13729976D01*
X17688214Y-13720452D01*
X17697738Y-13701405D01*
X17697738Y-13691881D01*
X17688214Y-13672833D01*
X17669167Y-13663309D01*
X17640595Y-13663309D01*
X17621548Y-13653786D01*
X17612024Y-13634738D01*
X17612024Y-13625214D01*
X17621548Y-13606167D01*
X17640595Y-13596643D01*
X17669167Y-13596643D01*
X17688214Y-13606167D01*
X17764405Y-13806167D02*
X17773929Y-13796643D01*
X17792976Y-13768071D01*
X17802500Y-13749024D01*
X17812024Y-13720452D01*
X17821548Y-13672833D01*
X17821548Y-13634738D01*
X17812024Y-13587119D01*
X17802500Y-13558548D01*
X17792976Y-13539500D01*
X17773929Y-13510928D01*
X17764405Y-13501405D01*
D15*
X12933000Y-13963000D02*
X12992500Y-13903500D01*
X12933000Y-13844000D01*
X12873500Y-13903500D01*
X12933000Y-13963000D01*
D11*
X13354881Y-13993976D02*
X13240595Y-13993976D01*
X13297738Y-13993976D02*
X13297738Y-13793976D01*
X13278690Y-13822548D01*
X13259643Y-13841595D01*
X13240595Y-13851119D01*
X13440595Y-13974928D02*
X13450119Y-13984452D01*
X13440595Y-13993976D01*
X13431071Y-13984452D01*
X13440595Y-13974928D01*
X13440595Y-13993976D01*
X13640595Y-13993976D02*
X13526309Y-13993976D01*
X13583452Y-13993976D02*
X13583452Y-13793976D01*
X13564405Y-13822548D01*
X13545357Y-13841595D01*
X13526309Y-13851119D01*
X13735833Y-13993976D02*
X13773928Y-13993976D01*
X13792976Y-13984452D01*
X13802500Y-13974928D01*
X13821548Y-13946357D01*
X13831071Y-13908262D01*
X13831071Y-13832071D01*
X13821548Y-13813024D01*
X13812024Y-13803500D01*
X13792976Y-13793976D01*
X13754881Y-13793976D01*
X13735833Y-13803500D01*
X13726309Y-13813024D01*
X13716786Y-13832071D01*
X13716786Y-13879690D01*
X13726309Y-13898738D01*
X13735833Y-13908262D01*
X13754881Y-13917786D01*
X13792976Y-13917786D01*
X13812024Y-13908262D01*
X13821548Y-13898738D01*
X13831071Y-13879690D01*
X13954881Y-13793976D02*
X13973928Y-13793976D01*
X13992976Y-13803500D01*
X14002500Y-13813024D01*
X14012024Y-13832071D01*
X14021548Y-13870167D01*
X14021548Y-13917786D01*
X14012024Y-13955881D01*
X14002500Y-13974928D01*
X13992976Y-13984452D01*
X13973928Y-13993976D01*
X13954881Y-13993976D01*
X13935833Y-13984452D01*
X13926309Y-13974928D01*
X13916786Y-13955881D01*
X13907262Y-13917786D01*
X13907262Y-13870167D01*
X13916786Y-13832071D01*
X13926309Y-13813024D01*
X13935833Y-13803500D01*
X13954881Y-13793976D01*
X14107262Y-13993976D02*
X14107262Y-13860643D01*
X14107262Y-13879690D02*
X14116786Y-13870167D01*
X14135833Y-13860643D01*
X14164405Y-13860643D01*
X14183452Y-13870167D01*
X14192976Y-13889214D01*
X14192976Y-13993976D01*
X14192976Y-13889214D02*
X14202500Y-13870167D01*
X14221548Y-13860643D01*
X14250119Y-13860643D01*
X14269167Y-13870167D01*
X14278690Y-13889214D01*
X14278690Y-13993976D01*
X14373928Y-13993976D02*
X14373928Y-13860643D01*
X14373928Y-13879690D02*
X14383452Y-13870167D01*
X14402500Y-13860643D01*
X14431071Y-13860643D01*
X14450119Y-13870167D01*
X14459643Y-13889214D01*
X14459643Y-13993976D01*
X14459643Y-13889214D02*
X14469167Y-13870167D01*
X14488214Y-13860643D01*
X14516786Y-13860643D01*
X14535833Y-13870167D01*
X14545357Y-13889214D01*
X14545357Y-13993976D01*
X14935833Y-13784452D02*
X14764405Y-14041595D01*
X15192976Y-13793976D02*
X15212024Y-13793976D01*
X15231071Y-13803500D01*
X15240595Y-13813024D01*
X15250119Y-13832071D01*
X15259643Y-13870167D01*
X15259643Y-13917786D01*
X15250119Y-13955881D01*
X15240595Y-13974928D01*
X15231071Y-13984452D01*
X15212024Y-13993976D01*
X15192976Y-13993976D01*
X15173928Y-13984452D01*
X15164405Y-13974928D01*
X15154881Y-13955881D01*
X15145357Y-13917786D01*
X15145357Y-13870167D01*
X15154881Y-13832071D01*
X15164405Y-13813024D01*
X15173928Y-13803500D01*
X15192976Y-13793976D01*
X15345357Y-13974928D02*
X15354881Y-13984452D01*
X15345357Y-13993976D01*
X15335833Y-13984452D01*
X15345357Y-13974928D01*
X15345357Y-13993976D01*
X15478690Y-13793976D02*
X15497738Y-13793976D01*
X15516786Y-13803500D01*
X15526309Y-13813024D01*
X15535833Y-13832071D01*
X15545357Y-13870167D01*
X15545357Y-13917786D01*
X15535833Y-13955881D01*
X15526309Y-13974928D01*
X15516786Y-13984452D01*
X15497738Y-13993976D01*
X15478690Y-13993976D01*
X15459643Y-13984452D01*
X15450119Y-13974928D01*
X15440595Y-13955881D01*
X15431071Y-13917786D01*
X15431071Y-13870167D01*
X15440595Y-13832071D01*
X15450119Y-13813024D01*
X15459643Y-13803500D01*
X15478690Y-13793976D01*
X15716786Y-13860643D02*
X15716786Y-13993976D01*
X15669167Y-13784452D02*
X15621548Y-13927309D01*
X15745357Y-13927309D01*
X15907262Y-13793976D02*
X15869167Y-13793976D01*
X15850119Y-13803500D01*
X15840595Y-13813024D01*
X15821548Y-13841595D01*
X15812024Y-13879690D01*
X15812024Y-13955881D01*
X15821548Y-13974928D01*
X15831071Y-13984452D01*
X15850119Y-13993976D01*
X15888214Y-13993976D01*
X15907262Y-13984452D01*
X15916786Y-13974928D01*
X15926309Y-13955881D01*
X15926309Y-13908262D01*
X15916786Y-13889214D01*
X15907262Y-13879690D01*
X15888214Y-13870167D01*
X15850119Y-13870167D01*
X15831071Y-13879690D01*
X15821548Y-13889214D01*
X15812024Y-13908262D01*
X16021548Y-13993976D02*
X16059643Y-13993976D01*
X16078690Y-13984452D01*
X16088214Y-13974928D01*
X16107262Y-13946357D01*
X16116786Y-13908262D01*
X16116786Y-13832071D01*
X16107262Y-13813024D01*
X16097738Y-13803500D01*
X16078690Y-13793976D01*
X16040595Y-13793976D01*
X16021548Y-13803500D01*
X16012024Y-13813024D01*
X16002500Y-13832071D01*
X16002500Y-13879690D01*
X16012024Y-13898738D01*
X16021548Y-13908262D01*
X16040595Y-13917786D01*
X16078690Y-13917786D01*
X16097738Y-13908262D01*
X16107262Y-13898738D01*
X16116786Y-13879690D01*
X16192976Y-13793976D02*
X16192976Y-13832071D01*
X16269167Y-13793976D02*
X16269167Y-13832071D01*
X16564405Y-14070167D02*
X16554881Y-14060643D01*
X16535833Y-14032071D01*
X16526309Y-14013024D01*
X16516786Y-13984452D01*
X16507262Y-13936833D01*
X16507262Y-13898738D01*
X16516786Y-13851119D01*
X16526309Y-13822548D01*
X16535833Y-13803500D01*
X16554881Y-13774928D01*
X16564405Y-13765405D01*
X16631071Y-13813024D02*
X16640595Y-13803500D01*
X16659643Y-13793976D01*
X16707262Y-13793976D01*
X16726309Y-13803500D01*
X16735833Y-13813024D01*
X16745357Y-13832071D01*
X16745357Y-13851119D01*
X16735833Y-13879690D01*
X16621548Y-13993976D01*
X16745357Y-13993976D01*
X16840595Y-13993976D02*
X16878690Y-13993976D01*
X16897738Y-13984452D01*
X16907262Y-13974928D01*
X16926310Y-13946357D01*
X16935833Y-13908262D01*
X16935833Y-13832071D01*
X16926310Y-13813024D01*
X16916786Y-13803500D01*
X16897738Y-13793976D01*
X16859643Y-13793976D01*
X16840595Y-13803500D01*
X16831071Y-13813024D01*
X16821548Y-13832071D01*
X16821548Y-13879690D01*
X16831071Y-13898738D01*
X16840595Y-13908262D01*
X16859643Y-13917786D01*
X16897738Y-13917786D01*
X16916786Y-13908262D01*
X16926310Y-13898738D01*
X16935833Y-13879690D01*
X17173929Y-13993976D02*
X17173929Y-13793976D01*
X17259643Y-13993976D02*
X17259643Y-13889214D01*
X17250119Y-13870167D01*
X17231071Y-13860643D01*
X17202500Y-13860643D01*
X17183452Y-13870167D01*
X17173929Y-13879690D01*
X17383452Y-13993976D02*
X17364405Y-13984452D01*
X17354881Y-13974928D01*
X17345357Y-13955881D01*
X17345357Y-13898738D01*
X17354881Y-13879690D01*
X17364405Y-13870167D01*
X17383452Y-13860643D01*
X17412024Y-13860643D01*
X17431071Y-13870167D01*
X17440595Y-13879690D01*
X17450119Y-13898738D01*
X17450119Y-13955881D01*
X17440595Y-13974928D01*
X17431071Y-13984452D01*
X17412024Y-13993976D01*
X17383452Y-13993976D01*
X17564405Y-13993976D02*
X17545357Y-13984452D01*
X17535833Y-13965405D01*
X17535833Y-13793976D01*
X17716786Y-13984452D02*
X17697738Y-13993976D01*
X17659643Y-13993976D01*
X17640595Y-13984452D01*
X17631071Y-13965405D01*
X17631071Y-13889214D01*
X17640595Y-13870167D01*
X17659643Y-13860643D01*
X17697738Y-13860643D01*
X17716786Y-13870167D01*
X17726310Y-13889214D01*
X17726310Y-13908262D01*
X17631071Y-13927309D01*
X17802500Y-13984452D02*
X17821548Y-13993976D01*
X17859643Y-13993976D01*
X17878690Y-13984452D01*
X17888214Y-13965405D01*
X17888214Y-13955881D01*
X17878690Y-13936833D01*
X17859643Y-13927309D01*
X17831071Y-13927309D01*
X17812024Y-13917786D01*
X17802500Y-13898738D01*
X17802500Y-13889214D01*
X17812024Y-13870167D01*
X17831071Y-13860643D01*
X17859643Y-13860643D01*
X17878690Y-13870167D01*
X17954881Y-14070167D02*
X17964405Y-14060643D01*
X17983452Y-14032071D01*
X17992976Y-14013024D01*
X18002500Y-13984452D01*
X18012024Y-13936833D01*
X18012024Y-13898738D01*
X18002500Y-13851119D01*
X17992976Y-13822548D01*
X17983452Y-13803500D01*
X17964405Y-13774928D01*
X17954881Y-13765405D01*
D16*
X12862960Y-14102730D02*
X12992500Y-14232270D01*
X12992500Y-14102730D02*
X12862960Y-14232270D01*
X12992500Y-14167500D02*
G75*
G03*
X12992500Y-14167500I-64770J0D01*
G01*
D11*
X13354881Y-14257976D02*
X13240595Y-14257976D01*
X13297738Y-14257976D02*
X13297738Y-14057976D01*
X13278690Y-14086548D01*
X13259643Y-14105595D01*
X13240595Y-14115119D01*
X13440595Y-14238928D02*
X13450119Y-14248452D01*
X13440595Y-14257976D01*
X13431071Y-14248452D01*
X13440595Y-14238928D01*
X13440595Y-14257976D01*
X13526309Y-14077024D02*
X13535833Y-14067500D01*
X13554881Y-14057976D01*
X13602500Y-14057976D01*
X13621548Y-14067500D01*
X13631071Y-14077024D01*
X13640595Y-14096071D01*
X13640595Y-14115119D01*
X13631071Y-14143690D01*
X13516786Y-14257976D01*
X13640595Y-14257976D01*
X13735833Y-14257976D02*
X13773928Y-14257976D01*
X13792976Y-14248452D01*
X13802500Y-14238928D01*
X13821548Y-14210357D01*
X13831071Y-14172262D01*
X13831071Y-14096071D01*
X13821548Y-14077024D01*
X13812024Y-14067500D01*
X13792976Y-14057976D01*
X13754881Y-14057976D01*
X13735833Y-14067500D01*
X13726309Y-14077024D01*
X13716786Y-14096071D01*
X13716786Y-14143690D01*
X13726309Y-14162738D01*
X13735833Y-14172262D01*
X13754881Y-14181786D01*
X13792976Y-14181786D01*
X13812024Y-14172262D01*
X13821548Y-14162738D01*
X13831071Y-14143690D01*
X14012024Y-14057976D02*
X13916786Y-14057976D01*
X13907262Y-14153214D01*
X13916786Y-14143690D01*
X13935833Y-14134167D01*
X13983452Y-14134167D01*
X14002500Y-14143690D01*
X14012024Y-14153214D01*
X14021548Y-14172262D01*
X14021548Y-14219881D01*
X14012024Y-14238928D01*
X14002500Y-14248452D01*
X13983452Y-14257976D01*
X13935833Y-14257976D01*
X13916786Y-14248452D01*
X13907262Y-14238928D01*
X14107262Y-14257976D02*
X14107262Y-14124643D01*
X14107262Y-14143690D02*
X14116786Y-14134167D01*
X14135833Y-14124643D01*
X14164405Y-14124643D01*
X14183452Y-14134167D01*
X14192976Y-14153214D01*
X14192976Y-14257976D01*
X14192976Y-14153214D02*
X14202500Y-14134167D01*
X14221548Y-14124643D01*
X14250119Y-14124643D01*
X14269167Y-14134167D01*
X14278690Y-14153214D01*
X14278690Y-14257976D01*
X14373928Y-14257976D02*
X14373928Y-14124643D01*
X14373928Y-14143690D02*
X14383452Y-14134167D01*
X14402500Y-14124643D01*
X14431071Y-14124643D01*
X14450119Y-14134167D01*
X14459643Y-14153214D01*
X14459643Y-14257976D01*
X14459643Y-14153214D02*
X14469167Y-14134167D01*
X14488214Y-14124643D01*
X14516786Y-14124643D01*
X14535833Y-14134167D01*
X14545357Y-14153214D01*
X14545357Y-14257976D01*
X14935833Y-14048452D02*
X14764405Y-14305595D01*
X15192976Y-14057976D02*
X15212024Y-14057976D01*
X15231071Y-14067500D01*
X15240595Y-14077024D01*
X15250119Y-14096071D01*
X15259643Y-14134167D01*
X15259643Y-14181786D01*
X15250119Y-14219881D01*
X15240595Y-14238928D01*
X15231071Y-14248452D01*
X15212024Y-14257976D01*
X15192976Y-14257976D01*
X15173928Y-14248452D01*
X15164405Y-14238928D01*
X15154881Y-14219881D01*
X15145357Y-14181786D01*
X15145357Y-14134167D01*
X15154881Y-14096071D01*
X15164405Y-14077024D01*
X15173928Y-14067500D01*
X15192976Y-14057976D01*
X15345357Y-14238928D02*
X15354881Y-14248452D01*
X15345357Y-14257976D01*
X15335833Y-14248452D01*
X15345357Y-14238928D01*
X15345357Y-14257976D01*
X15478690Y-14057976D02*
X15497738Y-14057976D01*
X15516786Y-14067500D01*
X15526309Y-14077024D01*
X15535833Y-14096071D01*
X15545357Y-14134167D01*
X15545357Y-14181786D01*
X15535833Y-14219881D01*
X15526309Y-14238928D01*
X15516786Y-14248452D01*
X15497738Y-14257976D01*
X15478690Y-14257976D01*
X15459643Y-14248452D01*
X15450119Y-14238928D01*
X15440595Y-14219881D01*
X15431071Y-14181786D01*
X15431071Y-14134167D01*
X15440595Y-14096071D01*
X15450119Y-14077024D01*
X15459643Y-14067500D01*
X15478690Y-14057976D01*
X15726309Y-14057976D02*
X15631071Y-14057976D01*
X15621548Y-14153214D01*
X15631071Y-14143690D01*
X15650119Y-14134167D01*
X15697738Y-14134167D01*
X15716786Y-14143690D01*
X15726309Y-14153214D01*
X15735833Y-14172262D01*
X15735833Y-14219881D01*
X15726309Y-14238928D01*
X15716786Y-14248452D01*
X15697738Y-14257976D01*
X15650119Y-14257976D01*
X15631071Y-14248452D01*
X15621548Y-14238928D01*
X15926309Y-14257976D02*
X15812024Y-14257976D01*
X15869167Y-14257976D02*
X15869167Y-14057976D01*
X15850119Y-14086548D01*
X15831071Y-14105595D01*
X15812024Y-14115119D01*
X16050119Y-14057976D02*
X16069167Y-14057976D01*
X16088214Y-14067500D01*
X16097738Y-14077024D01*
X16107262Y-14096071D01*
X16116786Y-14134167D01*
X16116786Y-14181786D01*
X16107262Y-14219881D01*
X16097738Y-14238928D01*
X16088214Y-14248452D01*
X16069167Y-14257976D01*
X16050119Y-14257976D01*
X16031071Y-14248452D01*
X16021548Y-14238928D01*
X16012024Y-14219881D01*
X16002500Y-14181786D01*
X16002500Y-14134167D01*
X16012024Y-14096071D01*
X16021548Y-14077024D01*
X16031071Y-14067500D01*
X16050119Y-14057976D01*
X16192976Y-14057976D02*
X16192976Y-14096071D01*
X16269167Y-14057976D02*
X16269167Y-14096071D01*
X16564405Y-14334167D02*
X16554881Y-14324643D01*
X16535833Y-14296071D01*
X16526309Y-14277024D01*
X16516786Y-14248452D01*
X16507262Y-14200833D01*
X16507262Y-14162738D01*
X16516786Y-14115119D01*
X16526309Y-14086548D01*
X16535833Y-14067500D01*
X16554881Y-14038928D01*
X16564405Y-14029405D01*
X16726309Y-14057976D02*
X16688214Y-14057976D01*
X16669167Y-14067500D01*
X16659643Y-14077024D01*
X16640595Y-14105595D01*
X16631071Y-14143690D01*
X16631071Y-14219881D01*
X16640595Y-14238928D01*
X16650119Y-14248452D01*
X16669167Y-14257976D01*
X16707262Y-14257976D01*
X16726309Y-14248452D01*
X16735833Y-14238928D01*
X16745357Y-14219881D01*
X16745357Y-14172262D01*
X16735833Y-14153214D01*
X16726309Y-14143690D01*
X16707262Y-14134167D01*
X16669167Y-14134167D01*
X16650119Y-14143690D01*
X16640595Y-14153214D01*
X16631071Y-14172262D01*
X16983452Y-14257976D02*
X16983452Y-14057976D01*
X17069167Y-14257976D02*
X17069167Y-14153214D01*
X17059643Y-14134167D01*
X17040595Y-14124643D01*
X17012024Y-14124643D01*
X16992976Y-14134167D01*
X16983452Y-14143690D01*
X17192976Y-14257976D02*
X17173929Y-14248452D01*
X17164405Y-14238928D01*
X17154881Y-14219881D01*
X17154881Y-14162738D01*
X17164405Y-14143690D01*
X17173929Y-14134167D01*
X17192976Y-14124643D01*
X17221548Y-14124643D01*
X17240595Y-14134167D01*
X17250119Y-14143690D01*
X17259643Y-14162738D01*
X17259643Y-14219881D01*
X17250119Y-14238928D01*
X17240595Y-14248452D01*
X17221548Y-14257976D01*
X17192976Y-14257976D01*
X17373929Y-14257976D02*
X17354881Y-14248452D01*
X17345357Y-14229405D01*
X17345357Y-14057976D01*
X17526310Y-14248452D02*
X17507262Y-14257976D01*
X17469167Y-14257976D01*
X17450119Y-14248452D01*
X17440595Y-14229405D01*
X17440595Y-14153214D01*
X17450119Y-14134167D01*
X17469167Y-14124643D01*
X17507262Y-14124643D01*
X17526310Y-14134167D01*
X17535833Y-14153214D01*
X17535833Y-14172262D01*
X17440595Y-14191309D01*
X17612024Y-14248452D02*
X17631071Y-14257976D01*
X17669167Y-14257976D01*
X17688214Y-14248452D01*
X17697738Y-14229405D01*
X17697738Y-14219881D01*
X17688214Y-14200833D01*
X17669167Y-14191309D01*
X17640595Y-14191309D01*
X17621548Y-14181786D01*
X17612024Y-14162738D01*
X17612024Y-14153214D01*
X17621548Y-14134167D01*
X17640595Y-14124643D01*
X17669167Y-14124643D01*
X17688214Y-14134167D01*
X17764405Y-14334167D02*
X17773929Y-14324643D01*
X17792976Y-14296071D01*
X17802500Y-14277024D01*
X17812024Y-14248452D01*
X17821548Y-14200833D01*
X17821548Y-14162738D01*
X17812024Y-14115119D01*
X17802500Y-14086548D01*
X17792976Y-14067500D01*
X17773929Y-14038928D01*
X17764405Y-14029405D01*
M02*
