%TF.GenerationSoftware,KiCad,Pcbnew,6.0.5-a6ca702e91~116~ubuntu20.04.1*%
%TF.CreationDate,2022-07-31T14:48:15+02:00*%
%TF.ProjectId,nucleo_expansion,6e75636c-656f-45f6-9578-70616e73696f,v1.0*%
%TF.SameCoordinates,Original*%
%TF.FileFunction,Soldermask,Bot*%
%TF.FilePolarity,Negative*%
%FSLAX46Y46*%
G04 Gerber Fmt 4.6, Leading zero omitted, Abs format (unit mm)*
G04 Created by KiCad (PCBNEW 6.0.5-a6ca702e91~116~ubuntu20.04.1) date 2022-07-31 14:48:15*
%MOMM*%
%LPD*%
G01*
G04 APERTURE LIST*
G04 Aperture macros list*
%AMRoundRect*
0 Rectangle with rounded corners*
0 $1 Rounding radius*
0 $2 $3 $4 $5 $6 $7 $8 $9 X,Y pos of 4 corners*
0 Add a 4 corners polygon primitive as box body*
4,1,4,$2,$3,$4,$5,$6,$7,$8,$9,$2,$3,0*
0 Add four circle primitives for the rounded corners*
1,1,$1+$1,$2,$3*
1,1,$1+$1,$4,$5*
1,1,$1+$1,$6,$7*
1,1,$1+$1,$8,$9*
0 Add four rect primitives between the rounded corners*
20,1,$1+$1,$2,$3,$4,$5,0*
20,1,$1+$1,$4,$5,$6,$7,0*
20,1,$1+$1,$6,$7,$8,$9,0*
20,1,$1+$1,$8,$9,$2,$3,0*%
G04 Aperture macros list end*
%ADD10O,2.290000X1.840000*%
%ADD11RoundRect,0.300000X0.845000X-0.620000X0.845000X0.620000X-0.845000X0.620000X-0.845000X-0.620000X0*%
%ADD12RoundRect,0.300000X-0.845000X0.620000X-0.845000X-0.620000X0.845000X-0.620000X0.845000X0.620000X0*%
%ADD13O,1.800000X1.800000*%
%ADD14RoundRect,0.050000X0.850000X0.850000X-0.850000X0.850000X-0.850000X-0.850000X0.850000X-0.850000X0*%
%ADD15O,1.700000X1.700000*%
%ADD16RoundRect,0.050000X0.800000X0.800000X-0.800000X0.800000X-0.800000X-0.800000X0.800000X-0.800000X0*%
%ADD17RoundRect,0.050000X-0.850000X-0.850000X0.850000X-0.850000X0.850000X0.850000X-0.850000X0.850000X0*%
%ADD18RoundRect,0.050000X0.900000X0.900000X-0.900000X0.900000X-0.900000X-0.900000X0.900000X-0.900000X0*%
%ADD19C,1.900000*%
%ADD20C,1.700000*%
%ADD21O,1.900000X1.900000*%
%ADD22RoundRect,0.050000X-0.900000X-0.900000X0.900000X-0.900000X0.900000X0.900000X-0.900000X0.900000X0*%
%ADD23O,2.100000X2.005000*%
%ADD24RoundRect,0.050000X1.000000X-0.952500X1.000000X0.952500X-1.000000X0.952500X-1.000000X-0.952500X0*%
%ADD25RoundRect,0.050000X0.850000X-0.850000X0.850000X0.850000X-0.850000X0.850000X-0.850000X-0.850000X0*%
%ADD26C,2.100000*%
%ADD27RoundRect,0.050000X1.000000X1.000000X-1.000000X1.000000X-1.000000X-1.000000X1.000000X-1.000000X0*%
%ADD28RoundRect,0.050000X-0.850000X0.850000X-0.850000X-0.850000X0.850000X-0.850000X0.850000X0.850000X0*%
%ADD29C,1.903400*%
%ADD30RoundRect,0.500850X-0.450850X0.450850X-0.450850X-0.450850X0.450850X-0.450850X0.450850X0.450850X0*%
%ADD31RoundRect,0.475000X0.425000X0.425000X-0.425000X0.425000X-0.425000X-0.425000X0.425000X-0.425000X0*%
G04 APERTURE END LIST*
D10*
X141605000Y-82924000D03*
X141605000Y-85464000D03*
D11*
X141605000Y-88004000D03*
D10*
X169926000Y-58420000D03*
X169926000Y-55880000D03*
X169926000Y-53340000D03*
D12*
X169926000Y-50800000D03*
D13*
X179370200Y-24856200D03*
D14*
X179370200Y-27396200D03*
D10*
X141605000Y-92516000D03*
X141605000Y-95056000D03*
D11*
X141605000Y-97596000D03*
D15*
X151590000Y-41903000D03*
X151590000Y-39363000D03*
X151590000Y-36823000D03*
X151590000Y-34283000D03*
X151590000Y-31743000D03*
X151590000Y-29203000D03*
X151590000Y-26663000D03*
X151590000Y-24123000D03*
X164290000Y-24123000D03*
X164290000Y-26663000D03*
X164290000Y-29203000D03*
X164290000Y-31743000D03*
X164290000Y-34283000D03*
X164290000Y-36823000D03*
X164290000Y-39363000D03*
D16*
X164290000Y-41903000D03*
D13*
X187833000Y-90276000D03*
D17*
X187833000Y-87736000D03*
D13*
X154973000Y-59695000D03*
D14*
X154973000Y-62235000D03*
D18*
X143896000Y-111506000D03*
D19*
X141356000Y-111506000D03*
D20*
X183311000Y-24087200D03*
D16*
X185311000Y-24087200D03*
D10*
X194201000Y-58420000D03*
X194201000Y-55880000D03*
X194201000Y-53340000D03*
D12*
X194201000Y-50800000D03*
D10*
X194221000Y-22503000D03*
D11*
X194221000Y-25043000D03*
D21*
X197612000Y-62859000D03*
X195072000Y-62859000D03*
D22*
X192532000Y-62859000D03*
D13*
X179390200Y-59307000D03*
D14*
X179390200Y-61847000D03*
D10*
X169926000Y-36823000D03*
X169926000Y-34283000D03*
X169926000Y-31743000D03*
D12*
X169926000Y-29203000D03*
D23*
X142748000Y-45720000D03*
X142748000Y-48260000D03*
D24*
X142748000Y-50800000D03*
D23*
X142748000Y-57150000D03*
X142748000Y-59690000D03*
D24*
X142748000Y-62230000D03*
D13*
X154973000Y-31748000D03*
D14*
X154973000Y-34288000D03*
D13*
X179390200Y-46353000D03*
D14*
X179390200Y-48893000D03*
D13*
X154973000Y-24763000D03*
D14*
X154973000Y-27303000D03*
D13*
X179370200Y-31592200D03*
D14*
X179370200Y-34132200D03*
D13*
X151135000Y-117099000D03*
X151135000Y-119639000D03*
X148595000Y-117099000D03*
X148595000Y-119639000D03*
X146055000Y-117099000D03*
X146055000Y-119639000D03*
X143515000Y-117099000D03*
X143515000Y-119639000D03*
X140975000Y-117099000D03*
D25*
X140975000Y-119639000D03*
D26*
X141893677Y-26154200D03*
D27*
X146893677Y-26154200D03*
D15*
X175961200Y-41867200D03*
X175961200Y-39327200D03*
X175961200Y-36787200D03*
X175961200Y-34247200D03*
X175961200Y-31707200D03*
X175961200Y-29167200D03*
X175961200Y-26627200D03*
X175961200Y-24087200D03*
X188661200Y-24087200D03*
X188661200Y-26627200D03*
X188661200Y-29167200D03*
X188661200Y-31707200D03*
X188661200Y-34247200D03*
X188661200Y-36787200D03*
X188661200Y-39327200D03*
D16*
X188661200Y-41867200D03*
D13*
X133300000Y-67310000D03*
D28*
X135840000Y-67310000D03*
D13*
X154973000Y-52959000D03*
D14*
X154973000Y-55499000D03*
D29*
X134917299Y-62190000D03*
D30*
X134917299Y-57190000D03*
D13*
X187833000Y-80269000D03*
D14*
X187833000Y-82809000D03*
D20*
X159036000Y-45720000D03*
D16*
X161036000Y-45720000D03*
D20*
X183311000Y-45713000D03*
D16*
X185311000Y-45713000D03*
D15*
X175971200Y-63493000D03*
X175971200Y-60953000D03*
X175971200Y-58413000D03*
X175971200Y-55873000D03*
X175971200Y-53333000D03*
X175971200Y-50793000D03*
X175971200Y-48253000D03*
X175971200Y-45713000D03*
X188671200Y-45713000D03*
X188671200Y-48253000D03*
X188671200Y-50793000D03*
X188671200Y-53333000D03*
X188671200Y-55873000D03*
X188671200Y-58413000D03*
X188671200Y-60953000D03*
D16*
X188671200Y-63493000D03*
D13*
X154973000Y-38606000D03*
D14*
X154973000Y-41146000D03*
D10*
X194201000Y-36823000D03*
X194201000Y-34283000D03*
X194201000Y-31743000D03*
D12*
X194201000Y-29203000D03*
D29*
X134917299Y-28662000D03*
D30*
X134917299Y-23662000D03*
D29*
X134917299Y-50760000D03*
D30*
X134917299Y-45760000D03*
D31*
X131453700Y-35528000D03*
D15*
X151671000Y-63500000D03*
X151671000Y-60960000D03*
X151671000Y-58420000D03*
X151671000Y-55880000D03*
X151671000Y-53340000D03*
X151671000Y-50800000D03*
X151671000Y-48260000D03*
X151671000Y-45720000D03*
X164371000Y-45720000D03*
X164371000Y-48260000D03*
X164371000Y-50800000D03*
X164371000Y-53340000D03*
X164371000Y-55880000D03*
X164371000Y-58420000D03*
X164371000Y-60960000D03*
D16*
X164371000Y-63500000D03*
D13*
X154973000Y-46355000D03*
D14*
X154973000Y-48895000D03*
D10*
X194201000Y-44196000D03*
D11*
X194201000Y-46736000D03*
D25*
X159131000Y-119634000D03*
D13*
X159131000Y-117094000D03*
X161671000Y-119634000D03*
X161671000Y-117094000D03*
X164211000Y-119634000D03*
X164211000Y-117094000D03*
X166751000Y-119634000D03*
X166751000Y-117094000D03*
X169291000Y-119634000D03*
X169291000Y-117094000D03*
D20*
X159036000Y-24087200D03*
D16*
X161036000Y-24087200D03*
D13*
X179390200Y-52830000D03*
D14*
X179390200Y-55370000D03*
D13*
X179370200Y-38577200D03*
D14*
X179370200Y-41117200D03*
D10*
X141605000Y-102108000D03*
X141605000Y-104648000D03*
D11*
X141605000Y-107188000D03*
D13*
X135790000Y-116960000D03*
X133250000Y-116960000D03*
X135790000Y-114420000D03*
X133250000Y-114420000D03*
X135790000Y-111880000D03*
X133250000Y-111880000D03*
X135790000Y-109340000D03*
X133250000Y-109340000D03*
X135790000Y-106800000D03*
X133250000Y-106800000D03*
X135790000Y-104260000D03*
X133250000Y-104260000D03*
X135790000Y-101720000D03*
X133250000Y-101720000D03*
X135790000Y-99180000D03*
X133250000Y-99180000D03*
X135790000Y-96640000D03*
X133250000Y-96640000D03*
X135790000Y-94100000D03*
X133250000Y-94100000D03*
X135790000Y-91560000D03*
X133250000Y-91560000D03*
X135790000Y-89020000D03*
X133250000Y-89020000D03*
X135790000Y-86480000D03*
X133250000Y-86480000D03*
X135790000Y-83940000D03*
X133250000Y-83940000D03*
X135790000Y-81400000D03*
X133250000Y-81400000D03*
X135790000Y-78860000D03*
X133250000Y-78860000D03*
X135790000Y-76320000D03*
X133250000Y-76320000D03*
X135790000Y-73780000D03*
X133250000Y-73780000D03*
X135790000Y-71240000D03*
D14*
X133250000Y-71240000D03*
X194210000Y-71240000D03*
D13*
X196750000Y-71240000D03*
X194210000Y-73780000D03*
X196750000Y-73780000D03*
X194210000Y-76320000D03*
X196750000Y-76320000D03*
X194210000Y-78860000D03*
X196750000Y-78860000D03*
X194210000Y-81400000D03*
X196750000Y-81400000D03*
X194210000Y-83940000D03*
X196750000Y-83940000D03*
X194210000Y-86480000D03*
X196750000Y-86480000D03*
X194210000Y-89020000D03*
X196750000Y-89020000D03*
X194210000Y-91560000D03*
X196750000Y-91560000D03*
X194210000Y-94100000D03*
X196750000Y-94100000D03*
X194210000Y-96640000D03*
X196750000Y-96640000D03*
X194210000Y-99180000D03*
X196750000Y-99180000D03*
X194210000Y-101720000D03*
X196750000Y-101720000D03*
X194210000Y-104260000D03*
X196750000Y-104260000D03*
X194210000Y-106800000D03*
X196750000Y-106800000D03*
X194210000Y-109340000D03*
X196750000Y-109340000D03*
X194210000Y-111880000D03*
X196750000Y-111880000D03*
X194210000Y-114420000D03*
X196750000Y-114420000D03*
X194210000Y-116960000D03*
X196750000Y-116960000D03*
M02*
