M48
; DRILL file {KiCad 6.0.5-a6ca702e91~116~ubuntu20.04.1} date dim. 24 juil. 2022 23:29:49
; FORMAT={-:-/ absolute / metric / decimal}
; #@! TF.CreationDate,2022-07-24T23:29:49+02:00
; #@! TF.GenerationSoftware,Kicad,Pcbnew,6.0.5-a6ca702e91~116~ubuntu20.04.1
; #@! TF.FileFunction,Plated,1,2,PTH
FMAT,2
METRIC
; #@! TA.AperFunction,Plated,PTH,ComponentDrill
T1C0.800
; #@! TA.AperFunction,Plated,PTH,ViaDrill
T2C1.000
; #@! TA.AperFunction,Plated,PTH,ComponentDrill
T3C1.000
; #@! TA.AperFunction,Plated,PTH,ComponentDrill
T4C1.100
; #@! TA.AperFunction,Plated,PTH,ComponentDrill
T5C1.190
; #@! TA.AperFunction,Plated,PTH,ComponentDrill
T6C1.295
%
G90
G05
T1
X151.59Y-24.123
X151.59Y-26.663
X151.59Y-29.203
X151.59Y-31.743
X151.59Y-34.283
X151.59Y-36.823
X151.59Y-39.363
X151.59Y-41.903
X151.671Y-45.72
X151.671Y-48.26
X151.671Y-50.8
X151.671Y-53.34
X151.671Y-55.88
X151.671Y-58.42
X151.671Y-60.96
X151.671Y-63.5
X159.994Y-24.727
X159.994Y-26.727
X159.994Y-46.227
X159.994Y-48.227
X164.29Y-24.123
X164.29Y-26.663
X164.29Y-29.203
X164.29Y-31.743
X164.29Y-34.283
X164.29Y-36.823
X164.29Y-39.363
X164.29Y-41.903
X164.371Y-45.72
X164.371Y-48.26
X164.371Y-50.8
X164.371Y-53.34
X164.371Y-55.88
X164.371Y-58.42
X164.371Y-60.96
X164.371Y-63.5
X177.594Y-24.087
X177.594Y-26.627
X177.594Y-29.167
X177.594Y-31.707
X177.594Y-34.247
X177.594Y-36.787
X177.594Y-39.327
X177.594Y-41.867
X177.604Y-45.713
X177.604Y-48.253
X177.604Y-50.793
X177.604Y-53.333
X177.604Y-55.873
X177.604Y-58.413
X177.604Y-60.953
X177.604Y-63.493
X186.036Y-24.837
X186.036Y-26.837
X186.056Y-46.461
X186.056Y-48.461
X190.294Y-24.087
X190.294Y-26.627
X190.294Y-29.167
X190.294Y-31.707
X190.294Y-34.247
X190.294Y-36.787
X190.294Y-39.327
X190.294Y-41.867
X190.304Y-45.713
X190.304Y-48.253
X190.304Y-50.793
X190.304Y-53.333
X190.304Y-55.873
X190.304Y-58.413
X190.304Y-60.953
X190.304Y-63.493
T2
X138.938Y-28.702
X141.859Y-77.724
X142.494Y-108.712
X142.875Y-83.185
X143.51Y-75.692
X146.05Y-80.518
X149.098Y-97.282
X149.352Y-82.931
X150.368Y-78.486
X153.416Y-80.772
X155.956Y-97.028
X157.226Y-83.058
X162.56Y-88.138
X162.56Y-97.028
X163.576Y-104.14
X165.608Y-91.186
X166.37Y-107.188
X167.894Y-75.692
X168.656Y-25.908
X168.91Y-94.488
X169.164Y-110.49
X171.45Y-23.876
X171.704Y-77.978
X172.466Y-98.044
X172.72Y-81.28
X173.482Y-102.87
X173.736Y-109.474
X174.498Y-111.887
X176.022Y-80.01
X176.022Y-83.312
X177.292Y-76.835
X177.8Y-109.093
X179.324Y-80.645
X179.324Y-83.947
X179.324Y-87.503
X180.594Y-76.835
X180.594Y-109.601
X186.436Y-53.086
X187.452Y-57.658
T3
X133.25Y-71.24
X133.25Y-73.78
X133.25Y-76.32
X133.25Y-78.86
X133.25Y-81.4
X133.25Y-83.94
X133.25Y-86.48
X133.25Y-89.02
X133.25Y-91.56
X133.25Y-94.1
X133.25Y-96.64
X133.25Y-99.18
X133.25Y-101.72
X133.25Y-104.26
X133.25Y-106.8
X133.25Y-109.34
X133.25Y-111.88
X133.25Y-114.42
X133.25Y-116.96
X133.345Y-66.904
X134.744Y-36.18
X135.79Y-71.24
X135.79Y-73.78
X135.79Y-76.32
X135.79Y-78.86
X135.79Y-81.4
X135.79Y-83.94
X135.79Y-86.48
X135.79Y-89.02
X135.79Y-91.56
X135.79Y-94.1
X135.79Y-96.64
X135.79Y-99.18
X135.79Y-101.72
X135.79Y-104.26
X135.79Y-106.8
X135.79Y-109.34
X135.79Y-111.88
X135.79Y-114.42
X135.79Y-116.96
X135.885Y-66.904
X139.744Y-36.18
X140.16Y-114.4
X140.16Y-116.94
X142.7Y-114.4
X142.7Y-116.94
X145.24Y-114.4
X145.24Y-116.94
X147.78Y-114.4
X147.78Y-116.94
X150.32Y-114.4
X150.32Y-116.94
X154.765Y-114.4
X154.765Y-116.94
X154.973Y-24.763
X154.973Y-27.303
X154.973Y-31.748
X154.973Y-34.288
X154.973Y-38.606
X154.973Y-41.146
X154.973Y-46.355
X154.973Y-48.895
X154.973Y-52.959
X154.973Y-55.499
X154.973Y-59.695
X154.973Y-62.235
X157.305Y-114.4
X157.305Y-116.94
X159.845Y-114.4
X159.845Y-116.94
X162.385Y-114.4
X162.385Y-116.94
X164.925Y-114.4
X164.925Y-116.94
X181.003Y-24.856
X181.003Y-27.396
X181.003Y-31.592
X181.003Y-34.132
X181.003Y-38.577
X181.003Y-41.117
X181.023Y-46.353
X181.023Y-48.893
X181.023Y-52.83
X181.023Y-55.37
X181.023Y-59.307
X181.023Y-61.847
X187.833Y-80.269
X187.833Y-82.809
X187.96Y-87.757
X187.96Y-90.297
X194.21Y-71.24
X194.21Y-73.78
X194.21Y-76.32
X194.21Y-78.86
X194.21Y-81.4
X194.21Y-83.94
X194.21Y-86.48
X194.21Y-89.02
X194.21Y-91.56
X194.21Y-94.1
X194.21Y-96.64
X194.21Y-99.18
X194.21Y-101.72
X194.21Y-104.26
X194.21Y-106.8
X194.21Y-109.34
X194.21Y-111.88
X194.21Y-114.42
X194.21Y-116.96
X196.75Y-71.24
X196.75Y-73.78
X196.75Y-76.32
X196.75Y-78.86
X196.75Y-81.4
X196.75Y-83.94
X196.75Y-86.48
X196.75Y-89.02
X196.75Y-91.56
X196.75Y-94.1
X196.75Y-96.64
X196.75Y-99.18
X196.75Y-101.72
X196.75Y-104.26
X196.75Y-106.8
X196.75Y-109.34
X196.75Y-111.88
X196.75Y-114.42
X196.75Y-116.96
T4
X143.716Y-43.62
X143.716Y-46.16
X143.716Y-48.7
X143.716Y-57.404
X143.716Y-59.944
X143.716Y-62.484
T5
X141.625Y-86.48
X141.625Y-89.02
X141.625Y-91.56
X149.362Y-86.48
X149.362Y-89.02
X149.362Y-91.56
X157.226Y-86.48
X157.226Y-89.02
X157.226Y-91.56
X169.908Y-29.174
X169.908Y-31.714
X169.908Y-34.254
X169.908Y-36.794
X169.908Y-50.793
X169.908Y-53.333
X169.908Y-55.873
X169.908Y-58.413
X195.58Y-24.13
X195.58Y-26.67
X195.58Y-30.48
X195.58Y-33.02
X195.58Y-35.56
X195.58Y-38.1
X195.58Y-45.974
X195.58Y-48.514
X195.6Y-52.324
X195.6Y-54.864
X195.6Y-57.404
X195.6Y-59.944
T6
X134.756Y-25.703
X135.362Y-45.346
X135.362Y-50.346
X135.362Y-56.58
X135.362Y-61.58
X139.756Y-25.703
T0
M30
