%TF.GenerationSoftware,KiCad,Pcbnew,6.0.5-a6ca702e91~116~ubuntu20.04.1*%
%TF.CreationDate,2022-07-31T14:48:14+02:00*%
%TF.ProjectId,nucleo_expansion,6e75636c-656f-45f6-9578-70616e73696f,v1.0*%
%TF.SameCoordinates,Original*%
%TF.FileFunction,Soldermask,Top*%
%TF.FilePolarity,Negative*%
%FSLAX46Y46*%
G04 Gerber Fmt 4.6, Leading zero omitted, Abs format (unit mm)*
G04 Created by KiCad (PCBNEW 6.0.5-a6ca702e91~116~ubuntu20.04.1) date 2022-07-31 14:48:14*
%MOMM*%
%LPD*%
G01*
G04 APERTURE LIST*
G04 Aperture macros list*
%AMRoundRect*
0 Rectangle with rounded corners*
0 $1 Rounding radius*
0 $2 $3 $4 $5 $6 $7 $8 $9 X,Y pos of 4 corners*
0 Add a 4 corners polygon primitive as box body*
4,1,4,$2,$3,$4,$5,$6,$7,$8,$9,$2,$3,0*
0 Add four circle primitives for the rounded corners*
1,1,$1+$1,$2,$3*
1,1,$1+$1,$4,$5*
1,1,$1+$1,$6,$7*
1,1,$1+$1,$8,$9*
0 Add four rect primitives between the rounded corners*
20,1,$1+$1,$2,$3,$4,$5,0*
20,1,$1+$1,$4,$5,$6,$7,0*
20,1,$1+$1,$6,$7,$8,$9,0*
20,1,$1+$1,$8,$9,$2,$3,0*%
G04 Aperture macros list end*
%ADD10C,1.100000*%
%ADD11RoundRect,0.300000X-0.475000X0.337500X-0.475000X-0.337500X0.475000X-0.337500X0.475000X0.337500X0*%
%ADD12O,2.290000X1.840000*%
%ADD13RoundRect,0.300000X0.845000X-0.620000X0.845000X0.620000X-0.845000X0.620000X-0.845000X-0.620000X0*%
%ADD14RoundRect,0.300000X-0.845000X0.620000X-0.845000X-0.620000X0.845000X-0.620000X0.845000X0.620000X0*%
%ADD15RoundRect,0.300000X0.350000X0.450000X-0.350000X0.450000X-0.350000X-0.450000X0.350000X-0.450000X0*%
%ADD16O,1.800000X1.800000*%
%ADD17RoundRect,0.050000X0.850000X0.850000X-0.850000X0.850000X-0.850000X-0.850000X0.850000X-0.850000X0*%
%ADD18O,1.700000X1.700000*%
%ADD19RoundRect,0.050000X0.800000X0.800000X-0.800000X0.800000X-0.800000X-0.800000X0.800000X-0.800000X0*%
%ADD20RoundRect,0.300000X-0.450000X0.350000X-0.450000X-0.350000X0.450000X-0.350000X0.450000X0.350000X0*%
%ADD21RoundRect,0.050000X-0.850000X-0.850000X0.850000X-0.850000X0.850000X0.850000X-0.850000X0.850000X0*%
%ADD22RoundRect,0.300000X0.475000X-0.337500X0.475000X0.337500X-0.475000X0.337500X-0.475000X-0.337500X0*%
%ADD23RoundRect,0.300000X0.450000X-0.350000X0.450000X0.350000X-0.450000X0.350000X-0.450000X-0.350000X0*%
%ADD24RoundRect,0.050000X0.900000X0.900000X-0.900000X0.900000X-0.900000X-0.900000X0.900000X-0.900000X0*%
%ADD25C,1.900000*%
%ADD26C,1.700000*%
%ADD27RoundRect,0.287500X-0.287500X-0.237500X0.287500X-0.237500X0.287500X0.237500X-0.287500X0.237500X0*%
%ADD28O,1.900000X1.900000*%
%ADD29RoundRect,0.050000X-0.900000X-0.900000X0.900000X-0.900000X0.900000X0.900000X-0.900000X0.900000X0*%
%ADD30O,2.100000X2.005000*%
%ADD31RoundRect,0.050000X1.000000X-0.952500X1.000000X0.952500X-1.000000X0.952500X-1.000000X-0.952500X0*%
%ADD32RoundRect,0.050000X0.850000X-0.850000X0.850000X0.850000X-0.850000X0.850000X-0.850000X-0.850000X0*%
%ADD33C,2.100000*%
%ADD34RoundRect,0.050000X1.000000X1.000000X-1.000000X1.000000X-1.000000X-1.000000X1.000000X-1.000000X0*%
%ADD35RoundRect,0.050000X-0.850000X0.850000X-0.850000X-0.850000X0.850000X-0.850000X0.850000X0.850000X0*%
%ADD36C,1.903400*%
%ADD37RoundRect,0.500850X-0.450850X0.450850X-0.450850X-0.450850X0.450850X-0.450850X0.450850X0.450850X0*%
%ADD38RoundRect,0.050000X-0.400000X-0.700000X0.400000X-0.700000X0.400000X0.700000X-0.400000X0.700000X0*%
%ADD39RoundRect,0.050000X-0.750000X-0.750000X0.750000X-0.750000X0.750000X0.750000X-0.750000X0.750000X0*%
%ADD40RoundRect,0.050000X-0.650000X-0.750000X0.650000X-0.750000X0.650000X0.750000X-0.650000X0.750000X0*%
%ADD41RoundRect,0.050000X-0.400000X-0.750000X0.400000X-0.750000X0.400000X0.750000X-0.400000X0.750000X0*%
%ADD42RoundRect,0.050000X-0.500000X-0.775000X0.500000X-0.775000X0.500000X0.775000X-0.500000X0.775000X0*%
%ADD43RoundRect,0.050000X-0.725000X-0.500000X0.725000X-0.500000X0.725000X0.500000X-0.725000X0.500000X0*%
%ADD44RoundRect,0.050000X-0.350000X-0.875000X0.350000X-0.875000X0.350000X0.875000X-0.350000X0.875000X0*%
%ADD45RoundRect,0.475000X0.425000X0.425000X-0.425000X0.425000X-0.425000X-0.425000X0.425000X-0.425000X0*%
%ADD46RoundRect,0.475000X0.975000X0.425000X-0.975000X0.425000X-0.975000X-0.425000X0.975000X-0.425000X0*%
G04 APERTURE END LIST*
D10*
X198882000Y-38735000D03*
X169672000Y-46736000D03*
X170688000Y-23368000D03*
X168275000Y-100711000D03*
X151130000Y-88392000D03*
X178054000Y-85344000D03*
D11*
X161671000Y-63035000D03*
X161671000Y-60960000D03*
D12*
X141605000Y-82924000D03*
X141605000Y-85464000D03*
D13*
X141605000Y-88004000D03*
D12*
X169926000Y-58420000D03*
X169926000Y-55880000D03*
X169926000Y-53340000D03*
D14*
X169926000Y-50800000D03*
D15*
X134788400Y-119938800D03*
X136788400Y-119938800D03*
D16*
X179370200Y-24856200D03*
D17*
X179370200Y-27396200D03*
D12*
X141605000Y-92516000D03*
X141605000Y-95056000D03*
D13*
X141605000Y-97596000D03*
D18*
X151590000Y-41903000D03*
X151590000Y-39363000D03*
X151590000Y-36823000D03*
X151590000Y-34283000D03*
X151590000Y-31743000D03*
X151590000Y-29203000D03*
X151590000Y-26663000D03*
X151590000Y-24123000D03*
X164290000Y-24123000D03*
X164290000Y-26663000D03*
X164290000Y-29203000D03*
X164290000Y-31743000D03*
X164290000Y-34283000D03*
X164290000Y-36823000D03*
X164290000Y-39363000D03*
D19*
X164290000Y-41903000D03*
D20*
X170131000Y-114014000D03*
X170131000Y-112014000D03*
D16*
X187833000Y-90276000D03*
D21*
X187833000Y-87736000D03*
D22*
X174472600Y-104986000D03*
X174472600Y-107061000D03*
D23*
X153924000Y-112014000D03*
X153924000Y-114014000D03*
D16*
X154973000Y-59695000D03*
D17*
X154973000Y-62235000D03*
D23*
X138811000Y-110150400D03*
X138811000Y-112150400D03*
D24*
X143896000Y-111506000D03*
D25*
X141356000Y-111506000D03*
D10*
X174498000Y-101600000D03*
D11*
X185946000Y-41402200D03*
X185946000Y-39327200D03*
D26*
X183311000Y-24087200D03*
D19*
X185311000Y-24087200D03*
D12*
X194201000Y-58420000D03*
X194201000Y-55880000D03*
X194201000Y-53340000D03*
D14*
X194201000Y-50800000D03*
D12*
X194221000Y-22503000D03*
D13*
X194221000Y-25043000D03*
D27*
X189615000Y-21463000D03*
X187865000Y-21463000D03*
D28*
X197612000Y-62859000D03*
X195072000Y-62859000D03*
D29*
X192532000Y-62859000D03*
D23*
X191008000Y-86786000D03*
X191008000Y-88786000D03*
D16*
X179390200Y-59307000D03*
D17*
X179390200Y-61847000D03*
D12*
X169926000Y-36823000D03*
X169926000Y-34283000D03*
X169926000Y-31743000D03*
D14*
X169926000Y-29203000D03*
D30*
X142748000Y-45720000D03*
X142748000Y-48260000D03*
D31*
X142748000Y-50800000D03*
D30*
X142748000Y-57150000D03*
X142748000Y-59690000D03*
D31*
X142748000Y-62230000D03*
D16*
X154973000Y-31748000D03*
D17*
X154973000Y-34288000D03*
D22*
X172085000Y-104986000D03*
X172085000Y-107061000D03*
D16*
X179390200Y-46353000D03*
D17*
X179390200Y-48893000D03*
D20*
X160619800Y-114014000D03*
X160619800Y-112014000D03*
D16*
X154973000Y-24763000D03*
D17*
X154973000Y-27303000D03*
D23*
X151384000Y-112014000D03*
X151384000Y-114014000D03*
D11*
X161544000Y-41445000D03*
X161544000Y-39370000D03*
D16*
X179370200Y-31592200D03*
D17*
X179370200Y-34132200D03*
D27*
X141803700Y-41910000D03*
X140053700Y-41910000D03*
D15*
X138827000Y-73528333D03*
X140827000Y-73528333D03*
D20*
X196087000Y-67548000D03*
X196087000Y-65548000D03*
D16*
X151135000Y-117099000D03*
X151135000Y-119639000D03*
X148595000Y-117099000D03*
X148595000Y-119639000D03*
X146055000Y-117099000D03*
X146055000Y-119639000D03*
X143515000Y-117099000D03*
X143515000Y-119639000D03*
X140975000Y-117099000D03*
D32*
X140975000Y-119639000D03*
D33*
X141893677Y-26154200D03*
D34*
X146893677Y-26154200D03*
D18*
X175961200Y-41867200D03*
X175961200Y-39327200D03*
X175961200Y-36787200D03*
X175961200Y-34247200D03*
X175961200Y-31707200D03*
X175961200Y-29167200D03*
X175961200Y-26627200D03*
X175961200Y-24087200D03*
X188661200Y-24087200D03*
X188661200Y-26627200D03*
X188661200Y-29167200D03*
X188661200Y-31707200D03*
X188661200Y-34247200D03*
X188661200Y-36787200D03*
X188661200Y-39327200D03*
D19*
X188661200Y-41867200D03*
D16*
X133300000Y-67310000D03*
D35*
X135840000Y-67310000D03*
D16*
X154973000Y-52959000D03*
D17*
X154973000Y-55499000D03*
D36*
X134917299Y-62190000D03*
D37*
X134917299Y-57190000D03*
D16*
X187833000Y-80269000D03*
D17*
X187833000Y-82809000D03*
D20*
X165375400Y-114014000D03*
X165375400Y-112014000D03*
D11*
X185819000Y-63035000D03*
X185819000Y-60960000D03*
D20*
X167753200Y-114014000D03*
X167753200Y-112014000D03*
D11*
X184531000Y-88392000D03*
X184531000Y-90467000D03*
D22*
X184531000Y-80750500D03*
X184531000Y-82825500D03*
D20*
X158242000Y-114014000D03*
X158242000Y-112014000D03*
D26*
X159036000Y-45720000D03*
D19*
X161036000Y-45720000D03*
D20*
X193802000Y-67548000D03*
X193802000Y-65548000D03*
D26*
X183311000Y-45713000D03*
D19*
X185311000Y-45713000D03*
D18*
X175971200Y-63493000D03*
X175971200Y-60953000D03*
X175971200Y-58413000D03*
X175971200Y-55873000D03*
X175971200Y-53333000D03*
X175971200Y-50793000D03*
X175971200Y-48253000D03*
X175971200Y-45713000D03*
X188671200Y-45713000D03*
X188671200Y-48253000D03*
X188671200Y-50793000D03*
X188671200Y-53333000D03*
X188671200Y-55873000D03*
X188671200Y-58413000D03*
X188671200Y-60953000D03*
D19*
X188671200Y-63493000D03*
D16*
X154973000Y-38606000D03*
D17*
X154973000Y-41146000D03*
D38*
X188855000Y-103147000D03*
D39*
X188505000Y-111397000D03*
D40*
X177155000Y-111397000D03*
D41*
X176905000Y-103797000D03*
D42*
X188455000Y-100722000D03*
D43*
X177230000Y-102297000D03*
D44*
X178355000Y-111522000D03*
X179455000Y-111522000D03*
X180555000Y-111522000D03*
X181655000Y-111522000D03*
X182755000Y-111522000D03*
X183855000Y-111522000D03*
X184955000Y-111522000D03*
X186055000Y-111522000D03*
D12*
X194201000Y-36823000D03*
X194201000Y-34283000D03*
X194201000Y-31743000D03*
D14*
X194201000Y-29203000D03*
D36*
X134917299Y-28662000D03*
D37*
X134917299Y-23662000D03*
D20*
X162997600Y-114030000D03*
X162997600Y-112030000D03*
D36*
X134917299Y-50760000D03*
D37*
X134917299Y-45760000D03*
D15*
X138827000Y-71240000D03*
X140827000Y-71240000D03*
X138827000Y-78105000D03*
X140827000Y-78105000D03*
D45*
X131453700Y-35528000D03*
D46*
X133703700Y-33078000D03*
X133703700Y-37978000D03*
X141803700Y-33078000D03*
X141803700Y-37978000D03*
D45*
X144053700Y-35528000D03*
D27*
X141803700Y-40132000D03*
X140053700Y-40132000D03*
D10*
X191008000Y-100330000D03*
D23*
X148844000Y-112014000D03*
X148844000Y-114014000D03*
D18*
X151671000Y-63500000D03*
X151671000Y-60960000D03*
X151671000Y-58420000D03*
X151671000Y-55880000D03*
X151671000Y-53340000D03*
X151671000Y-50800000D03*
X151671000Y-48260000D03*
X151671000Y-45720000D03*
X164371000Y-45720000D03*
X164371000Y-48260000D03*
X164371000Y-50800000D03*
X164371000Y-53340000D03*
X164371000Y-55880000D03*
X164371000Y-58420000D03*
X164371000Y-60960000D03*
D19*
X164371000Y-63500000D03*
D20*
X198372000Y-67548000D03*
X198372000Y-65548000D03*
D16*
X154973000Y-46355000D03*
D17*
X154973000Y-48895000D03*
D12*
X194201000Y-44196000D03*
D13*
X194201000Y-46736000D03*
D32*
X159131000Y-119634000D03*
D16*
X159131000Y-117094000D03*
X161671000Y-119634000D03*
X161671000Y-117094000D03*
X164211000Y-119634000D03*
X164211000Y-117094000D03*
X166751000Y-119634000D03*
X166751000Y-117094000D03*
X169291000Y-119634000D03*
X169291000Y-117094000D03*
D26*
X159036000Y-24087200D03*
D19*
X161036000Y-24087200D03*
D27*
X192451000Y-41148000D03*
X194201000Y-41148000D03*
D20*
X191008000Y-83759000D03*
X191008000Y-81759000D03*
D16*
X179390200Y-52830000D03*
D17*
X179390200Y-55370000D03*
D16*
X179370200Y-38577200D03*
D17*
X179370200Y-41117200D03*
D15*
X138827000Y-75816666D03*
X140827000Y-75816666D03*
D12*
X141605000Y-102108000D03*
X141605000Y-104648000D03*
D13*
X141605000Y-107188000D03*
D16*
X135790000Y-116960000D03*
X133250000Y-116960000D03*
X135790000Y-114420000D03*
X133250000Y-114420000D03*
X135790000Y-111880000D03*
X133250000Y-111880000D03*
X135790000Y-109340000D03*
X133250000Y-109340000D03*
X135790000Y-106800000D03*
X133250000Y-106800000D03*
X135790000Y-104260000D03*
X133250000Y-104260000D03*
X135790000Y-101720000D03*
X133250000Y-101720000D03*
X135790000Y-99180000D03*
X133250000Y-99180000D03*
X135790000Y-96640000D03*
X133250000Y-96640000D03*
X135790000Y-94100000D03*
X133250000Y-94100000D03*
X135790000Y-91560000D03*
X133250000Y-91560000D03*
X135790000Y-89020000D03*
X133250000Y-89020000D03*
X135790000Y-86480000D03*
X133250000Y-86480000D03*
X135790000Y-83940000D03*
X133250000Y-83940000D03*
X135790000Y-81400000D03*
X133250000Y-81400000D03*
X135790000Y-78860000D03*
X133250000Y-78860000D03*
X135790000Y-76320000D03*
X133250000Y-76320000D03*
X135790000Y-73780000D03*
X133250000Y-73780000D03*
X135790000Y-71240000D03*
D17*
X133250000Y-71240000D03*
X194210000Y-71240000D03*
D16*
X196750000Y-71240000D03*
X194210000Y-73780000D03*
X196750000Y-73780000D03*
X194210000Y-76320000D03*
X196750000Y-76320000D03*
X194210000Y-78860000D03*
X196750000Y-78860000D03*
X194210000Y-81400000D03*
X196750000Y-81400000D03*
X194210000Y-83940000D03*
X196750000Y-83940000D03*
X194210000Y-86480000D03*
X196750000Y-86480000D03*
X194210000Y-89020000D03*
X196750000Y-89020000D03*
X194210000Y-91560000D03*
X196750000Y-91560000D03*
X194210000Y-94100000D03*
X196750000Y-94100000D03*
X194210000Y-96640000D03*
X196750000Y-96640000D03*
X194210000Y-99180000D03*
X196750000Y-99180000D03*
X194210000Y-101720000D03*
X196750000Y-101720000D03*
X194210000Y-104260000D03*
X196750000Y-104260000D03*
X194210000Y-106800000D03*
X196750000Y-106800000D03*
X194210000Y-109340000D03*
X196750000Y-109340000D03*
X194210000Y-111880000D03*
X196750000Y-111880000D03*
X194210000Y-114420000D03*
X196750000Y-114420000D03*
X194210000Y-116960000D03*
X196750000Y-116960000D03*
G36*
X177970427Y-110611093D02*
G01*
X177970991Y-110613012D01*
X177970710Y-110613651D01*
X177960691Y-110628645D01*
X177957000Y-110647199D01*
X177957000Y-112319420D01*
X177956000Y-112321152D01*
X177954000Y-112321152D01*
X177953081Y-112319983D01*
X177933087Y-112251890D01*
X177879915Y-112205817D01*
X177810884Y-112197770D01*
X177809280Y-112196576D01*
X177809511Y-112194589D01*
X177810726Y-112193821D01*
X177823355Y-112191309D01*
X177838913Y-112180913D01*
X177849309Y-112165355D01*
X177853000Y-112146801D01*
X177853000Y-110647199D01*
X177849309Y-110628645D01*
X177839397Y-110613811D01*
X177839266Y-110611815D01*
X177840929Y-110610704D01*
X177841658Y-110610791D01*
X177902753Y-110629922D01*
X177968484Y-110610621D01*
X177970427Y-110611093D01*
G37*
G36*
X176476057Y-102834234D02*
G01*
X176486645Y-102841309D01*
X176505199Y-102845000D01*
X177465004Y-102845000D01*
X177466736Y-102846000D01*
X177466736Y-102848000D01*
X177465567Y-102848919D01*
X177397474Y-102868913D01*
X177351381Y-102922107D01*
X177341355Y-102991842D01*
X177345922Y-103003762D01*
X177346016Y-103004088D01*
X177349613Y-103022174D01*
X177348970Y-103024068D01*
X177347008Y-103024458D01*
X177345988Y-103023675D01*
X177338913Y-103013087D01*
X177323355Y-103002691D01*
X177304801Y-102999000D01*
X176505199Y-102999000D01*
X176486645Y-103002691D01*
X176476057Y-103009766D01*
X176474061Y-103009897D01*
X176472950Y-103008234D01*
X176473283Y-103006992D01*
X176483509Y-102991687D01*
X176504627Y-102924248D01*
X176483500Y-102852299D01*
X176473283Y-102837008D01*
X176473152Y-102835012D01*
X176474815Y-102833901D01*
X176476057Y-102834234D01*
G37*
M02*
